<svg width="76" height="23" viewBox="0 0 76 23" fill="none" xmlns="http://www.w3.org/2000/svg">
<path d="M48.4235 6.53693C49.27 5.47096 50.5868 4.89094 52.1544 4.89094C55.4934 4.89094 57.8291 7.60291 57.8291 11.4906C57.8291 15.4096 55.4934 18.1373 52.1544 18.1373C50.6025 18.1373 49.2857 17.5416 48.4235 16.4599V17.8551H45.2256V0H48.4235V6.53693ZM51.496 15.2999C53.7063 15.2999 54.4901 13.356 54.4901 11.5376C54.4901 9.68783 53.7063 7.72832 51.496 7.72832C49.3797 7.72832 48.4235 9.6408 48.4235 11.5376C48.4235 13.8106 49.6305 15.2999 51.496 15.2999ZM58.5816 17.8394V0H61.8265V17.8394H58.5816ZM31.2268 11.1144V12.3371H22.2601C22.3228 14.1555 23.5612 15.2685 25.4893 15.2685C26.7905 15.2685 27.8878 14.7512 28.6716 13.7793L28.75 13.6852L30.8349 15.6448L30.7722 15.7231C29.424 17.3378 27.5899 18.1529 25.3326 18.1529C21.3665 18.1529 18.8113 15.5664 18.8113 11.569C18.8113 7.57156 21.3508 4.89094 25.1445 4.89094C28.7656 4.89094 31.2268 7.39912 31.2268 11.1144ZM22.3541 9.93865H28.1073C27.8094 8.55915 26.7591 7.72832 25.2699 7.72832C23.7806 7.72832 22.6833 8.57483 22.3541 9.93865ZM44.285 11.1144V12.3371H35.3183C35.381 14.1555 36.6194 15.2685 38.5475 15.2685C39.8486 15.2685 40.946 14.7512 41.7298 13.7793L41.8082 13.6852L43.8931 15.6448L43.8304 15.7231C42.4822 17.3378 40.6481 18.1529 38.3908 18.1529C34.4247 18.1529 31.8695 15.5664 31.8695 11.569C31.8695 7.57156 34.409 4.89094 38.2027 4.89094C41.8395 4.89094 44.285 7.39912 44.285 11.1144ZM35.428 9.93865H41.1811C40.8833 8.55915 39.833 7.72832 38.3437 7.72832C36.8545 7.72832 35.7415 8.57483 35.428 9.93865ZM15.5507 5.17311H18.9994L15.535 17.8708H11.8511L9.51539 9.71918L7.13263 17.8708H3.43307L3.41739 17.7924L0 5.18879H3.46442L5.39258 13.262L7.72832 5.18879H11.3025L13.6382 13.262L15.5507 5.17311ZM72.1414 5.20446H75.6058L68.8338 22.9968H65.7299L67.6581 17.8551L62.626 5.20446H66.2629L69.21 13.6539L72.1414 5.20446Z" fill="#C7CAD4"/>
</svg>
