<svg width="94" height="21" viewBox="0 0 94 21" fill="none" xmlns="http://www.w3.org/2000/svg">
<path d="M87.457 16.3367C87.457 15.0077 88.5322 13.9294 89.8558 13.9294C91.1802 13.9294 92.254 15.0077 92.254 16.3367C92.254 17.6656 91.1802 18.7432 89.8558 18.7432C88.5322 18.7432 87.457 17.6656 87.457 16.3367Z" fill="#C7CAD4"/>
<path d="M10.9524 9.96245C10.9524 8.43774 10.6589 7.30657 10.0716 6.56964C9.4837 5.83341 8.59309 5.46564 7.39576 5.46564H6.12208V14.7894H7.09656C8.42649 14.7894 9.40108 14.3938 10.0216 13.5997C10.6414 12.8071 10.9524 11.5944 10.9524 9.96245ZM15.4947 9.80365C15.4947 12.5814 14.7506 14.7218 13.2624 16.2243C11.7742 17.7274 9.68221 18.4789 6.98553 18.4789H1.74561V1.83395H7.3513C9.95147 1.83395 11.9588 2.51724 13.3735 3.88314C14.7874 5.24973 15.4947 7.22231 15.4947 9.80365Z" fill="#C7CAD4"/>
<path d="M30.0093 18.4779H34.1789V1.76329H30.0093V18.4779Z" fill="#C7CAD4"/>
<path d="M40.0364 12.2433C40.0364 13.309 40.1752 14.1219 40.4522 14.6805C40.7298 15.2398 41.1948 15.5191 41.8487 15.5191C42.4956 15.5191 42.953 15.2398 43.2196 14.6805C43.4861 14.1219 43.6187 13.309 43.6187 12.2433C43.6187 11.1832 43.484 10.3836 43.214 9.84376C42.9433 9.30256 42.4818 9.0316 41.8273 9.0316C41.1873 9.0316 40.7298 9.30118 40.4522 9.8375C40.1752 10.3745 40.0364 11.1762 40.0364 12.2433ZM47.8626 12.2433C47.8626 14.2737 47.3322 15.8576 46.2688 16.993C45.2061 18.129 43.7186 18.6974 41.8064 18.6974C39.9725 18.6974 38.5127 18.1165 37.4292 16.9546C36.3443 15.7928 35.8022 14.2229 35.8022 12.2433C35.8022 10.2192 36.3333 8.64642 37.3967 7.52501C38.46 6.40359 39.951 5.84289 41.8709 5.84289C43.0572 5.84289 44.1067 6.10271 45.016 6.62163C45.926 7.14054 46.6285 7.88374 47.1219 8.85192C47.6162 9.8187 47.8626 10.9499 47.8626 12.2433Z" fill="#C7CAD4"/>
<path d="M49.5181 18.478H53.6883V12.081V6.06228H49.5181V18.478Z" fill="#C7CAD4"/>
<path d="M49.5181 4.5605H53.6883V1.76254H49.5181V4.5605Z" fill="#C7CAD4"/>
<path d="M62.1371 15.3112C62.7001 15.3112 63.3706 15.1677 64.1528 14.8828V18.0068C63.5906 18.2547 63.0562 18.4323 62.5481 18.5375C62.04 18.6441 61.4437 18.697 60.7614 18.697C59.3613 18.697 58.3521 18.3439 57.7322 17.639C57.1152 16.9341 56.8056 15.8517 56.8056 14.3911V9.27298H55.3452V6.06336H56.8056V2.89275L61.0078 2.15928V6.06336H63.6684V9.27298H61.0078V14.1055C61.0078 14.9093 61.3847 15.3112 62.1371 15.3112Z" fill="#C7CAD4"/>
<path d="M71.7887 15.3112C72.3517 15.3112 73.0223 15.1677 73.8045 14.8828V18.0068C73.243 18.2547 72.7077 18.4323 72.1996 18.5375C71.6909 18.6441 71.0967 18.697 70.4129 18.697C69.0129 18.697 68.0037 18.3439 67.3852 17.639C66.7668 16.9341 66.4573 15.8517 66.4573 14.3911V9.27298H64.9961V6.06336H66.4573V2.84469L70.6587 2.15928V6.06336H73.3206V9.27298H70.6587V14.1055C70.6587 14.9093 71.0356 15.3112 71.7887 15.3112Z" fill="#C7CAD4"/>
<path d="M79.0665 10.7307C79.1235 10.0509 79.3172 9.55288 79.6476 9.23456C79.9794 8.91695 80.3889 8.75815 80.879 8.75815C81.4134 8.75815 81.8382 8.93644 82.1533 9.29585C82.4705 9.65317 82.6358 10.1317 82.649 10.7307H79.0665ZM84.9472 7.30659C83.956 6.33144 82.5496 5.84316 80.7304 5.84316C78.8181 5.84316 77.3466 6.40386 76.3151 7.52527C75.2843 8.64669 74.7686 10.2557 74.7686 12.3523C74.7686 14.3826 75.326 15.9484 76.438 17.0475C77.5506 18.1467 79.113 18.6969 81.1253 18.6969C82.0915 18.6969 82.9232 18.6308 83.6201 18.4991C84.3128 18.3689 84.9833 18.1334 85.6337 17.7935L84.993 14.9956C84.5203 15.1892 84.0705 15.3383 83.6457 15.4365C83.0321 15.5793 82.3589 15.651 81.6258 15.651C80.8221 15.651 80.1876 15.4539 79.7226 15.0596C79.2575 14.6647 79.0097 14.12 78.9813 13.4263H86.4346V11.5199C86.4346 9.68592 85.939 8.28104 84.9472 7.30659Z" fill="#C7CAD4"/>
<path d="M21.0289 10.7307C21.0859 10.0509 21.2795 9.55288 21.6099 9.23456C21.941 8.91695 22.3513 8.75815 22.8421 8.75815C23.3751 8.75815 23.7999 8.93644 24.1157 9.29585C24.4329 9.65317 24.5975 10.1317 24.6121 10.7307H21.0289ZM26.9102 7.30659C25.9184 6.33144 24.5127 5.84316 22.6928 5.84316C20.7797 5.84316 19.3089 6.40386 18.2781 7.52527C17.2473 8.64669 16.731 10.2557 16.731 12.3523C16.731 14.3826 17.2877 15.9484 18.401 17.0475C19.513 18.1467 21.0754 18.6969 23.0877 18.6969C24.0539 18.6969 24.8854 18.6308 25.5823 18.4991C26.2751 18.3689 26.9457 18.1334 27.5968 17.7935L26.9554 14.9956C26.4827 15.1892 26.0328 15.3383 25.6088 15.4365C24.9938 15.5793 24.3211 15.651 23.5881 15.651C22.785 15.651 22.15 15.4539 21.685 15.0596C21.2192 14.6647 20.9721 14.12 20.9437 13.4263H28.397V11.5199C28.397 9.68592 27.9014 8.28104 26.9102 7.30659Z" fill="#C7CAD4"/>
</svg>
