<svg width="68" height="50" viewBox="0 0 68 50" fill="none" xmlns="http://www.w3.org/2000/svg">
<g clip-path="url(#clip0)">
<path fill-rule="evenodd" clip-rule="evenodd" d="M51.793 17.1794L52.6908 18.0772C52.4482 18.3137 52.1995 18.5382 51.9507 18.7566C52.1995 18.9749 52.4482 19.1994 52.6847 19.442L51.793 20.3338C51.5165 20.057 51.2249 19.7958 50.9195 19.5512C49.3562 20.6276 47.5735 21.3437 45.7 21.6479C43.8265 21.9521 41.9089 21.8368 40.0853 21.3104C41.7458 22.2279 43.1818 23.5027 44.2896 25.0427C45.3974 26.5827 46.1493 28.3495 46.4912 30.2155C46.8734 30.2701 47.298 30.2701 47.6438 30.2701V31.538C47.4693 31.538 47.3042 31.5241 47.1405 31.5103C46.9797 31.4968 46.8203 31.4834 46.655 31.4834C46.7096 31.817 46.7096 32.1324 46.7096 32.4782H45.4478C45.4478 32.1324 45.4235 31.7018 45.3872 31.3196C43.5224 30.9787 41.7564 30.2284 40.2166 29.1228C38.6767 28.0172 37.4012 26.5838 36.482 24.9258C37.0088 26.7484 37.1242 28.6651 36.82 30.5377C36.5158 32.4103 35.7995 34.1919 34.7228 35.7539C34.9674 36.0593 35.2286 36.351 35.5054 36.6275L34.6137 37.5192C34.3771 37.2826 34.1466 37.0339 33.9282 36.7852C33.7159 37.0339 33.4853 37.2826 33.2488 37.5192L32.351 36.6275C32.63 36.3606 32.8909 36.0573 33.1396 35.7539C31.6543 33.6178 30.8622 31.0763 30.8708 28.4746C30.8707 27.2807 31.0361 26.0925 31.3622 24.944C30.4464 26.5938 29.1777 28.0212 27.6468 29.1243C26.1159 30.2274 24.3604 30.979 22.5056 31.3256C22.4651 31.7105 22.4449 32.0973 22.4449 32.4843H21.1528C21.1528 32.3099 21.1683 32.1431 21.1836 31.9779C21.1986 31.8156 21.2135 31.6548 21.2135 31.4894C21.1467 31.4943 21.0811 31.4994 21.0161 31.5045C20.7567 31.5246 20.5073 31.544 20.2308 31.544V30.2701C20.6136 30.2721 20.9963 30.2538 21.3773 30.2155C21.7142 28.3517 22.4609 26.5859 23.5634 25.0459C24.666 23.5058 26.097 22.2299 27.7528 21.3104C25.9303 21.8368 24.0136 21.952 22.1411 21.6477C20.2686 21.3435 18.4869 20.6275 16.9247 19.5512C16.6226 19.7974 16.3331 20.0585 16.0573 20.3338L15.1595 19.442C15.4021 19.1994 15.6448 18.9749 15.8995 18.7566C15.6448 18.5382 15.4021 18.3137 15.1655 18.0772L16.0694 17.1794C16.3363 17.4584 16.6457 17.7193 16.9429 17.968C18.5058 16.8906 20.2882 16.1734 22.1617 15.8682C24.0352 15.5629 25.9531 15.6772 27.7771 16.2027C26.1182 15.2855 24.6836 14.0115 23.5769 12.4725C22.4702 10.9336 21.7189 9.16818 21.3773 7.30366C20.9967 7.26015 20.6138 7.23989 20.2308 7.24299V5.97517C20.5296 5.97517 20.7634 5.99815 21.0142 6.0228C21.079 6.02918 21.145 6.03567 21.2135 6.04189C21.2112 6.01686 21.209 5.99199 21.2067 5.96726C21.1788 5.66249 21.1528 5.379 21.1528 5.05918H22.4449C22.4348 5.44161 22.445 5.82431 22.4753 6.20568C24.3343 6.54491 26.0953 7.2914 27.6318 8.39159C29.1682 9.49177 30.4422 10.9184 31.3622 12.5691C31.0361 11.4227 30.8707 10.2365 30.8708 9.04464C30.8622 6.44287 31.6543 3.90144 33.1396 1.76525C32.8928 1.46191 32.6295 1.17232 32.351 0.897792L33.2488 0C33.4853 0.23658 33.7159 0.485293 33.9282 0.740071C34.1466 0.485293 34.3771 0.23658 34.6137 0L35.5175 0.897792C35.2445 1.15864 34.9776 1.46801 34.735 1.76525C36.2167 3.90318 37.0084 6.44346 37.0037 9.04464C36.9999 10.2391 36.8304 11.4272 36.5002 12.5751C37.4196 10.9233 38.6932 9.49553 40.2297 8.39426C41.7662 7.293 43.5275 6.54559 45.3872 6.20568C45.4478 5.82351 45.4478 5.40495 45.4478 5.05918H46.7096C46.7096 5.23361 46.6957 5.39723 46.6819 5.55939C46.6684 5.71868 46.655 5.87656 46.655 6.04189C46.7129 6.03663 46.7701 6.03118 46.8269 6.02577C47.0972 6.00002 47.358 5.97517 47.6438 5.97517V7.21873C47.2588 7.21871 46.8741 7.23896 46.4912 7.27939C46.1542 9.14871 45.4049 10.9195 44.2979 12.463C43.1909 14.0065 41.7539 15.284 40.0914 16.2027C41.9154 15.6772 43.8333 15.5629 45.7068 15.8682C47.5803 16.1734 49.3627 16.8906 50.9256 17.968C51.2228 17.7193 51.514 17.4584 51.793 17.1794ZM24.2102 16.9682C22.024 16.9682 19.8827 17.5883 18.0348 18.7566C19.8827 19.9248 22.024 20.545 24.2102 20.545C26.3964 20.545 28.5377 19.9248 30.3855 18.7566C28.5377 17.5883 26.3964 16.9682 24.2102 16.9682ZM25.7896 24.3618C24.2439 25.9085 23.1702 27.863 22.6936 29.9972C24.8274 29.5192 26.7812 28.444 28.3269 26.8973C29.8726 25.3505 30.9463 23.396 31.4228 21.2619C29.2891 21.7399 27.3353 22.815 25.7896 24.3618ZM28.3269 10.6159C26.7812 9.06911 24.8274 7.99397 22.6936 7.51597C23.1702 9.65009 24.2439 11.6046 25.7896 13.1514C27.3353 14.6981 29.2891 15.7732 31.4228 16.2512C30.9463 14.1171 29.8726 12.1626 28.3269 10.6159ZM35.726 9.03858C35.726 6.84917 35.1024 4.70506 33.9282 2.85716C32.7589 4.70686 32.1382 6.85028 32.1382 9.03858C32.1382 11.2269 32.7589 13.3703 33.9282 15.22C35.1024 13.3721 35.726 11.228 35.726 9.03858ZM32.1361 28.4776C32.1361 30.6633 32.7577 32.804 33.9282 34.6499C35.0987 32.804 35.7202 30.6633 35.7202 28.4776C35.7202 26.2918 35.0987 24.1512 33.9282 22.3053C32.7577 24.1512 32.1361 26.2918 32.1361 28.4776ZM32.9596 20.2333C33.2589 20.4333 33.6107 20.54 33.9706 20.54C34.4533 20.54 34.9162 20.3483 35.2575 20.007C35.5988 19.6657 35.7905 19.2028 35.7905 18.7202C35.7905 18.3602 35.6838 18.0084 35.4838 17.7091C35.2838 17.4098 34.9996 17.1766 34.6671 17.0388C34.3345 16.9011 33.9686 16.8651 33.6156 16.9353C33.2626 17.0055 32.9383 17.1788 32.6838 17.4333C32.4293 17.6879 32.256 18.0121 32.1858 18.3651C32.1155 18.7181 32.1516 19.0841 32.2893 19.4166C32.4271 19.7491 32.6603 20.0333 32.9596 20.2333ZM42.0728 13.1514C43.6185 11.6046 44.6923 9.65009 45.1688 7.51597C43.035 7.99397 41.0812 9.06911 39.5355 10.6159C37.9899 12.1626 36.9161 14.1171 36.4396 16.2512C38.5734 15.7732 40.5271 14.6981 42.0728 13.1514ZM39.5355 26.8973C41.0812 28.444 43.035 29.5192 45.1688 29.9972C44.6923 27.863 43.6185 25.9085 42.0728 24.3618C40.5271 22.815 38.5734 21.7399 36.4396 21.2619C36.9161 23.396 37.9899 25.3505 39.5355 26.8973ZM43.6522 16.9682C41.4661 16.9682 39.3247 17.5883 37.4769 18.7566C39.3247 19.9248 41.4661 20.545 43.6522 20.545C45.8384 20.545 47.9797 19.9248 49.8276 18.7566C47.9797 17.5883 45.8384 16.9682 43.6522 16.9682Z" fill="#C7CAD4"/>
<path d="M35.5357 49.8578C36.0271 49.8699 36.2394 49.6454 36.2394 49.1905V44.7622C36.2345 44.6951 36.2431 44.6276 36.2646 44.5639C36.2862 44.5001 36.3203 44.4414 36.365 44.391C36.4097 44.3407 36.464 44.2998 36.5247 44.2709C36.5855 44.2419 36.6514 44.2254 36.7186 44.2223H38.4475C38.8539 44.2284 39.0541 43.9978 39.0541 43.5308C39.0541 43.0637 38.8479 42.8392 38.4475 42.8392H33.3095C32.812 42.8574 32.5633 43.1001 32.5633 43.5672C32.5633 44.0342 32.812 44.2466 33.3095 44.2466H34.3953C34.6865 44.2466 34.8381 44.4164 34.8381 44.7622V49.1723C34.826 49.6394 35.0444 49.8456 35.5357 49.8578Z" fill="#C7CAD4"/>
<path d="M1.41964 49.5484L3.1485 45.0109C3.30622 44.5256 3.47001 44.5256 3.63986 45.0109L5.38691 49.5241C5.41633 49.6169 5.4733 49.6985 5.55024 49.7581C5.62717 49.8177 5.72043 49.8525 5.81761 49.8578H6.53342C6.77606 49.8517 6.86099 49.7 6.77606 49.4089L4.27681 43.2881C4.18862 43.1362 4.05752 43.0136 3.89995 42.9359C3.74239 42.8582 3.56538 42.8288 3.39115 42.8514C3.21387 42.8249 3.03274 42.849 2.86855 42.9209C2.70437 42.9928 2.56381 43.1096 2.46302 43.2578L0.0365594 49.3785C-0.054433 49.6879 0.0244271 49.876 0.27314 49.876H0.995013C1.09062 49.8707 1.1824 49.8366 1.25822 49.7781C1.33404 49.7197 1.39032 49.6395 1.41964 49.5484Z" fill="#C7CAD4"/>
<path d="M20.0731 43.1789L18.32 47.7104C18.1562 48.2138 17.9985 48.2138 17.8347 47.7104L16.1907 43.3548C15.9906 43.0151 15.7843 42.8453 15.5841 42.8453H15.1352C14.9108 42.8453 14.6803 43.0273 14.4558 43.3912L12.7755 47.7104C12.6178 48.2138 12.4601 48.2138 12.2963 47.7104L10.5674 43.1729C10.5381 43.0817 10.4818 43.0016 10.406 42.9431C10.3302 42.8846 10.2384 42.8505 10.1428 42.8453H9.42697C9.17219 42.8635 9.10546 43.0091 9.21465 43.2821L11.6775 49.4392C11.7928 49.7304 12.084 49.876 12.5389 49.8699C12.9939 49.8638 13.279 49.7182 13.4003 49.421L15.3051 44.6894L17.222 49.4392C17.3312 49.7304 17.6224 49.876 18.0773 49.8699C18.5323 49.8638 18.8235 49.7182 18.9448 49.421L21.4319 43.2821C21.5411 43.0091 21.4744 42.8756 21.2439 42.8756L20.5038 42.8453C20.4066 42.8506 20.3133 42.8854 20.2364 42.945C20.1595 43.0046 20.1025 43.0862 20.0731 43.1789Z" fill="#C7CAD4"/>
<path d="M26.9885 45.0109L25.2535 49.5484C25.2261 49.6395 25.1712 49.7199 25.0962 49.7786C25.0213 49.8372 24.93 49.8712 24.835 49.876H24.1131C23.8644 49.876 23.7855 49.6879 23.8765 49.3785L26.303 43.2578C26.4033 43.1106 26.5429 42.9945 26.7059 42.9226C26.8689 42.8508 27.0487 42.8261 27.225 42.8514C27.4002 42.8284 27.5782 42.8576 27.7368 42.9352C27.8954 43.0129 28.0276 43.1357 28.1168 43.2881L30.616 49.4089C30.701 49.7001 30.616 49.8517 30.3734 49.8578H29.6576C29.5602 49.8533 29.4665 49.8189 29.3894 49.7592C29.3123 49.6994 29.2555 49.6174 29.2269 49.5241L27.4677 44.9927C27.2978 44.5256 27.1462 44.5256 26.9885 45.0109Z" fill="#C7CAD4"/>
<path d="M45.3447 47.0613H43.0881V47.9227C43.0881 48.2684 43.2276 48.4322 43.5006 48.4262H48.0623C48.4688 48.4262 48.669 48.6688 48.669 49.142C48.669 49.6151 48.4566 49.8396 48.0623 49.8335H42.4633C41.9598 49.8335 41.7111 49.5605 41.7111 49.0146V43.6764C41.7111 43.1243 41.9477 42.8514 42.4269 42.8514H48.0866C48.493 42.8514 48.6932 43.0758 48.6932 43.5429C48.6932 44.01 48.4991 44.2405 48.0866 44.2344H43.5006C43.2276 44.2344 43.0881 44.4225 43.0881 44.7379V45.6721H45.375C45.473 45.6503 45.5748 45.6532 45.6713 45.6804C45.7679 45.7077 45.8562 45.7584 45.9283 45.8281C46.0004 45.8979 46.0541 45.9844 46.0846 46.08C46.1151 46.1755 46.1214 46.2772 46.103 46.3758C46.103 46.8429 45.8421 47.0734 45.3447 47.0613Z" fill="#C7CAD4"/>
<path d="M53.9382 46.0818C53.9088 46.177 53.9033 46.278 53.9222 46.3758C53.9222 46.8429 54.171 47.0734 54.6684 47.037H56.1C56.4923 47.037 56.741 47.1462 56.8461 47.3646C56.8971 47.4831 56.9199 47.6119 56.9129 47.7407V49.1359C56.8959 49.2297 56.9013 49.3261 56.9285 49.4174C56.9558 49.5087 57.0041 49.5923 57.0697 49.6614C57.1353 49.7305 57.2162 49.7832 57.3059 49.8152C57.3957 49.8472 57.4917 49.8576 57.5862 49.8456C57.6825 49.8572 57.7801 49.8469 57.8718 49.8154C57.9635 49.7839 58.0469 49.7321 58.1157 49.6638C58.1845 49.5956 58.2371 49.5126 58.2693 49.4212C58.3016 49.3298 58.3128 49.2323 58.302 49.1359V47.7771C58.3376 47.4697 58.2545 47.1604 58.0695 46.9123C57.8846 46.6642 57.6119 46.4962 57.3072 46.4425C57.6232 46.3579 57.8991 46.164 58.0856 45.8952C58.2722 45.6264 58.3575 45.3002 58.3263 44.9745C58.3394 44.5637 58.2249 44.159 57.9987 43.8159C57.5559 43.185 56.7248 42.8514 55.5116 42.8514H52.1085C51.5868 42.8696 51.3199 43.1365 51.3199 43.7431V49.1359C51.2996 49.2363 51.3037 49.3401 51.3317 49.4387C51.3597 49.5373 51.4108 49.6277 51.4809 49.7025C51.5509 49.7772 51.6378 49.8342 51.7343 49.8686C51.8308 49.903 51.9341 49.9139 52.0357 49.9002C52.131 49.9152 52.2285 49.9072 52.32 49.8769C52.4116 49.8466 52.4947 49.7949 52.5623 49.7261C52.6299 49.6573 52.6801 49.5734 52.7088 49.4813C52.7375 49.3892 52.7438 49.2916 52.7272 49.1966V44.7986C52.7272 44.4589 52.8849 44.283 53.2004 44.283H55.5298C55.8513 44.2679 56.1735 44.2944 56.4882 44.3618C56.6237 44.3933 56.7464 44.4652 56.8401 44.5681C56.9061 44.6907 56.9356 44.8296 56.925 44.9684C56.9322 45.0953 56.9093 45.2221 56.8583 45.3385C56.7653 45.5569 56.5165 45.6661 56.1121 45.6661H54.6381C54.5404 45.6463 54.4393 45.6509 54.3439 45.6795C54.2484 45.7081 54.1615 45.7597 54.0907 45.8299C54.02 45.9 53.9676 45.9865 53.9382 46.0818Z" fill="#C7CAD4"/>
<path d="M64.1922 45.0109L62.4816 49.5484C62.4534 49.6391 62.3982 49.719 62.3234 49.7775C62.2486 49.836 62.1578 49.8704 62.063 49.876H61.3411C61.0924 49.876 61.0136 49.6879 61.1045 49.3785L63.531 43.2578C63.6313 43.1106 63.7709 42.9945 63.9339 42.9226C64.0969 42.8508 64.2767 42.8261 64.4531 42.8514C64.6281 42.8292 64.8058 42.8587 64.9643 42.9363C65.1227 43.0139 65.255 43.1362 65.3448 43.2881L67.838 49.4089C67.9229 49.7001 67.838 49.8517 67.6014 49.8578H66.8795C66.7824 49.8525 66.6891 49.8177 66.6122 49.7581C66.5352 49.6985 66.4783 49.6169 66.4488 49.5241L64.6957 44.9927C64.5077 44.5256 64.3499 44.5256 64.1922 45.0109Z" fill="#C7CAD4"/>
</g>
<defs>
<clipPath id="clip0">
<rect width="67.85" height="49.876" fill="white"/>
</clipPath>
</defs>
</svg>
