<svg width="121" height="35" viewBox="0 0 121 35" fill="none" xmlns="http://www.w3.org/2000/svg">
<g clip-path="url(#clip0)">
<path d="M30.0814 11.8556L26.7782 11.4245C26.9967 9.87237 27.6779 8.66448 28.8212 7.80215C29.9643 6.93937 31.3677 6.50843 33.031 6.50843C34.5187 6.50843 35.7085 6.82184 36.6003 7.44821C37.4918 8.07548 38.0528 8.81983 38.2824 9.68193C38.512 10.5447 38.627 11.8495 38.627 13.5973V19.5312C38.627 21.9348 38.7255 23.539 38.9228 24.3438H35.6852C35.5425 23.7115 35.4717 22.7455 35.4717 21.4459C34.4327 23.6651 32.8797 24.7747 30.8126 24.7747C29.4125 24.7747 28.2888 24.3241 27.4412 23.421C26.5936 22.5179 26.1699 21.2905 26.1699 19.7377C26.1699 17.8401 26.7904 16.3396 28.0318 15.2359C29.2732 14.1322 31.4247 13.5798 34.4868 13.5798C34.6401 13.5798 34.8808 13.5855 35.2092 13.5968V12.8896C35.2092 11.648 35.0312 10.7107 34.6764 10.0782C34.3215 9.44551 33.6852 9.12939 32.768 9.12939C31.2717 9.12984 30.376 10.0384 30.0814 11.8552V11.8556ZM35.2087 15.8575C34.7717 15.8115 34.4388 15.7882 34.2092 15.7882C31.2381 15.7882 29.7526 17.0126 29.7526 19.4624C29.7526 21.2446 30.4895 22.1359 31.9644 22.1359C32.8272 22.1359 33.5835 21.6528 34.2339 20.6873C34.8838 19.721 35.209 18.3928 35.209 16.7024V15.8577L35.2087 15.8575ZM53.9768 12.787L50.6736 13.1666C50.5092 11.6487 50.2297 10.6335 49.8357 10.1222C49.441 9.61037 48.8824 9.35448 48.1593 9.35448C47.1403 9.35448 46.4009 9.84588 45.9408 10.8294C45.4806 11.8126 45.2505 13.5404 45.2505 16.0128C45.2505 19.8766 46.2202 21.8089 48.1593 21.8089C49.6494 21.8089 50.4872 20.5494 50.6738 18.031L53.9773 18.3412C53.528 22.6307 51.5067 24.7754 47.9129 24.7754C45.7874 24.7754 44.2127 23.9706 43.1882 22.3605C42.1638 20.7509 41.6515 18.5253 41.6515 15.6847C41.6515 12.6951 42.2045 10.4179 43.3114 8.85425C44.4179 7.2906 46.0288 6.50821 48.143 6.50821C51.55 6.50821 53.4947 8.60153 53.9771 12.787H53.9768ZM67.7322 12.787L64.429 13.1666C64.2641 11.6487 63.9851 10.6335 63.5911 10.1222C63.1971 9.61082 62.6377 9.35448 61.9144 9.35448C60.8954 9.35448 60.1558 9.84588 59.6959 10.8294C59.2357 11.8126 59.0057 13.5404 59.0057 16.0128C59.0057 19.8766 59.9749 21.8089 61.9142 21.8089C63.4043 21.8089 64.2421 20.5494 64.4285 18.031L67.7318 18.3412C67.2825 22.6307 65.2612 24.7754 61.6674 24.7754C59.5419 24.7754 57.9672 23.9706 56.9427 22.3605C55.9182 20.7509 55.4062 18.5253 55.4062 15.6847C55.4062 12.6951 55.9594 10.4179 57.0661 8.85425C58.1728 7.2906 59.7835 6.50821 61.8979 6.50821C65.3051 6.50821 67.2496 8.60153 67.732 12.787H67.7322ZM69.9999 0.798676H73.4184V24.3442H69.9999V0.798676ZM80.5344 11.8556L77.2312 11.4245C77.4499 9.87237 78.1309 8.66448 79.2738 7.80215C80.4167 6.93982 81.8207 6.50843 83.4835 6.50843C84.9713 6.50843 86.1613 6.82184 87.0533 7.44821C87.9455 8.07548 88.506 8.81983 88.7358 9.68193C88.9655 10.5447 89.08 11.8495 89.08 13.5973V19.5312C89.08 21.9348 89.179 23.539 89.3763 24.3438H86.1382C85.996 23.7115 85.9249 22.7455 85.9249 21.4459C84.8859 23.6651 83.3332 24.7747 81.2659 24.7747C79.8657 24.7747 78.7421 24.3241 77.8945 23.421C77.0469 22.5179 76.6232 21.2905 76.6232 19.7377C76.6232 17.8401 77.2436 16.3396 78.4855 15.2359C79.7265 14.1317 81.8777 13.5798 84.9405 13.5798C85.0938 13.5798 85.3345 13.5855 85.6629 13.5968V12.8896C85.6629 11.648 85.4849 10.7107 85.1301 10.0782C84.7752 9.44574 84.1389 9.12939 83.2215 9.12939C81.7247 9.12984 80.8293 10.0384 80.5344 11.8552V11.8556ZM85.6622 15.8575C85.2252 15.8115 84.8923 15.7882 84.6627 15.7882C81.6916 15.7882 80.2061 17.0126 80.2061 19.4624C80.2061 21.2446 80.943 22.1359 82.4181 22.1359C83.2808 22.1359 84.0372 21.6528 84.6871 20.6873C85.3375 19.721 85.6624 18.3928 85.6624 16.7024V15.8577H85.662L85.6622 15.8575ZM92.9259 6.92239H95.9332V10.8208C96.8566 7.9806 98.2418 6.56052 100.089 6.56052C100.265 6.56052 100.474 6.5775 100.716 6.6126V10.3549C100.43 10.3205 100.199 10.3029 100.023 10.3029C97.5706 10.3029 96.3444 12.028 96.3444 15.4782V24.3438H92.9259V6.92261V6.92239ZM114.849 15.4608C114.849 21.6705 112.658 24.7754 108.275 24.7754C106.26 24.7754 104.674 24.0254 103.517 22.5245C102.361 21.0238 101.784 18.7269 101.784 15.6335C101.784 9.55036 103.975 6.50843 108.358 6.50843C110.351 6.50843 111.932 7.25006 113.099 8.73355C114.266 10.2168 114.849 12.4594 114.849 15.4608H114.849ZM111.201 15.6419C111.201 13.1958 110.941 11.5164 110.422 10.6034C109.903 9.69031 109.201 9.23378 108.316 9.23378C106.393 9.23378 105.432 11.3699 105.432 15.6417C105.432 17.8238 105.656 19.4375 106.104 20.4823C106.552 21.5274 107.289 22.0498 108.316 22.0498C109.333 22.0498 110.067 21.5188 110.521 20.4565C110.974 19.394 111.201 17.7889 111.201 15.6415V15.6419Z" fill="#C7CAD4"/>
<path d="M5.30992 4.97899H6.42859C4.71164 5.59267 3.41746 7.9831 3.41746 10.5406H2.29879C2.29834 7.9831 3.59296 5.59267 5.30992 4.97899ZM2.29834 17.5131H3.41701C3.41701 20.0709 4.71164 22.4617 6.42837 23.0732H5.3097C3.59319 22.4617 2.29834 20.0709 2.29834 17.5131ZM12.1273 25.5046H13.2459C13.8383 25.7165 14.4364 25.8223 15.0267 25.8223H13.9081C13.3177 25.8223 12.7192 25.7163 12.1273 25.5044V25.5046Z" fill="#C7CAD4"/>
<path d="M13.9061 2.22984C16.7356 2.22984 18.7884 4.63702 18.7884 7.95228V20.1014C18.7884 23.4173 16.7356 25.8223 13.9083 25.8223C13.318 25.8223 12.7195 25.7163 12.1273 25.5043L5.31018 23.0729C3.59323 22.4615 2.29883 20.0706 2.29883 17.5128V10.5406C2.29883 7.98285 3.59323 5.59219 5.31018 4.97896L12.1271 2.54687C12.7197 2.33514 13.3182 2.22939 13.9061 2.22939V2.22984Z" fill="white"/>
<path d="M16.866 2.60533C18.702 3.4047 19.9072 5.4122 19.9072 7.95253H18.7886C18.7886 4.63682 16.7355 2.23009 13.9062 2.23009H15.0249C15.6862 2.23009 16.3055 2.36144 16.866 2.60555H16.7215H16.8311C16.8424 2.60555 16.8544 2.60329 16.866 2.60555V2.60533ZM16.7224 2.60533L16.733 2.60872L16.7444 2.61167L16.7557 2.61484L16.7675 2.61823L16.7795 2.62163L16.7915 2.62503L16.8037 2.62865L16.8159 2.63227L16.8282 2.6359L16.8404 2.63929L16.8524 2.64269L16.8644 2.64631L16.8762 2.64971L16.8875 2.65288L16.8988 2.65628L16.9092 2.65922L16.8986 2.65628L16.8877 2.65288L16.8764 2.64971L16.8646 2.64631L16.8526 2.64269L16.8406 2.63929L16.8284 2.63476L16.8162 2.63137L16.8039 2.62797L16.7917 2.62435L16.7797 2.62118L16.7677 2.61778L16.7559 2.61461L16.7446 2.61144L16.7333 2.6085L16.7226 2.60623L16.7224 2.60533ZM18.7886 7.95276H19.9072V20.1019H18.7886V7.95276Z" fill="#C7CAD4"/>
<path d="M19.9074 20.1014C19.9074 23.4176 17.8544 25.8225 15.0269 25.8225H13.9082C16.7357 25.8225 18.7887 23.4176 18.7887 20.1017H19.9074V20.1014Z" fill="#C7CAD4"/>
<path d="M19.233 20.1014H20.3517C20.3517 23.6785 18.1121 26.275 15.0269 26.275H13.9082C16.9936 26.275 19.2328 23.6783 19.2328 20.1019L19.233 20.1014Z" fill="#C7CAD4"/>
<path d="M19.2329 7.95275H20.3516V20.1019H19.2329V7.95275Z" fill="#C7CAD4"/>
<path d="M13.906 1.7774H15.0247C18.1121 1.7774 20.3513 4.3739 20.3513 7.95275H19.2326C19.2326 4.37367 16.993 1.7774 13.9058 1.7774H13.906Z" fill="#C7CAD4"/>
<path d="M13.906 1.7774C16.9934 1.7774 19.2326 4.3739 19.2326 7.95275V20.1019C19.2326 23.6785 16.993 26.275 13.9076 26.275C13.2674 26.275 12.6191 26.1608 11.9805 25.9326L5.16337 23.5012C3.27703 22.8286 1.854 20.2525 1.854 17.5133V10.5406C1.854 7.79989 3.2768 5.22581 5.1636 4.55099L11.9812 2.1198C12.6197 1.89108 13.2679 1.7774 13.906 1.7774ZM18.7883 20.1019V7.95229C18.7883 4.63636 16.7353 2.22986 13.906 2.22986C13.3177 2.22986 12.7194 2.33561 12.1272 2.54734L5.30988 4.97898C3.59293 5.59266 2.29875 7.98309 2.29875 10.5406V17.5131C2.29875 20.0709 3.59315 22.4617 5.30988 23.0732L12.1272 25.5043C12.7196 25.7163 13.3177 25.8221 13.908 25.8221C16.7353 25.8221 18.7881 23.4171 18.7881 20.1014" fill="#C7CAD4"/>
<path d="M15.6687 19.9692C15.6687 20.0817 15.5724 20.2889 15.3793 20.5897C14.9164 21.3238 14.4345 21.6399 13.9336 21.5476C13.6152 21.4882 13.1668 20.872 12.5889 19.7106C12.0771 18.7006 11.6247 17.8793 11.2291 17.2423C11.0171 16.898 10.8724 16.6331 10.7954 16.4492C10.6799 16.1193 10.5685 15.7839 10.463 15.4397C10.3663 15.2382 10.1063 14.8115 9.68173 14.1639C9.16135 13.3957 8.81442 13.009 8.64073 12.9954C8.18783 12.9603 7.77297 13.3396 7.39751 14.1276C6.79923 15.3663 6.41856 16.0735 6.25484 16.2667C6.09089 16.4592 5.96045 16.6059 5.86421 16.7069C5.69097 16.8632 5.53698 16.9318 5.40179 16.913C5.21837 16.8869 5.04491 16.7823 4.88095 16.5996C4.717 16.4166 4.63525 16.1818 4.63525 15.8944C4.63525 15.6544 4.7127 15.4084 4.86623 15.1528C4.97267 15.0056 5.0791 14.8557 5.18485 14.7067C5.26185 14.5697 5.32457 14.3693 5.37281 14.1088C5.42149 13.8462 5.45954 13.6711 5.4883 13.5851C5.51774 13.499 5.79242 13.0309 6.31258 12.1729C6.55421 11.7789 6.70797 11.4596 6.77545 11.215C6.92038 10.6776 7.04787 10.3527 7.15815 10.2413C7.26911 10.1294 7.37283 9.9582 7.46952 9.72903C7.62351 9.21635 7.76391 8.835 7.88846 8.58545C8.27411 7.80012 8.70822 7.40405 9.19056 7.40405C9.58526 7.40405 9.92789 7.77543 10.2164 8.52182C10.3896 9.0096 10.564 9.50054 10.7372 9.99376C11.3742 10.9494 11.706 11.4603 11.7352 11.5146C11.9956 12.0078 12.2606 12.5047 12.5307 13.006C12.5982 13.1183 12.6757 13.2943 12.7617 13.5337C12.8484 13.7741 12.9116 13.9413 12.9497 14.0341C13.1428 14.4657 13.4467 15.0094 13.8611 15.6691C14.0151 15.9227 14.1406 16.1831 14.237 16.4503C14.3722 16.8321 14.6707 17.4841 15.1338 18.4132C15.4893 19.1322 15.6682 19.6531 15.6682 19.969L15.6687 19.9692ZM10.4048 19.0978C10.4048 19.6707 10.2916 20.1236 10.0651 20.4549C9.83866 20.7855 9.54654 20.916 9.19056 20.849C8.76641 20.769 8.31555 20.4323 7.83864 19.8417C7.36083 19.2588 7.12305 18.6958 7.12305 18.1478C7.19959 17.7289 7.28655 17.4261 7.38302 17.2398C7.68194 16.6299 8.1208 16.3595 8.69871 16.4331C9.22973 16.5011 9.64663 16.7683 9.95008 17.2393C10.2535 17.714 10.4052 18.3337 10.4052 19.098L10.4048 19.0978Z" fill="#C7CAD4"/>
<path d="M37.1198 27.3778H35.8154V26.7582H39.1416V27.3778H37.8372V32.4485H37.1198V27.3778ZM39.1823 29.1876C39.1823 29.0359 39.1782 28.8848 39.1701 28.7351C39.1619 28.5857 39.1551 28.4378 39.1497 28.2908H39.81L39.8345 28.943H39.8508C39.9595 28.6878 40.1062 28.5053 40.291 28.3973C40.4758 28.2886 40.7231 28.2338 41.0329 28.2338V28.9102C40.9514 28.8939 40.8644 28.8857 40.772 28.8857C40.5057 28.8857 40.2883 28.999 40.1198 29.2241C39.9513 29.4496 39.8671 29.7906 39.8671 30.2476V32.4487H39.1823V29.1874V29.1876ZM41.7584 28.5764C41.9323 28.4677 42.1199 28.3832 42.3209 28.3237C42.522 28.2641 42.7258 28.2338 42.9324 28.2338C43.0841 28.2338 43.2218 28.2485 43.344 28.2784C43.4663 28.3085 43.5737 28.3436 43.6661 28.3848C43.7585 28.4256 43.8359 28.4673 43.8984 28.5112C43.9607 28.5547 44.0085 28.5927 44.0411 28.6253C44.1335 28.7177 44.2163 28.8375 44.2897 28.984C44.3631 29.1305 44.3998 29.3509 44.3998 29.6444V31.8129C44.3998 31.9379 44.4025 32.0561 44.4079 32.1673C44.4131 32.2782 44.4215 32.3722 44.4324 32.4481H43.8128L43.772 31.886H43.7557C43.6633 32.0436 43.5248 32.1867 43.34 32.3144C43.1552 32.4422 42.9052 32.506 42.59 32.506C42.2476 32.506 41.9622 32.4068 41.734 32.2089C41.5057 32.0105 41.3916 31.7103 41.3916 31.3076C41.3916 31.1068 41.4269 30.9204 41.4976 30.7494C41.5682 30.5785 41.681 30.4301 41.8359 30.3056C41.9908 30.181 42.1919 30.0828 42.4391 30.0119C42.6864 29.9412 42.9894 29.9055 43.3481 29.9055H43.7476V29.7184C43.7476 29.5608 43.7381 29.4331 43.7191 29.3352C43.7 29.2374 43.6579 29.1423 43.5927 29.0499C43.522 28.9575 43.4242 28.8909 43.2992 28.8502C43.174 28.8094 43.0411 28.789 42.8998 28.789C42.6878 28.789 42.4867 28.8287 42.2965 28.9068C42.1063 28.9861 41.9514 29.0902 41.8318 29.2209L41.7584 28.5766V28.5764ZM43.7476 30.4107C43.6876 30.3993 43.6144 30.3944 43.5275 30.3944H43.2666C42.8644 30.3944 42.5655 30.4788 42.3699 30.6469C42.1742 30.8153 42.0764 31.0196 42.0764 31.2583C42.0764 31.4811 42.1334 31.6577 42.2476 31.7882C42.3617 31.9186 42.5383 31.9838 42.7775 31.9838C42.9242 31.9838 43.0574 31.9553 43.1769 31.8982C43.2963 31.8412 43.3984 31.7651 43.4826 31.6695C43.5669 31.5749 43.6321 31.4634 43.6783 31.3353C43.7245 31.208 43.7476 31.0735 43.7476 30.9322V30.4104V30.4107ZM45.3699 29.1876C45.3699 29.0359 45.3654 28.8848 45.3574 28.7351C45.3493 28.5857 45.3425 28.4378 45.3371 28.2908H45.9974L46.0223 28.9102H46.0381C46.1468 28.6708 46.2884 28.4985 46.4623 28.3923C46.6362 28.2863 46.8454 28.2338 47.09 28.2338C47.4539 28.2338 47.7476 28.3411 47.9705 28.5553C48.1931 28.7705 48.3047 29.1061 48.3047 29.5621V32.4478H47.6197V29.7664C47.6197 29.4349 47.5613 29.1946 47.4444 29.0447C47.3278 28.8953 47.158 28.8205 46.9349 28.8205C46.6632 28.8205 46.4487 28.9143 46.2911 29.1018C46.1333 29.289 46.0547 29.5705 46.0547 29.9458V32.4485H45.3699V29.1876ZM49.1199 31.6414C49.2773 31.7343 49.4363 31.8083 49.5966 31.8656C49.7569 31.9227 49.9241 31.9512 50.098 31.9512C50.3584 31.9512 50.5554 31.8923 50.689 31.7762C50.8219 31.6593 50.8883 31.5221 50.8883 31.3645C50.8883 31.2232 50.8475 31.1009 50.766 30.9976C50.6845 30.8948 50.5486 30.7995 50.3584 30.7123L49.9021 30.5085C49.6032 30.3726 49.3926 30.2277 49.2703 30.0726C49.148 29.9175 49.0869 29.7073 49.0869 29.4408C49.0869 29.2725 49.1181 29.1135 49.1806 28.9641C49.2431 28.8146 49.3323 28.6867 49.4494 28.5809C49.5663 28.4752 49.7076 28.3907 49.8733 28.3284C50.0391 28.2662 50.2221 28.2347 50.4236 28.2347C50.5973 28.2347 50.7576 28.2483 50.9044 28.2755C51.0511 28.3026 51.1843 28.338 51.3038 28.3819L51.2712 28.9684C51.1625 28.9197 51.0389 28.8778 50.9003 28.8423C50.7617 28.8065 50.6136 28.789 50.456 28.789C50.2277 28.789 50.0565 28.8434 49.9424 28.9521C49.8283 29.0608 49.7712 29.1967 49.7712 29.3602C49.7712 29.5286 49.8308 29.6645 49.9501 29.7678C50.0697 29.871 50.2438 29.9693 50.4721 30.0613L50.7166 30.1593C50.9721 30.2626 51.1732 30.3998 51.3199 30.5708C51.4667 30.7417 51.5396 30.958 51.5396 31.2189C51.5396 31.3982 51.5153 31.5667 51.4664 31.7239C51.4175 31.8815 51.3387 32.0176 51.23 32.1315C51.1213 32.2454 50.9827 32.3366 50.8142 32.4048C50.6458 32.4727 50.442 32.5067 50.2028 32.5067C49.9854 32.5067 49.7816 32.4847 49.5914 32.4415C49.4012 32.3985 49.2298 32.3384 49.0778 32.2621L49.1186 31.6412L49.1199 31.6414ZM52.3808 26.3343H53.0654V32.4485H52.3808V26.3343ZM54.2882 28.5764C54.4622 28.4677 54.6497 28.3832 54.8507 28.3237C55.0518 28.2641 55.2556 28.2338 55.4622 28.2338C55.6139 28.2338 55.7516 28.2485 55.8739 28.2784C55.9961 28.3085 56.1035 28.3436 56.1959 28.3848C56.2883 28.4256 56.3657 28.4673 56.4282 28.5112C56.4905 28.5547 56.5383 28.5927 56.5709 28.6253C56.6633 28.7177 56.7461 28.8375 56.8195 28.984C56.8931 29.1305 56.9298 29.3509 56.9298 29.6444V31.8129C56.9298 31.9379 56.9325 32.0561 56.938 32.1673C56.9432 32.2782 56.9515 32.3722 56.9624 32.4481H56.3431L56.3023 31.886H56.286C56.1936 32.0436 56.055 32.1867 55.8702 32.3144C55.6854 32.4422 55.4354 32.506 55.1202 32.506C54.7778 32.506 54.4925 32.4068 54.2642 32.2089C54.036 32.0105 53.9218 31.7103 53.9218 31.3076C53.9218 31.1068 53.9572 30.9204 54.0278 30.7494C54.0987 30.5785 54.2112 30.4301 54.3664 30.3056C54.5215 30.181 54.7223 30.0828 54.9696 30.0119C55.2165 29.9412 55.5199 29.9055 55.8784 29.9055H56.2778V29.7184C56.2778 29.5608 56.2683 29.4331 56.2493 29.3352C56.2303 29.2374 56.1882 29.1423 56.1232 29.0499C56.0525 28.9575 55.9547 28.8909 55.8297 28.8502C55.7045 28.8094 55.5715 28.789 55.4302 28.789C55.2183 28.789 55.0172 28.8287 54.827 28.9068C54.6367 28.9861 54.4816 29.0902 54.3621 29.2209L54.2887 28.5766L54.2882 28.5764ZM56.2774 30.4107C56.2174 30.3993 56.1442 30.3944 56.0573 30.3944H55.7964C55.3942 30.3944 55.0953 30.4788 54.8997 30.6469C54.704 30.8153 54.6062 31.0196 54.6062 31.2583C54.6062 31.4811 54.6632 31.6577 54.7774 31.7882C54.8915 31.9186 55.0681 31.9838 55.3073 31.9838C55.454 31.9838 55.5872 31.9553 55.7067 31.8982C55.8261 31.8412 55.9282 31.7651 56.0124 31.6695C56.0967 31.5749 56.1619 31.4634 56.2081 31.3353C56.2545 31.208 56.2776 31.0735 56.2776 30.9322V30.4104L56.2774 30.4107ZM59.7337 32.4C59.6522 32.4272 59.5587 32.4517 59.4529 32.4732C59.3465 32.4949 59.2475 32.5058 59.1551 32.5058C58.8397 32.5058 58.6008 32.4342 58.4377 32.2898C58.2747 32.1457 58.1932 31.8889 58.1932 31.5198V28.8454H57.5328V28.2913H58.1934V27.4435L58.8782 27.2397V28.2915H59.7342V28.8457H58.8782V31.2995C58.8782 31.5391 58.911 31.7071 58.9762 31.8049C59.0415 31.9028 59.1529 31.9514 59.3105 31.9514C59.3972 31.9514 59.4735 31.9401 59.5385 31.9184C59.6037 31.8966 59.669 31.8722 59.7342 31.845V32.3998L59.7337 32.4ZM61.0952 26.5791V27.3943H60.3451V26.5791H61.0952ZM60.3778 28.2911H61.0625V32.4483H60.3778V28.2906V28.2911ZM62.1219 29.1876C62.1219 29.0359 62.1178 28.8848 62.1099 28.7351C62.1015 28.5857 62.0949 28.4378 62.0895 28.2908H62.7498L62.7738 28.9102H62.7901C62.8988 28.6708 63.0401 28.4985 63.2136 28.3923C63.388 28.2863 63.597 28.2338 63.8416 28.2338C64.2055 28.2338 64.4992 28.3411 64.7225 28.5553C64.9448 28.7705 65.0567 29.1061 65.0567 29.5621V32.4478H64.3721V29.7664C64.3721 29.4349 64.3133 29.1946 64.1971 29.0447C64.0798 28.8953 63.91 28.8205 63.6876 28.8205C63.4158 28.8205 63.2014 28.9143 63.0435 29.1018C62.8857 29.289 62.8069 29.5705 62.8069 29.9458V32.4485H62.1226V29.1876H62.1221H62.1219ZM69.0436 32.6279C69.0436 32.9154 68.9931 33.163 68.8928 33.3697C68.7923 33.5758 68.6605 33.7445 68.4976 33.8747C68.3346 34.0051 68.1455 34.1018 67.9311 34.1641C67.7164 34.2264 67.4949 34.2579 67.2664 34.2579C67.1792 34.2579 67.0819 34.2511 66.9727 34.2375C66.864 34.2234 66.7542 34.2044 66.6428 34.1804C66.5311 34.156 66.4236 34.1283 66.3205 34.0989C66.217 34.0694 66.1274 34.0377 66.0515 34.0051L66.0839 33.3122C66.2306 33.41 66.41 33.4943 66.6222 33.5647C66.8343 33.6351 67.0352 33.6711 67.2254 33.6711C67.6439 33.6711 67.9428 33.5579 68.1222 33.3326C68.3015 33.107 68.391 32.8149 68.391 32.4562V31.804H68.3751C68.1086 32.2714 67.7445 32.5051 67.2827 32.5051C66.8534 32.5051 66.5069 32.3289 66.2433 31.9752C65.9797 31.622 65.8479 31.0866 65.8479 30.3692C65.8479 29.6464 65.9824 29.1097 66.251 28.7592C66.5205 28.4086 66.8882 28.2338 67.3561 28.2338C67.5622 28.2338 67.7556 28.2936 67.9347 28.4127C68.1143 28.5322 68.2608 28.6926 68.3751 28.8939H68.391L68.4152 28.2906H69.0755C69.0703 28.4159 69.0635 28.542 69.0552 28.6699C69.0472 28.7972 69.0429 28.924 69.0429 29.049V32.6279H69.0434H69.0436ZM66.5327 30.3701C66.5327 30.8971 66.6059 31.2925 66.7528 31.5558C66.8996 31.8196 67.1305 31.9512 67.4458 31.9512C67.7612 31.9512 67.9922 31.8199 68.1392 31.5558C68.2857 31.2925 68.3595 30.8969 68.3595 30.3699C68.3595 29.8429 68.2864 29.4473 68.1394 29.1837C67.9924 28.9202 67.7612 28.7884 67.4465 28.7884C67.1308 28.7884 66.9002 28.9204 66.7531 29.184C66.6059 29.4476 66.5329 29.843 66.5329 30.3701H66.5327ZM75.7932 32.2121C75.7122 32.2452 75.6155 32.2778 75.5043 32.3104C75.3929 32.3432 75.2756 32.3738 75.1533 32.4041C75.031 32.4342 74.9033 32.4585 74.7706 32.4773C74.637 32.4965 74.5086 32.506 74.3834 32.506C73.9323 32.506 73.545 32.4272 73.2216 32.2696C72.8978 32.1122 72.6329 31.8987 72.4268 31.6297C72.2201 31.3606 72.0679 31.0508 71.97 30.7003C71.872 30.3497 71.8233 29.9815 71.8233 29.5957C71.8233 29.15 71.8845 28.7492 72.0067 28.3928C72.129 28.0372 72.302 27.7338 72.5246 27.4838C72.7472 27.2335 73.0138 27.0406 73.3231 26.9047C73.6333 26.7689 73.973 26.7009 74.3421 26.7009C74.5867 26.7009 74.8222 26.72 75.0475 26.758C75.2728 26.796 75.4837 26.8613 75.6793 26.9537V27.6708C75.4619 27.5621 75.2378 27.4768 75.0068 27.414C74.7758 27.3513 74.557 27.3203 74.3505 27.3203C74.1168 27.3203 73.8931 27.3662 73.6779 27.4584C73.4633 27.5513 73.2744 27.6871 73.1111 27.866C72.9481 28.0456 72.8177 28.2668 72.7198 28.5307C72.6218 28.7943 72.5731 29.1002 72.5731 29.4478C72.5731 29.8178 72.6098 30.1516 72.6832 30.451C72.7563 30.7494 72.8688 31.0049 73.0212 31.2173C73.1734 31.429 73.3639 31.5932 73.5919 31.7103C73.8206 31.8276 74.0894 31.8853 74.399 31.8853C74.5136 31.8853 74.6367 31.8717 74.7704 31.8446C74.9035 31.8174 75.0161 31.7789 75.1087 31.7302V29.9367H74.1549V29.3174H75.7932V32.2114V32.2121ZM76.9837 26.3343H77.668V32.4485H76.9837V26.3343ZM78.5242 30.3699C78.5242 30.0438 78.5596 29.749 78.6302 29.4854C78.7009 29.2218 78.8069 28.9976 78.9482 28.8128C79.0895 28.628 79.2634 28.4851 79.4699 28.3844C79.6764 28.2841 79.9183 28.2336 80.1955 28.2336C80.4731 28.2336 80.7145 28.2841 80.921 28.3844C81.1275 28.4847 81.3014 28.6274 81.4428 28.8124C81.5841 28.9972 81.6903 29.2216 81.7607 29.4849C81.8311 29.7483 81.8667 30.0436 81.8667 30.3697C81.8667 30.6958 81.8313 30.9906 81.7607 31.254C81.69 31.5178 81.5841 31.7417 81.4428 31.9265C81.3014 32.1113 81.1275 32.2542 80.921 32.3545C80.7145 32.4553 80.4726 32.5056 80.1955 32.5056C79.9183 32.5056 79.6764 32.4553 79.4699 32.3548C79.2634 32.2551 79.0895 32.112 78.9482 31.9268C78.8069 31.7415 78.7007 31.518 78.6302 31.2542C78.5596 30.9908 78.5242 30.6958 78.5242 30.3699ZM79.2416 30.3699C79.2416 30.8971 79.3191 31.2925 79.4738 31.5558C79.6291 31.8196 79.8694 31.9512 80.1957 31.9512C80.522 31.9512 80.7623 31.8199 80.9174 31.5558C81.0725 31.2925 81.1495 30.8969 81.1495 30.3699C81.1495 29.8429 81.0721 29.4473 80.9174 29.1837C80.7623 28.9202 80.522 28.7884 80.1957 28.7884C79.87 28.7884 79.6291 28.9204 79.474 29.184C79.3195 29.4476 79.2421 29.843 79.2421 30.3701L79.2416 30.3699ZM82.5922 26.3343H83.2766V28.8615H83.2929C83.4344 28.6389 83.5866 28.4788 83.7496 28.3805C83.9127 28.2825 84.1138 28.234 84.3527 28.234C84.782 28.234 85.1287 28.4106 85.3925 28.7639C85.6559 29.1172 85.7877 29.6527 85.7877 30.3701C85.7877 31.0875 85.6559 31.6229 85.3925 31.9761C85.1287 32.3298 84.7825 32.506 84.3527 32.506C84.2005 32.506 84.0673 32.487 83.9532 32.449C83.8391 32.4109 83.7374 32.3593 83.6475 32.2941C83.5576 32.2288 83.4817 32.1568 83.4188 32.078C83.3567 31.9992 83.3033 31.9191 83.2603 31.8375H83.244L83.2195 32.449H82.5592C82.5646 32.3237 82.5718 32.1962 82.5795 32.0658C82.5879 31.9356 82.5922 31.8076 82.5922 31.6831V26.3343ZM83.2766 30.3697C83.2766 30.8973 83.3499 31.2925 83.4971 31.5558C83.6436 31.8196 83.8749 31.9512 84.1901 31.9512C84.5055 31.9512 84.7363 31.8199 84.8835 31.5558C85.03 31.2925 85.1036 30.8969 85.1036 30.3699C85.1036 29.8429 85.0302 29.4473 84.8835 29.1837C84.7367 28.9202 84.5053 28.7884 84.1901 28.7884C83.8749 28.7884 83.6439 28.9204 83.4971 29.184C83.3504 29.4476 83.2766 29.843 83.2766 30.3701V30.3697ZM86.7415 28.5764C86.9154 28.4677 87.1029 28.3832 87.304 28.3237C87.5049 28.2637 87.7082 28.2338 87.9147 28.2338C88.0669 28.2338 88.2042 28.2485 88.3264 28.2784C88.4487 28.3085 88.5561 28.3436 88.6485 28.3848C88.7408 28.426 88.8183 28.4673 88.8808 28.5112C88.9428 28.5547 88.9904 28.5927 89.0235 28.6253C89.1159 28.7177 89.1983 28.8375 89.2721 28.984C89.3457 29.1305 89.3824 29.3509 89.3824 29.6444V31.8129C89.3824 31.9379 89.3851 32.0561 89.3905 32.1673C89.3955 32.2782 89.4041 32.3722 89.4145 32.4481H88.7952L88.754 31.886H88.7381C88.6453 32.0436 88.5067 32.1867 88.3221 32.3144C88.1376 32.4422 87.8874 32.506 87.5721 32.506C87.2295 32.506 86.9449 32.4068 86.7161 32.2089C86.4879 32.0105 86.3737 31.7103 86.3737 31.3076C86.3737 31.1068 86.4091 30.9204 86.4797 30.7494C86.5504 30.5785 86.6636 30.4301 86.818 30.3056C86.9732 30.1804 87.1736 30.0828 87.4213 30.0119C87.6686 29.9412 87.9716 29.9055 88.3303 29.9055H88.7302V29.7184C88.7302 29.5608 88.7207 29.4331 88.7017 29.3352C88.6824 29.2374 88.6405 29.1423 88.5749 29.0499C88.5042 28.9575 88.4064 28.8909 88.2814 28.8502C88.1564 28.8094 88.0232 28.789 87.8819 28.789C87.6695 28.789 87.4689 28.8287 87.2786 28.9068C87.088 28.9861 86.9338 29.0902 86.8137 29.2209L86.7413 28.5766L86.7415 28.5764ZM88.7307 30.4107C88.6702 30.3993 88.597 30.3944 88.5099 30.3944H88.2494C87.8473 30.3944 87.5481 30.4788 87.3527 30.6469C87.157 30.8153 87.0592 31.0196 87.0592 31.2583C87.0592 31.4811 87.1158 31.6577 87.2302 31.7882C87.3445 31.9186 87.5207 31.9838 87.7601 31.9838C87.9066 31.9838 88.0395 31.9553 88.1595 31.8982C88.2796 31.8412 88.381 31.7651 88.4653 31.6695C88.5495 31.5749 88.6147 31.4634 88.6607 31.3353C88.7069 31.208 88.7304 31.0735 88.7304 30.9322V30.4104L88.7307 30.4107ZM90.4179 26.3343H91.1025V32.4485H90.4182V26.3343H90.4179ZM94.2495 26.7584H95.692C95.9696 26.7584 96.207 26.7938 96.4053 26.8644C96.6037 26.9351 96.7667 27.0343 96.8945 27.162C97.0217 27.2895 97.1168 27.4417 97.1798 27.6183C97.2421 27.7949 97.2735 27.9897 97.2735 28.2012C97.2735 28.5107 97.1893 28.7786 97.0208 29.0039C96.8524 29.2293 96.6241 29.383 96.3365 29.4645V29.4804C96.6463 29.5234 96.8999 29.6695 97.0985 29.9168C97.2969 30.1641 97.3961 30.4888 97.3961 30.891C97.3961 31.0864 97.3621 31.2782 97.2942 31.4655C97.2262 31.6528 97.1193 31.8199 96.9721 31.9668C96.8259 32.114 96.6406 32.2307 96.4178 32.3178C96.1952 32.405 95.9291 32.4481 95.6193 32.4481H94.2497V26.7578L94.2495 26.7584ZM94.9669 29.2204H95.3904C95.7926 29.2204 96.0874 29.1344 96.2749 28.9634C96.4624 28.792 96.5562 28.5517 96.5562 28.2415C96.5562 27.9969 96.476 27.7863 96.3157 27.6097C96.1549 27.4335 95.8872 27.3447 95.5122 27.3447H94.9665L94.9669 29.2202V29.2204ZM94.9669 31.8615H95.5779C95.7681 31.8615 95.9325 31.8344 96.0715 31.78C96.2097 31.7261 96.3238 31.6514 96.4139 31.5558C96.5036 31.4612 96.5697 31.3525 96.6137 31.2302C96.6576 31.1079 96.6789 30.9788 96.6789 30.843C96.6789 30.5495 96.596 30.3036 96.4302 30.1052C96.2645 29.9068 96.0075 29.8076 95.6599 29.8076H94.9669V31.8615ZM101.285 31.5518C101.285 31.7039 101.289 31.8547 101.297 32.0042C101.306 32.1537 101.312 32.3015 101.318 32.4485H100.658L100.633 31.8292H100.618C100.509 32.0683 100.367 32.2404 100.193 32.3464C100.019 32.4528 99.8107 32.5053 99.5662 32.5053C99.202 32.5053 98.9085 32.398 98.6853 32.1833C98.4624 31.9687 98.351 31.6331 98.351 31.1768V28.2906H99.0358V30.9734C99.0358 31.3049 99.0942 31.5452 99.2108 31.6949C99.3279 31.8443 99.4978 31.9191 99.7204 31.9191C99.9921 31.9191 100.207 31.8253 100.365 31.6378C100.522 31.4503 100.601 31.1691 100.601 30.794V28.2911H101.286V31.552L101.285 31.5518ZM102.1 31.6414C102.257 31.7343 102.416 31.8083 102.577 31.8656C102.737 31.9227 102.904 31.9512 103.078 31.9512C103.339 31.9512 103.536 31.8923 103.669 31.7762C103.802 31.66 103.869 31.5221 103.869 31.3645C103.869 31.2232 103.828 31.1009 103.746 30.9976C103.665 30.8948 103.529 30.7995 103.339 30.7123L102.882 30.5085C102.584 30.3726 102.373 30.2277 102.251 30.0726C102.128 29.9175 102.067 29.7073 102.067 29.4408C102.067 29.2725 102.098 29.1135 102.161 28.9641C102.223 28.8146 102.313 28.6867 102.43 28.5809C102.546 28.475 102.688 28.3907 102.853 28.3284C103.018 28.2662 103.202 28.2347 103.404 28.2347C103.578 28.2347 103.738 28.2483 103.885 28.2755C104.031 28.3026 104.164 28.338 104.284 28.3819L104.252 28.9684C104.143 28.9197 104.019 28.8778 103.88 28.8423C103.742 28.8067 103.594 28.789 103.436 28.789C103.208 28.789 103.037 28.8434 102.922 28.9521C102.808 29.0608 102.751 29.1967 102.751 29.3602C102.751 29.5286 102.811 29.6645 102.931 29.7678C103.05 29.871 103.224 29.9693 103.452 30.0613L103.697 30.1593C103.952 30.2626 104.153 30.3998 104.3 30.5708C104.447 30.742 104.52 30.958 104.52 31.2189C104.52 31.3982 104.496 31.5667 104.447 31.7239C104.398 31.8815 104.32 32.0176 104.211 32.1315C104.102 32.2458 103.963 32.3366 103.795 32.4048C103.626 32.4727 103.423 32.5067 103.183 32.5067C102.966 32.5067 102.763 32.4847 102.572 32.4415C102.381 32.3982 102.211 32.3384 102.058 32.2621L102.101 31.6412L102.1 31.6414ZM106.078 26.5791V27.3943H105.328V26.5791H106.078ZM105.361 28.2911H106.046V32.4483H105.361V28.2906L105.361 28.2911ZM107.106 29.1876C107.106 29.0359 107.101 28.8848 107.093 28.7351C107.085 28.5857 107.078 28.4378 107.073 28.2908H107.733L107.757 28.9102H107.774C107.882 28.6708 108.024 28.4985 108.197 28.3923C108.372 28.2863 108.58 28.2338 108.825 28.2338C109.189 28.2338 109.482 28.3411 109.706 28.5553C109.928 28.7705 110.04 29.1061 110.04 29.5621V32.4478H109.355V29.7664C109.355 29.4349 109.297 29.1946 109.18 29.0447C109.063 28.8953 108.893 28.8205 108.671 28.8205C108.399 28.8205 108.184 28.9143 108.027 29.1018C107.869 29.289 107.79 29.5705 107.79 29.9458V32.4485H107.105V29.1876H107.106ZM111.548 30.5735C111.548 31.0574 111.642 31.4132 111.83 31.6414C112.017 31.8701 112.301 31.9841 112.682 31.9841C112.855 31.9841 113.028 31.9487 113.199 31.8781C113.371 31.8074 113.516 31.7286 113.636 31.6414L113.669 32.2608C113.505 32.3373 113.322 32.3971 113.118 32.4401C112.915 32.4836 112.709 32.5053 112.503 32.5053C112.225 32.5053 111.984 32.4551 111.777 32.3545C111.57 32.2542 111.397 32.1113 111.255 31.9265C111.114 31.7417 111.008 31.5173 110.937 31.2535C110.867 30.9902 110.831 30.6951 110.831 30.3692C110.831 30.0431 110.867 29.7483 110.937 29.4847C111.008 29.2211 111.112 28.9972 111.248 28.8121C111.384 28.6274 111.55 28.4847 111.749 28.3841C111.947 28.2836 112.177 28.2331 112.438 28.2331C112.91 28.2331 113.272 28.4082 113.522 28.7585C113.772 29.1095 113.897 29.5918 113.897 30.206V30.5728L111.549 30.5733L111.548 30.5735ZM113.211 30.0517C113.211 29.1878 112.94 28.7555 112.396 28.7555C112.288 28.7555 112.183 28.7773 112.082 28.8207C111.982 28.8638 111.891 28.9376 111.813 29.0409C111.734 29.1441 111.672 29.2773 111.626 29.4403C111.579 29.6034 111.554 29.8072 111.548 30.0517H113.211ZM114.475 31.6414C114.632 31.7343 114.791 31.8083 114.952 31.8656C115.112 31.9227 115.279 31.9512 115.453 31.9512C115.714 31.9512 115.911 31.8923 116.044 31.7762C116.178 31.66 116.244 31.5221 116.244 31.3645C116.244 31.2232 116.203 31.1009 116.122 30.9976C116.04 30.8944 115.904 30.7995 115.714 30.7123L115.257 30.5085C114.958 30.3726 114.748 30.2277 114.625 30.0726C114.503 29.9175 114.442 29.7073 114.442 29.4408C114.442 29.2725 114.473 29.1135 114.535 28.9641C114.597 28.8146 114.687 28.6867 114.804 28.5809C114.921 28.4752 115.062 28.3907 115.228 28.3284C115.394 28.2662 115.577 28.2347 115.779 28.2347C115.953 28.2347 116.113 28.2483 116.259 28.2755C116.406 28.3026 116.539 28.338 116.659 28.3819L116.627 28.9684C116.518 28.9197 116.394 28.8778 116.255 28.8423C116.117 28.8067 115.969 28.789 115.811 28.789C115.583 28.789 115.412 28.8434 115.297 28.9521C115.183 29.0608 115.126 29.1967 115.126 29.3602C115.126 29.5286 115.186 29.6645 115.305 29.7678C115.425 29.871 115.599 29.9693 115.827 30.0613L116.072 30.1593C116.327 30.2626 116.529 30.3998 116.675 30.5708C116.822 30.742 116.896 30.958 116.896 31.2189C116.896 31.3982 116.871 31.5667 116.822 31.7239C116.773 31.8815 116.695 32.0176 116.586 32.1315C116.477 32.2458 116.339 32.3366 116.17 32.4048C116.001 32.4727 115.797 32.5067 115.559 32.5067C115.341 32.5067 115.137 32.4847 114.947 32.4415C114.757 32.3982 114.586 32.3384 114.433 32.2621L114.475 31.6412V31.6414ZM117.491 31.6414C117.648 31.7343 117.807 31.8083 117.968 31.8656C118.128 31.9227 118.295 31.9512 118.469 31.9512C118.73 31.9512 118.927 31.8923 119.06 31.7762C119.193 31.66 119.26 31.5221 119.26 31.3645C119.26 31.2232 119.219 31.1009 119.137 30.9976C119.056 30.8948 118.92 30.7995 118.73 30.7123L118.273 30.5085C117.974 30.3726 117.764 30.2277 117.642 30.0726C117.519 29.9175 117.458 29.7073 117.458 29.4408C117.458 29.2725 117.489 29.1135 117.551 28.9641C117.613 28.8146 117.704 28.6867 117.82 28.5809C117.937 28.475 118.079 28.3907 118.244 28.3284C118.41 28.2662 118.593 28.2347 118.795 28.2347C118.969 28.2347 119.129 28.2483 119.276 28.2755C119.422 28.3026 119.555 28.338 119.675 28.3819L119.642 28.9684C119.534 28.9197 119.41 28.8778 119.271 28.8423C119.133 28.8067 118.984 28.789 118.827 28.789C118.599 28.789 118.427 28.8434 118.313 28.9521C118.199 29.0608 118.142 29.1967 118.142 29.3602C118.142 29.5286 118.202 29.6645 118.321 29.7678C118.441 29.871 118.615 29.9693 118.843 30.0613L119.088 30.1593C119.343 30.2626 119.544 30.3998 119.691 30.5708C119.838 30.742 119.911 30.958 119.911 31.2189C119.911 31.3982 119.887 31.5667 119.838 31.7239C119.789 31.8815 119.71 32.0176 119.601 32.1315C119.493 32.2458 119.354 32.3366 119.186 32.4048C119.017 32.4727 118.813 32.5067 118.574 32.5067C118.357 32.5067 118.153 32.4847 117.963 32.4415C117.773 32.3985 117.601 32.3384 117.449 32.2621L117.491 31.6412L117.491 31.6414Z" fill="#C7CAD4"/>
<path d="M118.578 5.57906C119.822 5.57906 120.83 4.57098 120.83 3.32745C120.83 2.08392 119.822 1.07584 118.578 1.07584C117.335 1.07584 116.327 2.08392 116.327 3.32745C116.327 4.57098 117.335 5.57906 118.578 5.57906Z" stroke="#C7CAD4" stroke-width="0.339678" stroke-miterlimit="10"/>
<path d="M117.797 2.05775H118.419C118.545 2.05775 118.667 2.06499 118.784 2.07994C118.902 2.09421 119.007 2.12591 119.099 2.1746C119.192 2.22306 119.265 2.29235 119.321 2.38203C119.377 2.4717 119.405 2.59308 119.405 2.74548C119.405 2.82338 119.391 2.89494 119.364 2.96016C119.338 3.02583 119.301 3.08335 119.254 3.13294C119.206 3.18276 119.151 3.22397 119.086 3.25658C119.022 3.28942 118.953 3.31184 118.881 3.32407V3.33086C118.937 3.3535 118.981 3.38181 119.015 3.41691C119.049 3.45178 119.087 3.50817 119.128 3.58584L119.608 4.5974H119.194L118.804 3.71651C118.775 3.65604 118.746 3.60871 118.717 3.57475C118.688 3.54078 118.656 3.51587 118.622 3.50002C118.588 3.48417 118.551 3.47511 118.511 3.47284C118.471 3.47058 118.427 3.46899 118.378 3.46899H118.16V4.59672H117.797V2.05775H117.797ZM118.161 3.14924H118.47C118.644 3.14924 118.78 3.11414 118.875 3.04372C118.971 2.97352 119.019 2.87614 119.019 2.75273C119.019 2.6361 118.976 2.54439 118.89 2.47804C118.804 2.41124 118.678 2.37795 118.51 2.37795H118.161V3.14902L118.161 3.14924Z" fill="#C7CAD4"/>
</g>
<defs>
<clipPath id="clip0">
<rect width="121" height="34.2581" fill="white"/>
</clipPath>
</defs>
</svg>
