<svg width="64" height="17" viewBox="0 0 64 17" fill="none" xmlns="http://www.w3.org/2000/svg">
<path fill-rule="evenodd" clip-rule="evenodd" d="M0 0L7.99103 8.53336L8.43226 9.12527L8.62836 9.39657L8.79994 9.66786L8.97153 9.93915L9.1186 10.2104L9.24116 10.4571L9.33921 10.7037L9.46178 10.9997L9.53531 11.2709L9.58434 11.5916L9.65788 11.9122L9.68239 12.2575L9.73141 12.6521L9.75592 13.0467L9.78044 13.5153V16.5981H17.1587V12.4794V12.2328L17.1341 11.9862L17.1096 11.7395L17.0361 11.2709L16.938 10.8024L16.8155 10.3831L16.6929 9.93915L16.5459 9.51988L16.3743 9.12527L16.2027 8.73067L16.0066 8.36072L15.8105 8.01544L15.6144 7.67016L15.3938 7.37421L15.1977 7.10292L14.9771 6.80696L14.7564 6.56033L13.2612 4.90792L11.7659 3.28017L10.2707 1.65241L8.77543 0H0ZM17.9921 0L14.1682 4.14337L14.7074 4.68595L15.2467 5.30252L15.8105 5.96842L16.1046 6.3137L16.2272 6.51101L16.3498 6.68365L16.6194 7.07825L16.8645 7.47286L17.0851 7.89213L17.2812 8.3114L17.4773 8.75533L17.5509 8.9773L17.6244 9.19926L17.6979 9.44589L17.747 9.66786L17.8205 9.91449L17.845 10.1611L18.0166 9.81583L18.0656 9.66786L18.1637 9.54454L18.2127 9.42123L18.3107 9.29791L18.4333 9.12527L18.6049 8.95263L18.7765 8.73067L19.2177 8.26207L26.9391 0H17.9921ZM30.0031 0V16.5981H37.8226V0H30.0031ZM42.0877 0V7.10292H48.0443H48.1423L48.2403 7.15224L48.3384 7.20157L48.4364 7.22623L48.4855 6.70831L48.51 6.46168L48.559 6.19039L48.6571 5.72179L48.7061 5.47516L48.7796 5.22854L48.8286 4.98191L48.9267 4.75994L49.0983 4.29135L49.2699 3.84741L49.3924 3.62545L49.515 3.40348L49.613 3.18151L49.7356 2.98421L49.8582 2.81157L50.0052 2.5896L50.1523 2.3923L50.2994 2.21966L50.4465 2.04702L50.618 1.87438L50.7651 1.70174L50.9367 1.55376L51.1083 1.38112L51.3044 1.20848L51.476 1.08517L51.6721 0.93719L51.8682 0.813876L52.0643 0.690561L51.7211 0.542584L51.3779 0.419269L51.0348 0.320618L50.6916 0.221966L50.3239 0.147977L49.9807 0.0739887L49.613 0.0493258L49.2454 0H42.0877ZM57.1383 0L56.7707 0.0246629L56.403 0.0493258L56.0598 0.0986516L55.7166 0.17264L55.3489 0.271292L55.0058 0.369944L54.6626 0.468595L54.3194 0.616573L53.9762 0.739887L53.6576 0.912527L53.3389 1.08517L53.0203 1.28247L52.7261 1.47977L52.432 1.70174L52.1378 1.94837L51.8682 2.195L51.7211 2.31831L51.5985 2.46629L51.3534 2.71292L51.1083 3.00887L51.0102 3.15685L50.8877 3.30483L50.6671 3.62545L50.471 3.94606L50.2994 4.26668L50.1278 4.61196L50.0543 4.7846L49.9807 4.98191L49.8582 5.35185L49.7356 5.72179L49.613 6.1164L49.5395 6.51101L49.515 6.73297L49.4905 6.93028L49.466 7.12758V7.32488L49.4415 7.76881V16.5735H56.403V8.87864L56.4275 8.65668L56.452 8.45938L56.501 8.26207L56.5255 8.13876L56.55 8.04011L56.5991 7.94145L56.6236 7.8428L56.7216 7.67016L56.8442 7.49752L56.9668 7.32488L57.0893 7.1769L57.2364 7.02893L57.408 6.90561L57.4815 6.88095L57.555 6.80696L57.7512 6.73297L57.8492 6.68365L57.9473 6.63432L58.1679 6.60966L58.364 6.56033H63.9283V0H57.1383Z" fill="#C7CAD4"/>
</svg>
