<?xml version="1.0" encoding="UTF-8"?> <svg xmlns="http://www.w3.org/2000/svg" xmlns:xlink="http://www.w3.org/1999/xlink" width="747px" height="305px" viewBox="0 0 747 305"><!-- Generator: Sketch 52.2 (67145) - http://www.bohemiancoding.com/sketch --><title>Graphic-Workflow-step3</title><desc>Created with Sketch.</desc><defs><path d="M474.153324,83 L589.846676,83 C591.98632,83 592.762207,83.2227815 593.54443,83.6411185 C594.326652,84.0594555 594.940544,84.6733481 595.358882,85.4555703 C595.777219,86.2377925 596,87.0136795 596,89.1533245 L596,205.4 L468,205.4 L468,89.1533245 C468,87.0136795 468.222781,86.2377925 468.641118,85.4555703 C469.059456,84.6733481 469.673348,84.0594555 470.45557,83.6411185 C471.237793,83.2227815 472.01368,83 474.153324,83 Z" id="path-1"></path><filter x="-4.3%" y="-2.9%" width="108.6%" height="109.0%" id="filter-2"><feOffset dx="0" dy="2" in="SourceAlpha" result="shadowOffsetOuter1"></feOffset><feGaussianBlur stdDeviation="1.5" in="shadowOffsetOuter1" result="shadowBlurOuter1"></feGaussianBlur><feComposite in="shadowBlurOuter1" in2="SourceAlpha" operator="out" result="shadowBlurOuter1"></feComposite><feColorMatrix values="0 0 0 0 0.00803981905 0 0 0 0 0.127773923 0 0 0 0 0.162813563 0 0 0 0.0359771286 0" type="matrix" in="shadowBlurOuter1"></feColorMatrix></filter><path d="M326.153324,83.2 L441.846676,83.2 C443.98632,83.2 444.762207,83.4227815 445.54443,83.8411185 C446.326652,84.2594555 446.940544,84.8733481 447.358882,85.6555703 C447.777219,86.4377925 448,87.2136795 448,89.3533245 L448,205.6 L320,205.6 L320,89.3533245 C320,87.2136795 320.222781,86.4377925 320.641118,85.6555703 C321.059456,84.8733481 321.673348,84.2594555 322.45557,83.8411185 C323.237793,83.4227815 324.01368,83.2 326.153324,83.2 Z" id="path-3"></path><filter x="-4.3%" y="-2.9%" width="108.6%" height="109.0%" id="filter-4"><feOffset dx="0" dy="2" in="SourceAlpha" result="shadowOffsetOuter1"></feOffset><feGaussianBlur stdDeviation="1.5" in="shadowOffsetOuter1" result="shadowBlurOuter1"></feGaussianBlur><feComposite in="shadowBlurOuter1" in2="SourceAlpha" operator="out" result="shadowBlurOuter1"></feComposite><feColorMatrix values="0 0 0 0 0.00803981905 0 0 0 0 0.127773923 0 0 0 0 0.162813563 0 0 0 0.0359771286 0" type="matrix" in="shadowBlurOuter1"></feColorMatrix></filter><path d="M166.153324,3.88312488e-14 L281.846676,4.28811658e-14 C283.98632,4.24881194e-14 284.762207,0.222781467 285.54443,0.641118489 C286.326652,1.05945551 286.940544,1.67334809 287.358882,2.45557031 C287.777219,3.23779253 288,4.0136795 288,6.15332448 L288,122.4 L160,122.4 L160,6.15332448 C160,4.0136795 160.222781,3.23779253 160.641118,2.45557031 C161.059456,1.67334809 161.673348,1.05945551 162.45557,0.641118489 C163.237793,0.222781467 164.01368,3.92242952e-14 166.153324,3.88312488e-14 Z" id="path-5"></path><filter x="-4.3%" y="-2.9%" width="108.6%" height="109.0%" id="filter-6"><feOffset dx="0" dy="2" in="SourceAlpha" result="shadowOffsetOuter1"></feOffset><feGaussianBlur stdDeviation="1.5" in="shadowOffsetOuter1" result="shadowBlurOuter1"></feGaussianBlur><feComposite in="shadowBlurOuter1" in2="SourceAlpha" operator="out" result="shadowBlurOuter1"></feComposite><feColorMatrix values="0 0 0 0 0.00803981905 0 0 0 0 0.127773923 0 0 0 0 0.162813563 0 0 0 0.0359771286 0" type="matrix" in="shadowBlurOuter1"></feColorMatrix></filter><linearGradient x1="0%" y1="-219.418403%" x2="104.679362%" y2="152.335069%" id="linearGradient-7"><stop stop-color="#FFFFFF" stop-opacity="0.5" offset="0%"></stop><stop stop-color="#FFFFFF" stop-opacity="0" offset="100%"></stop></linearGradient><path d="M168,79.2 L280,79.2 C280.883656,79.2 281.6,79.9163444 281.6,80.8 L281.6,113.6 C281.6,114.483656 280.883656,115.2 280,115.2 L168,115.2 C167.116344,115.2 166.4,114.483656 166.4,113.6 L166.4,80.8 C166.4,79.9163444 167.116344,79.2 168,79.2 Z" id="path-8"></path><path d="M6.15332448,83.2 L121.846676,83.2 C123.98632,83.2 124.762207,83.4227815 125.54443,83.8411185 C126.326652,84.2594555 126.940544,84.8733481 127.358882,85.6555703 C127.777219,86.4377925 128,87.2136795 128,89.3533245 L128,205.6 L0,205.6 L1.65734449e-16,89.3533245 C-9.62964878e-17,87.2136795 0.222781467,86.4377925 0.641118489,85.6555703 C1.05945551,84.8733481 1.67334809,84.2594555 2.45557031,83.8411185 C3.23779253,83.4227815 4.0136795,83.2 6.15332448,83.2 Z" id="path-9"></path><filter x="-4.3%" y="-2.9%" width="108.6%" height="109.0%" id="filter-10"><feOffset dx="0" dy="2" in="SourceAlpha" result="shadowOffsetOuter1"></feOffset><feGaussianBlur stdDeviation="1.5" in="shadowOffsetOuter1" result="shadowBlurOuter1"></feGaussianBlur><feComposite in="shadowBlurOuter1" in2="SourceAlpha" operator="out" result="shadowBlurOuter1"></feComposite><feColorMatrix values="0 0 0 0 0.00803981905 0 0 0 0 0.127773923 0 0 0 0 0.162813563 0 0 0 0.0359771286 0" type="matrix" in="shadowBlurOuter1"></feColorMatrix></filter><path d="M166.153324,168 L281.846676,168 C283.98632,168 284.762207,168.222781 285.54443,168.641118 C286.326652,169.059456 286.940544,169.673348 287.358882,170.45557 C287.777219,171.237793 288,172.01368 288,174.153324 L288,290.4 L160,290.4 L160,174.153324 C160,172.01368 160.222781,171.237793 160.641118,170.45557 C161.059456,169.673348 161.673348,169.059456 162.45557,168.641118 C163.237793,168.222781 164.01368,168 166.153324,168 Z" id="path-11"></path><filter x="-4.3%" y="-2.9%" width="108.6%" height="109.0%" id="filter-12"><feOffset dx="0" dy="2" in="SourceAlpha" result="shadowOffsetOuter1"></feOffset><feGaussianBlur stdDeviation="1.5" in="shadowOffsetOuter1" result="shadowBlurOuter1"></feGaussianBlur><feComposite in="shadowBlurOuter1" in2="SourceAlpha" operator="out" result="shadowBlurOuter1"></feComposite><feColorMatrix values="0 0 0 0 0.00803981905 0 0 0 0 0.127773923 0 0 0 0 0.162813563 0 0 0 0.0359771286 0" type="matrix" in="shadowBlurOuter1"></feColorMatrix></filter><path d="M168,247.2 L280,247.2 C280.883656,247.2 281.6,247.916344 281.6,248.8 L281.6,281.6 C281.6,282.483656 280.883656,283.2 280,283.2 L168,283.2 C167.116344,283.2 166.4,282.483656 166.4,281.6 L166.4,248.8 C166.4,247.916344 167.116344,247.2 168,247.2 Z" id="path-13"></path><linearGradient x1="106.899414%" y1="-1832.94922%" x2="174.836426%" y2="-671.855469%" id="linearGradient-14"><stop stop-color="#FFFFFF" offset="0%"></stop><stop stop-color="#FFFFFF" stop-opacity="0" offset="100%"></stop></linearGradient></defs><g id="Graphic-Workflow-step3" stroke="none" stroke-width="1" fill="none" fill-rule="evenodd"><g id="Group-9-Copy" transform="translate(3.000000, 1.000000)"><path d="M622.153324,83 L737.846676,83 C739.98632,83 740.762207,83.2227815 741.54443,83.6411185 C742.326652,84.0594555 742.940544,84.6733481 743.358882,85.4555703 C743.777219,86.2377925 744,87.0136795 744,89.1533245 L744,203 L616,203 L616,89.1533245 C616,87.0136795 616.222781,86.2377925 616.641118,85.4555703 C617.059456,84.6733481 617.673348,84.0594555 618.45557,83.6411185 C619.237793,83.2227815 620.01368,83 622.153324,83 Z" id="Background-Copy" fill="#D8DADE" fill-rule="nonzero"></path><path d="M622.6,162 L737.8,162 C738.683656,162 739.4,162.716344 739.4,163.6 L739.4,196.4 C739.4,197.283656 738.683656,198 737.8,198 L622.6,198 C621.716344,198 621,197.283656 621,196.4 L621,163.6 C621,162.716344 621.716344,162 622.6,162 Z" id="Div-Copy" fill="#EDF0F2"></path><path d="M660.46,139 L660.46,131.6752 L662.4088,131.6752 C664.6488,131.6752 665.9816,132.8848 665.9816,135.304 C665.9816,137.7344 664.6488,139 662.476,139 L660.46,139 Z M661.7592,137.9472 L662.3192,137.9472 C663.7976,137.9472 664.6488,137.1072 664.6488,135.304 C664.6488,133.512 663.7976,132.728 662.3192,132.728 L661.7592,132.728 L661.7592,137.9472 Z M667.1384,136.256 C667.1384,134.464 668.3816,133.3664 669.6696,133.3664 C671.1592,133.3664 671.9432,134.4416 671.9432,135.976 C671.9432,136.2224 671.9208,136.4464 671.8872,136.5808 L668.3928,136.5808 C668.5048,137.5776 669.132,138.1376 670.0168,138.1376 C670.4872,138.1376 670.8904,137.992 671.2936,137.7344 L671.7304,138.5408 C671.204,138.888 670.5432,139.1344 669.8488,139.1344 C668.3256,139.1344 667.1384,138.0704 667.1384,136.256 Z M668.3816,135.7632 L670.8232,135.7632 C670.8232,134.8896 670.4536,134.3632 669.7032,134.3632 C669.0536,134.3632 668.4936,134.8448 668.3816,135.7632 Z M673.3352,137.5888 L673.3352,131.0928 L674.6232,131.0928 L674.6232,137.656 C674.6232,137.9696 674.7688,138.0816 674.9032,138.0816 C674.9592,138.0816 675.004,138.0816 675.1048,138.0592 L675.2728,139.0224 C675.116,139.0896 674.892,139.1344 674.5896,139.1344 C673.6712,139.1344 673.3352,138.5408 673.3352,137.5888 Z M677.18,132.5376 C676.7208,132.5376 676.3848,132.2352 676.3848,131.8096 C676.3848,131.3728 676.7208,131.0704 677.18,131.0704 C677.6392,131.0704 677.9752,131.3728 677.9752,131.8096 C677.9752,132.2352 677.6392,132.5376 677.18,132.5376 Z M676.5304,139 L676.5304,133.5008 L677.8184,133.5008 L677.8184,139 L676.5304,139 Z M680.8568,139 L678.9416,133.5008 L680.252,133.5008 L681.1256,136.3568 C681.2712,136.8944 681.4392,137.4544 681.5848,138.0144 L681.6296,138.0144 C681.7864,137.4544 681.9432,136.8944 682.1,136.3568 L682.9736,133.5008 L684.2168,133.5008 L682.3464,139 L680.8568,139 Z M684.9032,136.256 C684.9032,134.464 686.1464,133.3664 687.4344,133.3664 C688.924,133.3664 689.708,134.4416 689.708,135.976 C689.708,136.2224 689.6856,136.4464 689.652,136.5808 L686.1576,136.5808 C686.2696,137.5776 686.8968,138.1376 687.7816,138.1376 C688.252,138.1376 688.6552,137.992 689.0584,137.7344 L689.4952,138.5408 C688.9688,138.888 688.308,139.1344 687.6136,139.1344 C686.0904,139.1344 684.9032,138.0704 684.9032,136.256 Z M686.1464,135.7632 L688.588,135.7632 C688.588,134.8896 688.2184,134.3632 687.468,134.3632 C686.8184,134.3632 686.2584,134.8448 686.1464,135.7632 Z M691.1,139 L691.1,133.5008 L692.164,133.5008 L692.2536,134.4752 L692.2984,134.4752 C692.6904,133.7584 693.2728,133.3664 693.8552,133.3664 C694.1352,133.3664 694.3144,133.4 694.4824,133.4784 L694.2584,134.5984 C694.068,134.5424 693.9224,134.5088 693.6872,134.5088 C693.2504,134.5088 692.724,134.8112 692.388,135.64 L692.388,139 L691.1,139 Z M695.46,140.1424 C695.5608,140.176 695.7176,140.2208 695.852,140.2208 C696.4344,140.2208 696.7704,139.8288 696.9496,139.28 L697.0504,138.9328 L694.8888,133.5008 L696.1992,133.5008 L697.1512,136.2 C697.308,136.6816 697.4648,137.2304 697.6328,137.7456 L697.6776,137.7456 C697.812,137.2416 697.9576,136.6928 698.092,136.2 L698.9208,133.5008 L700.164,133.5008 L698.1704,139.2464 C697.7112,140.4896 697.14,141.2624 695.9416,141.2624 C695.6392,141.2624 695.4264,141.2176 695.2248,141.1504 L695.46,140.1424 Z" id="Jobname-Copy" fill="#465161"></path><path d="M635.8,168.6 L636.6,168.6 C637.483656,168.6 638.2,169.316344 638.2,170.2 L638.2,175.8 C638.2,176.683656 637.483656,177.4 636.6,177.4 L628.6,177.4 C627.716344,177.4 627,176.683656 627,175.8 L627,170.2 C627,169.316344 627.716344,168.6 628.6,168.6 L629.4,168.6 L629.4,167.8 C629.4,167.358172 629.758172,167 630.2,167 C630.641828,167 631,167.358172 631,167.8 L631,168.6 L634.2,168.6 L634.2,167.8 C634.2,167.358172 634.558172,167 635,167 C635.441828,167 635.8,167.358172 635.8,167.8 L635.8,168.6 Z M628.6,171 L628.6,175.8 L636.6,175.8 L636.6,171 L628.6,171 Z M629.4,173 C629.4,172.337258 629.937258,171.8 630.6,171.8 C631.262742,171.8 631.8,172.337258 631.8,173 C631.8,173.662742 631.262742,174.2 630.6,174.2 C629.937258,174.2 629.4,173.662742 629.4,173 Z" id="Rectangle-62-Copy-2" fill="#465161" opacity="0.5"></path><path d="M635.8,183.6 L636.6,183.6 C637.483656,183.6 638.2,184.316344 638.2,185.2 L638.2,190.8 C638.2,191.683656 637.483656,192.4 636.6,192.4 L628.6,192.4 C627.716344,192.4 627,191.683656 627,190.8 L627,185.2 C627,184.316344 627.716344,183.6 628.6,183.6 L629.4,183.6 L629.4,182.8 C629.4,182.358172 629.758172,182 630.2,182 C630.641828,182 631,182.358172 631,182.8 L631,183.6 L634.2,183.6 L634.2,182.8 C634.2,182.358172 634.558172,182 635,182 C635.441828,182 635.8,182.358172 635.8,182.8 L635.8,183.6 Z M628.6,186 L628.6,190.8 L636.6,190.8 L636.6,186 L628.6,186 Z M633.4,188.8 C633.4,188.137258 633.937258,187.6 634.6,187.6 C635.262742,187.6 635.8,188.137258 635.8,188.8 C635.8,189.462742 635.262742,190 634.6,190 C633.937258,190 633.4,189.462742 633.4,188.8 Z" id="Rectangle-62-Copy-3" fill="#465161" opacity="0.5"></path><g id="Background" fill-rule="nonzero"><use fill="black" fill-opacity="1" filter="url(#filter-2)" xlink:href="#path-1"></use><path stroke="#DFDFDF" stroke-width="0.8" d="M468.4,205 L595.6,205 L595.6,89.1533245 C595.6,87.2629505 595.446355,86.4673092 595.006156,85.6442099 C594.625099,84.931695 594.068305,84.3749009 593.35579,83.9938438 C592.532691,83.5536454 591.73705,83.4 589.846676,83.4 L474.153324,83.4 C472.26295,83.4 471.467309,83.5536454 470.64421,83.9938438 C469.931695,84.3749009 469.374901,84.931695 468.993844,85.6442099 C468.553645,86.4673092 468.4,87.2629505 468.4,89.1533245 L468.4,205 Z M595.6,205 L596,205 L595.6,205.4 L595.6,205 Z" stroke-linejoin="square" fill="#FFFFFF" fill-rule="evenodd"></path></g><path d="M475.6,162 L587.6,162 C588.483656,162 589.2,162.716344 589.2,163.6 L589.2,196.4 C589.2,197.283656 588.483656,198 587.6,198 L475.6,198 C474.716344,198 474,197.283656 474,196.4 L474,163.6 C474,162.716344 474.716344,162 475.6,162 Z" id="Div" fill="#EDF0F2"></path><path d="M500.324,139 L500.324,131.6752 L502.788,131.6752 C504.3896,131.6752 505.5656,132.2352 505.5656,133.9376 C505.5656,135.5616 504.356,136.312 502.788,136.312 L501.6232,136.312 L501.6232,139 L500.324,139 Z M501.6232,135.2704 L502.676,135.2704 C503.7736,135.2704 504.2888,134.8336 504.2888,133.9376 C504.2888,133.0192 503.74,132.7168 502.676,132.7168 L501.6232,132.7168 L501.6232,135.2704 Z M506.9688,139 L506.9688,133.5008 L508.0328,133.5008 L508.1224,134.4752 L508.1672,134.4752 C508.5592,133.7584 509.1416,133.3664 509.724,133.3664 C510.004,133.3664 510.1832,133.4 510.3512,133.4784 L510.1272,134.5984 C509.9368,134.5424 509.7912,134.5088 509.556,134.5088 C509.1192,134.5088 508.5928,134.8112 508.2568,135.64 L508.2568,139 L506.9688,139 Z M510.836,136.256 C510.836,134.4192 512.0792,133.3664 513.4456,133.3664 C514.8232,133.3664 516.0664,134.4192 516.0664,136.256 C516.0664,138.0816 514.8232,139.1344 513.4456,139.1344 C512.0792,139.1344 510.836,138.0816 510.836,136.256 Z M512.1576,136.256 C512.1576,137.3536 512.6392,138.0816 513.4456,138.0816 C514.252,138.0816 514.7448,137.3536 514.7448,136.256 C514.7448,135.1472 514.252,134.4192 513.4456,134.4192 C512.6392,134.4192 512.1576,135.1472 512.1576,136.256 Z M517.1448,136.256 C517.1448,134.4192 518.388,133.3664 519.7544,133.3664 C521.132,133.3664 522.3752,134.4192 522.3752,136.256 C522.3752,138.0816 521.132,139.1344 519.7544,139.1344 C518.388,139.1344 517.1448,138.0816 517.1448,136.256 Z M518.4664,136.256 C518.4664,137.3536 518.948,138.0816 519.7544,138.0816 C520.5608,138.0816 521.0536,137.3536 521.0536,136.256 C521.0536,135.1472 520.5608,134.4192 519.7544,134.4192 C518.948,134.4192 518.4664,135.1472 518.4664,136.256 Z M526.8248,131.1488 L526.5784,132.112 C526.3768,132.0224 526.164,131.9776 525.9736,131.9776 C525.5256,131.9776 525.2792,132.2688 525.2792,132.9072 L525.2792,133.5008 L526.3544,133.5008 L526.3544,134.52 L525.2792,134.52 L525.2792,139 L523.9912,139 L523.9912,134.52 L523.252,134.52 L523.252,133.5568 L523.9912,133.5008 L523.9912,132.9296 C523.9912,131.7872 524.5176,130.9584 525.8168,130.9584 C526.2088,130.9584 526.5784,131.048 526.8248,131.1488 Z M527.4776,139 L527.4776,133.5008 L528.5416,133.5008 L528.6312,134.4752 L528.676,134.4752 C529.068,133.7584 529.6504,133.3664 530.2328,133.3664 C530.5128,133.3664 530.692,133.4 530.86,133.4784 L530.636,134.5984 C530.4456,134.5424 530.3,134.5088 530.0648,134.5088 C529.628,134.5088 529.1016,134.8112 528.7656,135.64 L528.7656,139 L527.4776,139 Z M531.3448,136.256 C531.3448,134.464 532.588,133.3664 533.876,133.3664 C535.3656,133.3664 536.1496,134.4416 536.1496,135.976 C536.1496,136.2224 536.1272,136.4464 536.0936,136.5808 L532.5992,136.5808 C532.7112,137.5776 533.3384,138.1376 534.2232,138.1376 C534.6936,138.1376 535.0968,137.992 535.5,137.7344 L535.9368,138.5408 C535.4104,138.888 534.7496,139.1344 534.0552,139.1344 C532.532,139.1344 531.3448,138.0704 531.3448,136.256 Z M532.588,135.7632 L535.0296,135.7632 C535.0296,134.8896 534.66,134.3632 533.9096,134.3632 C533.26,134.3632 532.7,134.8448 532.588,135.7632 Z M537.172,137.5216 C537.172,136.3456 538.1576,135.7296 540.4088,135.4832 C540.3976,134.9008 540.1512,134.408 539.412,134.408 C538.8632,134.408 538.348,134.6544 537.8664,134.9456 L537.396,134.0832 C538.0008,133.7024 538.7736,133.3664 539.6472,133.3664 C541.0248,133.3664 541.6968,134.2064 541.6968,135.7408 L541.6968,139 L540.644,139 L540.5432,138.3952 L540.5096,138.3952 C540.0168,138.8096 539.4568,139.1344 538.8072,139.1344 C537.844,139.1344 537.172,138.4848 537.172,137.5216 Z M538.4264,137.4208 C538.4264,137.9136 538.7512,138.1264 539.2104,138.1264 C539.6584,138.1264 540.0056,137.9024 540.4088,137.5216 L540.4088,136.2896 C538.9192,136.48 538.4264,136.872 538.4264,137.4208 Z M543.0888,136.256 C543.0888,134.464 544.22,133.3664 545.4184,133.3664 C546.0456,133.3664 546.4376,133.6016 546.8632,133.9712 L546.8184,133.0864 L546.8184,131.0928 L548.1064,131.0928 L548.1064,139 L547.0424,139 L546.9528,138.4064 L546.908,138.4064 C546.5048,138.8096 545.9448,139.1344 545.3512,139.1344 C543.9736,139.1344 543.0888,138.0704 543.0888,136.256 Z M544.4216,136.2448 C544.4216,137.432 544.8696,138.0704 545.6648,138.0704 C546.0904,138.0704 546.4488,137.88 546.8184,137.4544 L546.8184,134.8896 C546.4376,134.5536 546.068,134.4304 545.6984,134.4304 C544.9928,134.4304 544.4216,135.0912 544.4216,136.2448 Z M550.5512,132.5376 C550.092,132.5376 549.756,132.2352 549.756,131.8096 C549.756,131.3728 550.092,131.0704 550.5512,131.0704 C551.0104,131.0704 551.3464,131.3728 551.3464,131.8096 C551.3464,132.2352 551.0104,132.5376 550.5512,132.5376 Z M549.9016,139 L549.9016,133.5008 L551.1896,133.5008 L551.1896,139 L549.9016,139 Z M552.996,139 L552.996,133.5008 L554.06,133.5008 L554.1496,134.24 L554.1944,134.24 C554.6872,133.7584 555.2472,133.3664 555.9976,133.3664 C557.1736,133.3664 557.6888,134.1616 557.6888,135.5504 L557.6888,139 L556.4008,139 L556.4008,135.7184 C556.4008,134.8112 556.1432,134.4752 555.5384,134.4752 C555.0568,134.4752 554.7432,134.7104 554.284,135.1584 L554.284,139 L552.996,139 Z M560.1336,139.8064 C560.1336,140.2992 560.6712,140.5904 561.5448,140.5904 C562.4296,140.5904 563.0344,140.176 563.0344,139.7056 C563.0344,139.28 562.6872,139.1568 562.06,139.1568 L561.3096,139.1568 C561.0072,139.1568 560.772,139.1344 560.5592,139.0784 C560.268,139.3024 560.1336,139.5488 560.1336,139.8064 Z M559.0584,139.9968 C559.0584,139.5376 559.3384,139.1344 559.8424,138.8208 L559.8424,138.776 C559.5624,138.5968 559.3496,138.3056 559.3496,137.8576 C559.3496,137.432 559.6408,137.0624 559.9544,136.8384 L559.9544,136.7936 C559.5848,136.5136 559.2376,135.9872 559.2376,135.3376 C559.2376,134.072 560.2568,133.3664 561.4104,133.3664 C561.7128,133.3664 561.9928,133.4224 562.2168,133.5008 L564.188,133.5008 L564.188,134.4528 L563.18,134.4528 C563.3592,134.6656 563.4936,135.0016 563.4936,135.3824 C563.4936,136.6032 562.5752,137.2528 561.4104,137.2528 C561.1752,137.2528 560.9064,137.208 560.66,137.1072 C560.492,137.2528 560.3912,137.3872 560.3912,137.6336 C560.3912,137.9472 560.6152,138.1376 561.2872,138.1376 L562.2616,138.1376 C563.5832,138.1376 564.2776,138.5408 564.2776,139.4928 C564.2776,140.5792 563.1352,141.4304 561.3432,141.4304 C560.0328,141.4304 559.0584,140.96 559.0584,139.9968 Z M561.4104,136.4464 C561.9368,136.4464 562.3624,136.0432 562.3624,135.3376 C562.3624,134.6544 561.948,134.2512 561.4104,134.2512 C560.8728,134.2512 560.4472,134.6432 560.4472,135.3376 C560.4472,136.0432 560.8728,136.4464 561.4104,136.4464 Z" id="Jobname" fill="#465161"></path><path d="M476.3016,111.0328 L476.9152,110.596 C477.2272,111.1368 477.612,111.3656 478.1008,111.3656 C478.8288,111.3656 479.1928,110.9496 479.1928,109.9096 L479.1928,105.1776 L480.056,105.1776 L480.056,109.9928 C480.056,111.168 479.5152,112.1248 478.1736,112.1248 C477.3104,112.1248 476.6968,111.7504 476.3016,111.0328 Z M481.728,109.4832 C481.728,107.8296 482.8408,106.8208 483.9952,106.8208 C485.2848,106.8208 486.0128,107.7464 486.0128,109.192 C486.0128,109.3688 486.0024,109.5352 485.9816,109.66 L482.5704,109.66 C482.6328,110.752 483.288,111.4384 484.2552,111.4384 C484.7336,111.4384 485.1392,111.2824 485.5136,111.0432 L485.8152,111.6048 C485.3784,111.8856 484.8376,112.1248 484.1512,112.1248 C482.7992,112.1248 481.728,111.1368 481.728,109.4832 Z M482.56,109.0984 L485.264,109.0984 C485.264,108.0688 484.8064,107.4968 484.016,107.4968 C483.3088,107.4968 482.664,108.0792 482.56,109.0984 Z M492.9992,104.6368 L492.8224,105.292 C492.6248,105.2088 492.4272,105.1672 492.2504,105.1672 C491.772,105.1672 491.5328,105.5 491.5328,106.1448 L491.5328,106.9456 L492.604,106.9456 L492.604,107.6424 L491.5328,107.6424 L491.5328,112 L490.68,112 L490.68,107.6424 L488.5792,107.6424 L488.5792,112 L487.7264,112 L487.7264,107.6424 L487.04,107.6424 L487.04,106.9976 L487.7264,106.9456 L487.7264,106.28 C487.7264,105.2296 488.2464,104.5744 489.2968,104.5744 C489.6296,104.5744 489.9728,104.6472 490.2224,104.7616 L490.0456,105.4064 C489.8272,105.3128 489.6192,105.2712 489.3696,105.2712 C488.8704,105.2712 488.5792,105.6352 488.5792,106.3008 L488.5792,106.9456 L490.68,106.9456 L490.68,106.1448 C490.68,105.1152 491.148,104.4704 492.1568,104.4704 C492.4688,104.4704 492.7704,104.5432 492.9992,104.6368 Z M496.3432,112 L496.3432,105.1776 L498.3712,105.1776 C499.7544,105.1776 500.7216,105.6456 500.7216,106.8416 C500.7216,107.5176 500.3368,108.1208 499.5256,108.3288 L499.5256,108.3704 C500.524,108.5264 501.1064,109.0672 501.1064,110.0032 C501.1064,111.3448 500.0456,112 498.5272,112 L496.3432,112 Z M497.2168,108.0896 L498.2256,108.0896 C499.38,108.0896 499.8688,107.6736 499.8688,106.9144 C499.8688,106.176 499.3176,105.864 498.2672,105.864 L497.2168,105.864 L497.2168,108.0896 Z M497.2168,111.3136 L498.4024,111.3136 C499.5672,111.3136 500.2536,110.8872 500.2536,109.9616 C500.2536,109.1192 499.5984,108.7344 498.4024,108.7344 L497.2168,108.7344 L497.2168,111.3136 Z M502.3,109.4832 C502.3,107.788 503.4024,106.8208 504.64,106.8208 C505.8776,106.8208 506.98,107.788 506.98,109.4832 C506.98,111.1576 505.8776,112.1248 504.64,112.1248 C503.4024,112.1248 502.3,111.1576 502.3,109.4832 Z M503.184,109.4832 C503.184,110.6376 503.7768,111.4176 504.64,111.4176 C505.5136,111.4176 506.096,110.6376 506.096,109.4832 C506.096,108.3184 505.5136,107.528 504.64,107.528 C503.7768,107.528 503.184,108.3184 503.184,109.4832 Z M508.0696,111.428 L508.496,110.856 C508.9328,111.2096 509.38,111.4592 509.9832,111.4592 C510.6488,111.4592 510.9816,111.1056 510.9816,110.6688 C510.9816,110.1488 510.3784,109.92 509.8272,109.712 C509.1096,109.452 508.3192,109.1088 508.3192,108.256 C508.3192,107.4448 508.964,106.8208 510.056,106.8208 C510.6904,106.8208 511.2416,107.0808 511.6264,107.3928 L511.2208,107.9336 C510.8776,107.6736 510.5136,107.4864 510.0664,107.4864 C509.432,107.4864 509.1408,107.8296 509.1408,108.2144 C509.1408,108.6824 509.692,108.8696 510.264,109.088 C510.992,109.3584 511.8032,109.66 511.8032,110.6168 C511.8032,111.4384 511.148,112.1248 509.952,112.1248 C509.2344,112.1248 508.548,111.8232 508.0696,111.428 Z M512.7472,111.428 L513.1736,110.856 C513.6104,111.2096 514.0576,111.4592 514.6608,111.4592 C515.3264,111.4592 515.6592,111.1056 515.6592,110.6688 C515.6592,110.1488 515.056,109.92 514.5048,109.712 C513.7872,109.452 512.9968,109.1088 512.9968,108.256 C512.9968,107.4448 513.6416,106.8208 514.7336,106.8208 C515.368,106.8208 515.9192,107.0808 516.304,107.3928 L515.8984,107.9336 C515.5552,107.6736 515.1912,107.4864 514.744,107.4864 C514.1096,107.4864 513.8184,107.8296 513.8184,108.2144 C513.8184,108.6824 514.3696,108.8696 514.9416,109.088 C515.6696,109.3584 516.4808,109.66 516.4808,110.6168 C516.4808,111.4384 515.8256,112.1248 514.6296,112.1248 C513.912,112.1248 513.2256,111.8232 512.7472,111.428 Z" id="Jeff-Boss" fill="#465161" opacity="0.699999988"></path><path d="M487.8,168.6 L488.6,168.6 C489.483656,168.6 490.2,169.316344 490.2,170.2 L490.2,175.8 C490.2,176.683656 489.483656,177.4 488.6,177.4 L480.6,177.4 C479.716344,177.4 479,176.683656 479,175.8 L479,170.2 C479,169.316344 479.716344,168.6 480.6,168.6 L481.4,168.6 L481.4,167.8 C481.4,167.358172 481.758172,167 482.2,167 C482.641828,167 483,167.358172 483,167.8 L483,168.6 L486.2,168.6 L486.2,167.8 C486.2,167.358172 486.558172,167 487,167 C487.441828,167 487.8,167.358172 487.8,167.8 L487.8,168.6 Z M480.6,171 L480.6,175.8 L488.6,175.8 L488.6,171 L480.6,171 Z M481.4,173 C481.4,172.337258 481.937258,171.8 482.6,171.8 C483.262742,171.8 483.8,172.337258 483.8,173 C483.8,173.662742 483.262742,174.2 482.6,174.2 C481.937258,174.2 481.4,173.662742 481.4,173 Z" id="Rectangle-62" fill="#465161" opacity="0.5"></path><path d="M487.8,183.6 L488.6,183.6 C489.483656,183.6 490.2,184.316344 490.2,185.2 L490.2,190.8 C490.2,191.683656 489.483656,192.4 488.6,192.4 L480.6,192.4 C479.716344,192.4 479,191.683656 479,190.8 L479,185.2 C479,184.316344 479.716344,183.6 480.6,183.6 L481.4,183.6 L481.4,182.8 C481.4,182.358172 481.758172,182 482.2,182 C482.641828,182 483,182.358172 483,182.8 L483,183.6 L486.2,183.6 L486.2,182.8 C486.2,182.358172 486.558172,182 487,182 C487.441828,182 487.8,182.358172 487.8,182.8 L487.8,183.6 Z M480.6,186 L480.6,190.8 L488.6,190.8 L488.6,186 L480.6,186 Z M485.4,188.8 C485.4,188.137258 485.937258,187.6 486.6,187.6 C487.262742,187.6 487.8,188.137258 487.8,188.8 C487.8,189.462742 487.262742,190 486.6,190 C485.937258,190 485.4,189.462742 485.4,188.8 Z" id="Rectangle-62-Copy" fill="#465161" opacity="0.5"></path><path d="M645,173.2 C645,171.432689 646.427548,170 648.203344,170 L728.196656,170 C729.965814,170 731.4,171.436285 731.4,173.2 L731.4,173.2 C731.4,174.967311 729.972452,176.4 728.196656,176.4 L648.203344,176.4 C646.434186,176.4 645,174.963715 645,173.2 L645,173.2 Z" id="Container-Copy-4" fill="#465161" opacity="0.100000001"></path><path d="M645,187.2 C645,185.432689 646.427548,184 648.203344,184 L728.196656,184 C729.965814,184 731.4,185.436285 731.4,187.2 L731.4,187.2 C731.4,188.967311 729.972452,190.4 728.196656,190.4 L648.203344,190.4 C646.434186,190.4 645,188.963715 645,187.2 L645,187.2 Z" id="Container-Copy-5" fill="#465161" opacity="0.100000001"></path><path d="M624,95.2 C624,93.4326888 625.423621,92 627.205752,92 L660.794248,92 C662.564736,92 664,93.4362849 664,95.2 L664,95.2 C664,96.9673112 662.576379,98.4 660.794248,98.4 L627.205752,98.4 C625.435264,98.4 624,96.9637151 624,95.2 L624,95.2 Z" id="Container" fill="#465161" opacity="0.100000001"></path><path d="M625.7576,109.2232 L627.8064,109.2232 L627.484,108.1832 C627.2448,107.424 627.0264,106.6752 626.808,105.8848 L626.7664,105.8848 C626.548,106.6752 626.3296,107.424 626.0904,108.1832 L625.7576,109.2232 Z M628.68,112 L628.0248,109.92 L625.5392,109.92 L624.884,112 L624,112 L626.3088,105.1776 L627.2864,105.1776 L629.5952,112 L628.68,112 Z M630.6328,110.1488 L630.6328,106.9456 L631.496,106.9456 L631.496,110.0344 C631.496,110.9808 631.7768,111.3864 632.4424,111.3864 C632.9624,111.3864 633.3264,111.1264 633.8048,110.5336 L633.8048,106.9456 L634.6576,106.9456 L634.6576,112 L633.9504,112 L633.8776,111.2096 L633.8464,111.2096 C633.3784,111.7608 632.8792,112.1248 632.1824,112.1248 C631.1112,112.1248 630.6328,111.4384 630.6328,110.1488 Z M636.8288,110.44 L636.8288,107.6424 L636.08,107.6424 L636.08,106.9976 L636.8704,106.9456 L636.9744,105.5312 L637.692,105.5312 L637.692,106.9456 L639.0544,106.9456 L639.0544,107.6424 L637.692,107.6424 L637.692,110.4504 C637.692,111.0744 637.8896,111.428 638.472,111.428 C638.6488,111.428 638.8776,111.3552 639.044,111.2928 L639.2104,111.9376 C638.9296,112.0312 638.5864,112.1248 638.2744,112.1248 C637.1928,112.1248 636.8288,111.4384 636.8288,110.44 Z M640.04,109.4832 C640.04,107.788 641.1424,106.8208 642.38,106.8208 C643.6176,106.8208 644.72,107.788 644.72,109.4832 C644.72,111.1576 643.6176,112.1248 642.38,112.1248 C641.1424,112.1248 640.04,111.1576 640.04,109.4832 Z M640.924,109.4832 C640.924,110.6376 641.5168,111.4176 642.38,111.4176 C643.2536,111.4176 643.836,110.6376 643.836,109.4832 C643.836,108.3184 643.2536,107.528 642.38,107.528 C641.5168,107.528 640.924,108.3184 640.924,109.4832 Z M646.3712,112 L646.3712,106.9456 L647.0784,106.9456 L647.1512,107.6736 L647.1824,107.6736 C647.6192,107.1952 648.1496,106.8208 648.7528,106.8208 C649.5224,106.8208 649.9384,107.1848 650.1464,107.788 C650.6768,107.216 651.1968,106.8208 651.8104,106.8208 C652.8504,106.8208 653.3496,107.5072 653.3496,108.7968 L653.3496,112 L652.4968,112 L652.4968,108.9112 C652.4968,107.9648 652.1952,107.5592 651.5608,107.5592 C651.1656,107.5592 650.76,107.8192 650.292,108.3392 L650.292,112 L649.4392,112 L649.4392,108.9112 C649.4392,107.9648 649.1376,107.5592 648.4928,107.5592 C648.1184,107.5592 647.692,107.8192 647.224,108.3392 L647.224,112 L646.3712,112 Z M655.0632,110.6896 C655.0632,109.5872 656.02,109.036 658.1728,108.7968 C658.1728,108.152 657.9544,107.528 657.1328,107.528 C656.54,107.528 656.02,107.7984 655.6248,108.0688 L655.2816,107.476 C655.7496,107.1744 656.4568,106.8208 657.268,106.8208 C658.5056,106.8208 659.0256,107.6424 659.0256,108.9008 L659.0256,112 L658.3184,112 L658.2456,111.3968 L658.2248,111.3968 C657.736,111.792 657.1744,112.1248 656.5504,112.1248 C655.6976,112.1248 655.0632,111.5944 655.0632,110.6896 Z M655.9056,110.6272 C655.9056,111.1992 656.2904,111.4384 656.7896,111.4384 C657.2784,111.4384 657.684,111.1992 658.1728,110.7624 L658.1728,109.3584 C656.4776,109.5664 655.9056,109.9824 655.9056,110.6272 Z M661.1032,110.44 L661.1032,107.6424 L660.3544,107.6424 L660.3544,106.9976 L661.1448,106.9456 L661.2488,105.5312 L661.9664,105.5312 L661.9664,106.9456 L663.3288,106.9456 L663.3288,107.6424 L661.9664,107.6424 L661.9664,110.4504 C661.9664,111.0744 662.164,111.428 662.7464,111.428 C662.9232,111.428 663.152,111.3552 663.3184,111.2928 L663.4848,111.9376 C663.204,112.0312 662.8608,112.1248 662.5488,112.1248 C661.4672,112.1248 661.1032,111.4384 661.1032,110.44 Z M665.2296,105.9056 C664.8968,105.9056 664.6368,105.6768 664.6368,105.3544 C664.6368,105.0216 664.8968,104.8032 665.2296,104.8032 C665.5624,104.8032 665.8224,105.0216 665.8224,105.3544 C665.8224,105.6768 665.5624,105.9056 665.2296,105.9056 Z M664.7928,112 L664.7928,106.9456 L665.6456,106.9456 L665.6456,112 L664.7928,112 Z M667.2968,109.4832 C667.2968,107.788 668.4304,106.8208 669.7304,106.8208 C670.396,106.8208 670.864,107.1016 671.2072,107.424 L670.7808,107.9752 C670.4792,107.7152 670.1672,107.528 669.7616,107.528 C668.8464,107.528 668.1808,108.3184 668.1808,109.4832 C668.1808,110.6376 668.8152,111.4176 669.7408,111.4176 C670.2192,111.4176 670.6248,111.1784 670.9264,110.908 L671.3112,111.4696 C670.8536,111.8752 670.2712,112.1248 669.668,112.1248 C668.3264,112.1248 667.2968,111.1576 667.2968,109.4832 Z" id="Automatic" fill="#465161" opacity="0.699999988"></path><path d="M476,95.2 C476,93.4326888 477.423621,92 479.205752,92 L512.794248,92 C514.564736,92 516,93.4362849 516,95.2 L516,95.2 C516,96.9673112 514.576379,98.4 512.794248,98.4 L479.205752,98.4 C477.435264,98.4 476,96.9637151 476,95.2 L476,95.2 Z" id="Container-Copy" fill="#EDF0F2"></path><g id="Background-Copy-4" fill-rule="nonzero"><use fill="black" fill-opacity="1" filter="url(#filter-4)" xlink:href="#path-3"></use><path stroke="#DFDFDF" stroke-width="0.8" d="M320.4,205.2 L447.6,205.2 L447.6,89.3533245 C447.6,87.4629505 447.446355,86.6673092 447.006156,85.8442099 C446.625099,85.131695 446.068305,84.5749009 445.35579,84.1938438 C444.532691,83.7536454 443.73705,83.6 441.846676,83.6 L326.153324,83.6 C324.26295,83.6 323.467309,83.7536454 322.64421,84.1938438 C321.931695,84.5749009 321.374901,85.131695 320.993844,85.8442099 C320.553645,86.6673092 320.4,87.4629505 320.4,89.3533245 L320.4,205.2 Z" stroke-linejoin="square" fill="#FFFFFF" fill-rule="evenodd"></path></g><path d="M328,162.4 L440,162.4 C440.883656,162.4 441.6,163.116344 441.6,164 L441.6,196.8 C441.6,197.683656 440.883656,198.4 440,198.4 L328,198.4 C327.116344,198.4 326.4,197.683656 326.4,196.8 L326.4,164 C326.4,163.116344 327.116344,162.4 328,162.4 Z" id="Div-Copy-4" fill="#EDF0F2"></path><path d="M367.2056,139.2 L367.2056,131.8752 L371.6072,131.8752 L371.6072,132.9728 L368.5048,132.9728 L368.5048,134.8432 L371.1368,134.8432 L371.1368,135.9408 L368.5048,135.9408 L368.5048,138.1024 L371.7192,138.1024 L371.7192,139.2 L367.2056,139.2 Z M372.9096,136.456 C372.9096,134.664 374.0408,133.5664 375.2392,133.5664 C375.8664,133.5664 376.2584,133.8016 376.684,134.1712 L376.6392,133.2864 L376.6392,131.2928 L377.9272,131.2928 L377.9272,139.2 L376.8632,139.2 L376.7736,138.6064 L376.7288,138.6064 C376.3256,139.0096 375.7656,139.3344 375.172,139.3344 C373.7944,139.3344 372.9096,138.2704 372.9096,136.456 Z M374.2424,136.4448 C374.2424,137.632 374.6904,138.2704 375.4856,138.2704 C375.9112,138.2704 376.2696,138.08 376.6392,137.6544 L376.6392,135.0896 C376.2584,134.7536 375.8888,134.6304 375.5192,134.6304 C374.8136,134.6304 374.2424,135.2912 374.2424,136.4448 Z M380.372,132.7376 C379.9128,132.7376 379.5768,132.4352 379.5768,132.0096 C379.5768,131.5728 379.9128,131.2704 380.372,131.2704 C380.8312,131.2704 381.1672,131.5728 381.1672,132.0096 C381.1672,132.4352 380.8312,132.7376 380.372,132.7376 Z M379.7224,139.2 L379.7224,133.7008 L381.0104,133.7008 L381.0104,139.2 L379.7224,139.2 Z M383.0072,137.3408 L383.0072,134.72 L382.2232,134.72 L382.2232,133.7568 L383.0744,133.7008 L383.2312,132.2 L384.3064,132.2 L384.3064,133.7008 L385.7064,133.7008 L385.7064,134.72 L384.3064,134.72 L384.3064,137.3408 C384.3064,137.9904 384.5528,138.304 385.0792,138.304 C385.2696,138.304 385.4936,138.248 385.6504,138.1808 L385.8744,139.1328 C385.572,139.2336 385.1912,139.3344 384.7544,139.3344 C383.4776,139.3344 383.0072,138.528 383.0072,137.3408 Z M387.6696,132.7376 C387.2104,132.7376 386.8744,132.4352 386.8744,132.0096 C386.8744,131.5728 387.2104,131.2704 387.6696,131.2704 C388.1288,131.2704 388.4648,131.5728 388.4648,132.0096 C388.4648,132.4352 388.1288,132.7376 387.6696,132.7376 Z M387.02,139.2 L387.02,133.7008 L388.308,133.7008 L388.308,139.2 L387.02,139.2 Z M390.1144,139.2 L390.1144,133.7008 L391.1784,133.7008 L391.268,134.44 L391.3128,134.44 C391.8056,133.9584 392.3656,133.5664 393.116,133.5664 C394.292,133.5664 394.8072,134.3616 394.8072,135.7504 L394.8072,139.2 L393.5192,139.2 L393.5192,135.9184 C393.5192,135.0112 393.2616,134.6752 392.6568,134.6752 C392.1752,134.6752 391.8616,134.9104 391.4024,135.3584 L391.4024,139.2 L390.1144,139.2 Z M397.252,140.0064 C397.252,140.4992 397.7896,140.7904 398.6632,140.7904 C399.548,140.7904 400.1528,140.376 400.1528,139.9056 C400.1528,139.48 399.8056,139.3568 399.1784,139.3568 L398.428,139.3568 C398.1256,139.3568 397.8904,139.3344 397.6776,139.2784 C397.3864,139.5024 397.252,139.7488 397.252,140.0064 Z M396.1768,140.1968 C396.1768,139.7376 396.4568,139.3344 396.9608,139.0208 L396.9608,138.976 C396.6808,138.7968 396.468,138.5056 396.468,138.0576 C396.468,137.632 396.7592,137.2624 397.0728,137.0384 L397.0728,136.9936 C396.7032,136.7136 396.356,136.1872 396.356,135.5376 C396.356,134.272 397.3752,133.5664 398.5288,133.5664 C398.8312,133.5664 399.1112,133.6224 399.3352,133.7008 L401.3064,133.7008 L401.3064,134.6528 L400.2984,134.6528 C400.4776,134.8656 400.612,135.2016 400.612,135.5824 C400.612,136.8032 399.6936,137.4528 398.5288,137.4528 C398.2936,137.4528 398.0248,137.408 397.7784,137.3072 C397.6104,137.4528 397.5096,137.5872 397.5096,137.8336 C397.5096,138.1472 397.7336,138.3376 398.4056,138.3376 L399.38,138.3376 C400.7016,138.3376 401.396,138.7408 401.396,139.6928 C401.396,140.7792 400.2536,141.6304 398.4616,141.6304 C397.1512,141.6304 396.1768,141.16 396.1768,140.1968 Z M398.5288,136.6464 C399.0552,136.6464 399.4808,136.2432 399.4808,135.5376 C399.4808,134.8544 399.0664,134.4512 398.5288,134.4512 C397.9912,134.4512 397.5656,134.8432 397.5656,135.5376 C397.5656,136.2432 397.9912,136.6464 398.5288,136.6464 Z" id="Jobname-Copy-4" fill="#465161"></path><path d="M328.3016,110.6328 L328.9152,110.196 C329.2272,110.7368 329.612,110.9656 330.1008,110.9656 C330.8288,110.9656 331.1928,110.5496 331.1928,109.5096 L331.1928,104.7776 L332.056,104.7776 L332.056,109.5928 C332.056,110.768 331.5152,111.7248 330.1736,111.7248 C329.3104,111.7248 328.6968,111.3504 328.3016,110.6328 Z M333.8528,110.2896 C333.8528,109.1872 334.8096,108.636 336.9624,108.3968 C336.9624,107.752 336.744,107.128 335.9224,107.128 C335.3296,107.128 334.8096,107.3984 334.4144,107.6688 L334.0712,107.076 C334.5392,106.7744 335.2464,106.4208 336.0576,106.4208 C337.2952,106.4208 337.8152,107.2424 337.8152,108.5008 L337.8152,111.6 L337.108,111.6 L337.0352,110.9968 L337.0144,110.9968 C336.5256,111.392 335.964,111.7248 335.34,111.7248 C334.4872,111.7248 333.8528,111.1944 333.8528,110.2896 Z M334.6952,110.2272 C334.6952,110.7992 335.08,111.0384 335.5792,111.0384 C336.068,111.0384 336.4736,110.7992 336.9624,110.3624 L336.9624,108.9584 C335.2672,109.1664 334.6952,109.5824 334.6952,110.2272 Z M339.7472,111.6 L339.7472,106.5456 L340.4544,106.5456 L340.5272,107.2736 L340.5584,107.2736 C340.9952,106.7952 341.5256,106.4208 342.1288,106.4208 C342.8984,106.4208 343.3144,106.7848 343.5224,107.388 C344.0528,106.816 344.5728,106.4208 345.1864,106.4208 C346.2264,106.4208 346.7256,107.1072 346.7256,108.3968 L346.7256,111.6 L345.8728,111.6 L345.8728,108.5112 C345.8728,107.5648 345.5712,107.1592 344.9368,107.1592 C344.5416,107.1592 344.136,107.4192 343.668,107.9392 L343.668,111.6 L342.8152,111.6 L342.8152,108.5112 C342.8152,107.5648 342.5136,107.1592 341.8688,107.1592 C341.4944,107.1592 341.068,107.4192 340.6,107.9392 L340.6,111.6 L339.7472,111.6 Z M348.3144,109.0832 C348.3144,107.4296 349.4272,106.4208 350.5816,106.4208 C351.8712,106.4208 352.5992,107.3464 352.5992,108.792 C352.5992,108.9688 352.5888,109.1352 352.568,109.26 L349.1568,109.26 C349.2192,110.352 349.8744,111.0384 350.8416,111.0384 C351.32,111.0384 351.7256,110.8824 352.1,110.6432 L352.4016,111.2048 C351.9648,111.4856 351.424,111.7248 350.7376,111.7248 C349.3856,111.7248 348.3144,110.7368 348.3144,109.0832 Z M349.1464,108.6984 L351.8504,108.6984 C351.8504,107.6688 351.3928,107.0968 350.6024,107.0968 C349.8952,107.0968 349.2504,107.6792 349.1464,108.6984 Z M353.6056,111.028 L354.032,110.456 C354.4688,110.8096 354.916,111.0592 355.5192,111.0592 C356.1848,111.0592 356.5176,110.7056 356.5176,110.2688 C356.5176,109.7488 355.9144,109.52 355.3632,109.312 C354.6456,109.052 353.8552,108.7088 353.8552,107.856 C353.8552,107.0448 354.5,106.4208 355.592,106.4208 C356.2264,106.4208 356.7776,106.6808 357.1624,106.9928 L356.7568,107.5336 C356.4136,107.2736 356.0496,107.0864 355.6024,107.0864 C354.968,107.0864 354.6768,107.4296 354.6768,107.8144 C354.6768,108.2824 355.228,108.4696 355.8,108.688 C356.528,108.9584 357.3392,109.26 357.3392,110.2168 C357.3392,111.0384 356.684,111.7248 355.488,111.7248 C354.7704,111.7248 354.084,111.4232 353.6056,111.028 Z M361.3176,111.6 L361.3176,104.7776 L363.3456,104.7776 C364.7288,104.7776 365.696,105.2456 365.696,106.4416 C365.696,107.1176 365.3112,107.7208 364.5,107.9288 L364.5,107.9704 C365.4984,108.1264 366.0808,108.6672 366.0808,109.6032 C366.0808,110.9448 365.02,111.6 363.5016,111.6 L361.3176,111.6 Z M362.1912,107.6896 L363.2,107.6896 C364.3544,107.6896 364.8432,107.2736 364.8432,106.5144 C364.8432,105.776 364.292,105.464 363.2416,105.464 L362.1912,105.464 L362.1912,107.6896 Z M362.1912,110.9136 L363.3768,110.9136 C364.5416,110.9136 365.228,110.4872 365.228,109.5616 C365.228,108.7192 364.5728,108.3344 363.3768,108.3344 L362.1912,108.3344 L362.1912,110.9136 Z M367.2744,109.0832 C367.2744,107.4296 368.3872,106.4208 369.5416,106.4208 C370.8312,106.4208 371.5592,107.3464 371.5592,108.792 C371.5592,108.9688 371.5488,109.1352 371.528,109.26 L368.1168,109.26 C368.1792,110.352 368.8344,111.0384 369.8016,111.0384 C370.28,111.0384 370.6856,110.8824 371.06,110.6432 L371.3616,111.2048 C370.9248,111.4856 370.384,111.7248 369.6976,111.7248 C368.3456,111.7248 367.2744,110.7368 367.2744,109.0832 Z M368.1064,108.6984 L370.8104,108.6984 C370.8104,107.6688 370.3528,107.0968 369.5624,107.0968 C368.8552,107.0968 368.2104,107.6792 368.1064,108.6984 Z M373.1272,110.5808 L373.1272,104.1952 L373.98,104.1952 L373.98,110.6432 C373.98,110.9136 374.0944,111.0176 374.2192,111.0176 C374.2712,111.0176 374.3128,111.0176 374.4064,110.9968 L374.5208,111.6416 C374.4064,111.6936 374.2608,111.7248 374.032,111.7248 C373.3872,111.7248 373.1272,111.3192 373.1272,110.5808 Z M376.0264,109.7488 L376.0264,106.5456 L376.8896,106.5456 L376.8896,109.6344 C376.8896,110.5808 377.1704,110.9864 377.836,110.9864 C378.356,110.9864 378.72,110.7264 379.1984,110.1336 L379.1984,106.5456 L380.0512,106.5456 L380.0512,111.6 L379.344,111.6 L379.2712,110.8096 L379.24,110.8096 C378.772,111.3608 378.2728,111.7248 377.576,111.7248 C376.5048,111.7248 376.0264,111.0384 376.0264,109.7488 Z M381.5152,111.028 L381.9416,110.456 C382.3784,110.8096 382.8256,111.0592 383.4288,111.0592 C384.0944,111.0592 384.4272,110.7056 384.4272,110.2688 C384.4272,109.7488 383.824,109.52 383.2728,109.312 C382.5552,109.052 381.7648,108.7088 381.7648,107.856 C381.7648,107.0448 382.4096,106.4208 383.5016,106.4208 C384.136,106.4208 384.6872,106.6808 385.072,106.9928 L384.6664,107.5336 C384.3232,107.2736 383.9592,107.0864 383.512,107.0864 C382.8776,107.0864 382.5864,107.4296 382.5864,107.8144 C382.5864,108.2824 383.1376,108.4696 383.7096,108.688 C384.4376,108.9584 385.2488,109.26 385.2488,110.2168 C385.2488,111.0384 384.5936,111.7248 383.3976,111.7248 C382.68,111.7248 381.9936,111.4232 381.5152,111.028 Z M386.7544,111.6 L386.7544,104.1952 L387.6072,104.1952 L387.6072,106.2128 L387.576,107.2528 C388.0544,106.7952 388.564,106.4208 389.2608,106.4208 C390.3216,106.4208 390.8,107.1072 390.8,108.3968 L390.8,111.6 L389.9472,111.6 L389.9472,108.5112 C389.9472,107.5648 389.656,107.1592 388.9904,107.1592 C388.4704,107.1592 388.1168,107.4296 387.6072,107.9392 L387.6072,111.6 L386.7544,111.6 Z M393.1688,105.5056 C392.836,105.5056 392.576,105.2768 392.576,104.9544 C392.576,104.6216 392.836,104.4032 393.1688,104.4032 C393.5016,104.4032 393.7616,104.6216 393.7616,104.9544 C393.7616,105.2768 393.5016,105.5056 393.1688,105.5056 Z M392.732,111.6 L392.732,106.5456 L393.5848,106.5456 L393.5848,111.6 L392.732,111.6 Z" id="James-Belushi" fill="#465161" opacity="0.699999988"></path><path d="M340,168.8 L340.8,168.8 C341.683656,168.8 342.4,169.516344 342.4,170.4 L342.4,176 C342.4,176.883656 341.683656,177.6 340.8,177.6 L332.8,177.6 C331.916344,177.6 331.2,176.883656 331.2,176 L331.2,170.4 C331.2,169.516344 331.916344,168.8 332.8,168.8 L333.6,168.8 L333.6,168 C333.6,167.558172 333.958172,167.2 334.4,167.2 C334.841828,167.2 335.2,167.558172 335.2,168 L335.2,168.8 L338.4,168.8 L338.4,168 C338.4,167.558172 338.758172,167.2 339.2,167.2 C339.641828,167.2 340,167.558172 340,168 L340,168.8 Z M332.8,171.2 L332.8,176 L340.8,176 L340.8,171.2 L332.8,171.2 Z M333.6,173.2 C333.6,172.537258 334.137258,172 334.8,172 C335.462742,172 336,172.537258 336,173.2 C336,173.862742 335.462742,174.4 334.8,174.4 C334.137258,174.4 333.6,173.862742 333.6,173.2 Z" id="Rectangle-62-Copy-9" fill="#465161" opacity="0.5"></path><path d="M340,183.2 L340.8,183.2 C341.683656,183.2 342.4,183.916344 342.4,184.8 L342.4,190.4 C342.4,191.283656 341.683656,192 340.8,192 L332.8,192 C331.916344,192 331.2,191.283656 331.2,190.4 L331.2,184.8 C331.2,183.916344 331.916344,183.2 332.8,183.2 L333.6,183.2 L333.6,182.4 C333.6,181.958172 333.958172,181.6 334.4,181.6 C334.841828,181.6 335.2,181.958172 335.2,182.4 L335.2,183.2 L338.4,183.2 L338.4,182.4 C338.4,181.958172 338.758172,181.6 339.2,181.6 C339.641828,181.6 340,181.958172 340,182.4 L340,183.2 Z M332.8,185.6 L332.8,190.4 L340.8,190.4 L340.8,185.6 L332.8,185.6 Z M337.6,188.4 C337.6,187.737258 338.137258,187.2 338.8,187.2 C339.462742,187.2 340,187.737258 340,188.4 C340,189.062742 339.462742,189.6 338.8,189.6 C338.137258,189.6 337.6,189.062742 337.6,188.4 Z" id="Rectangle-62-Copy-8" fill="#465161" opacity="0.5"></path><path d="M328,95.2 C328,93.4326888 329.423621,92 331.205752,92 L364.794248,92 C366.564736,92 368,93.4362849 368,95.2 L368,95.2 C368,96.9673112 366.576379,98.4 364.794248,98.4 L331.205752,98.4 C329.435264,98.4 328,96.9637151 328,95.2 L328,95.2 Z" id="Container-Copy-2" fill="#EDF0F2"></path><g id="Background-Copy-5" fill-rule="nonzero"><use fill="black" fill-opacity="1" filter="url(#filter-6)" xlink:href="#path-5"></use><path stroke="#DFDFDF" stroke-width="0.8" d="M160.4,122 L287.6,122 L287.6,6.15332448 C287.6,4.26295046 287.446355,3.46730922 287.006156,2.64420986 C286.625099,1.93169502 286.068305,1.37490087 285.35579,0.993843768 C284.532691,0.553645412 283.73705,0.4 281.846676,0.4 L166.153324,0.4 C164.26295,0.4 163.467309,0.553645412 162.64421,0.993843768 C161.931695,1.37490087 161.374901,1.93169502 160.993844,2.64420986 C160.553645,3.46730922 160.4,4.26295046 160.4,6.15332448 L160.4,122 Z" stroke-linejoin="square" fill="#FFFFFF" fill-rule="evenodd"></path></g><g id="Div-Copy-5"><use fill="#EAEDF0" xlink:href="#path-8"></use><use fill="url(#linearGradient-7)" xlink:href="#path-8"></use></g><path d="M180,85.6 L180.8,85.6 C181.683656,85.6 182.4,86.3163444 182.4,87.2 L182.4,92.8 C182.4,93.6836556 181.683656,94.4 180.8,94.4 L172.8,94.4 C171.916344,94.4 171.2,93.6836556 171.2,92.8 L171.2,87.2 C171.2,86.3163444 171.916344,85.6 172.8,85.6 L173.6,85.6 L173.6,84.8 C173.6,84.3581722 173.958172,84 174.4,84 C174.841828,84 175.2,84.3581722 175.2,84.8 L175.2,85.6 L178.4,85.6 L178.4,84.8 C178.4,84.3581722 178.758172,84 179.2,84 C179.641828,84 180,84.3581722 180,84.8 L180,85.6 Z M172.8,88 L172.8,92.8 L180.8,92.8 L180.8,88 L172.8,88 Z M173.6,90 C173.6,89.3372583 174.137258,88.8 174.8,88.8 C175.462742,88.8 176,89.3372583 176,90 C176,90.6627417 175.462742,91.2 174.8,91.2 C174.137258,91.2 173.6,90.6627417 173.6,90 Z" id="Rectangle-62-Copy-11" fill="#465161" opacity="0.5"></path><path d="M180,100 L180.8,100 C181.683656,100 182.4,100.716344 182.4,101.6 L182.4,107.2 C182.4,108.083656 181.683656,108.8 180.8,108.8 L172.8,108.8 C171.916344,108.8 171.2,108.083656 171.2,107.2 L171.2,101.6 C171.2,100.716344 171.916344,100 172.8,100 L173.6,100 L173.6,99.2 C173.6,98.7581722 173.958172,98.4 174.4,98.4 C174.841828,98.4 175.2,98.7581722 175.2,99.2 L175.2,100 L178.4,100 L178.4,99.2 C178.4,98.7581722 178.758172,98.4 179.2,98.4 C179.641828,98.4 180,98.7581722 180,99.2 L180,100 Z M172.8,102.4 L172.8,107.2 L180.8,107.2 L180.8,102.4 L172.8,102.4 Z M177.6,105.2 C177.6,104.537258 178.137258,104 178.8,104 C179.462742,104 180,104.537258 180,105.2 C180,105.862742 179.462742,106.4 178.8,106.4 C178.137258,106.4 177.6,105.862742 177.6,105.2 Z" id="Rectangle-62-Copy-10" fill="#465161" opacity="0.5"></path><path d="M497,173.2 C497,171.432689 498.427548,170 500.203344,170 L580.196656,170 C581.965814,170 583.4,171.436285 583.4,173.2 L583.4,173.2 C583.4,174.967311 581.972452,176.4 580.196656,176.4 L500.203344,176.4 C498.434186,176.4 497,174.963715 497,173.2 L497,173.2 Z" id="Container-Copy-7" fill="#465161" opacity="0.100000001"></path><path d="M497,187.2 C497,185.432689 498.427548,184 500.203344,184 L580.196656,184 C581.965814,184 583.4,185.436285 583.4,187.2 L583.4,187.2 C583.4,188.967311 581.972452,190.4 580.196656,190.4 L500.203344,190.4 C498.434186,190.4 497,188.963715 497,187.2 L497,187.2 Z" id="Container-Copy-6" fill="#465161" opacity="0.100000001"></path><path d="M348.8,172.8 C348.8,171.032689 350.227548,169.6 352.003344,169.6 L431.996656,169.6 C433.765814,169.6 435.2,171.036285 435.2,172.8 L435.2,172.8 C435.2,174.567311 433.772452,176 431.996656,176 L352.003344,176 C350.234186,176 348.8,174.563715 348.8,172.8 L348.8,172.8 Z" id="Container-Copy-9" fill="#465161" opacity="0.100000001"></path><path d="M348.8,187.2 C348.8,185.432689 350.227548,184 352.003344,184 L431.996656,184 C433.765814,184 435.2,185.436285 435.2,187.2 L435.2,187.2 C435.2,188.967311 433.772452,190.4 431.996656,190.4 L352.003344,190.4 C350.234186,190.4 348.8,188.963715 348.8,187.2 L348.8,187.2 Z" id="Container-Copy-8" fill="#465161" opacity="0.100000001"></path><g id="Background-Copy-7" fill-rule="nonzero"><use fill="black" fill-opacity="1" filter="url(#filter-10)" xlink:href="#path-9"></use><path stroke="#DFDFDF" stroke-width="0.8" d="M0.4,205.2 L127.6,205.2 L127.6,89.3533245 C127.6,87.4629505 127.446355,86.6673092 127.006156,85.8442099 C126.625099,85.131695 126.068305,84.5749009 125.35579,84.1938438 C124.532691,83.7536454 123.73705,83.6 121.846676,83.6 L6.15332448,83.6 C4.26295046,83.6 3.46730922,83.7536454 2.64420986,84.1938438 C1.93169502,84.5749009 1.37490087,85.131695 0.993843768,85.8442099 C0.553645412,86.6673092 0.4,87.4629505 0.4,89.3533245 L0.4,205.2 Z" stroke-linejoin="square" fill="#FFFFFF" fill-rule="evenodd"></path></g><path d="M8,162.4 L120,162.4 C120.883656,162.4 121.6,163.116344 121.6,164 L121.6,196.8 C121.6,197.683656 120.883656,198.4 120,198.4 L8,198.4 C7.1163444,198.4 6.4,197.683656 6.4,196.8 L6.4,164 C6.4,163.116344 7.1163444,162.4 8,162.4 Z" id="Div-Copy-7" fill="#EDF0F2"></path><path d="M25.2168,139.2 L25.2168,131.8752 L29.6408,131.8752 L29.6408,132.9728 L26.516,132.9728 L26.516,135.0448 L29.1704,135.0448 L29.1704,136.1424 L26.516,136.1424 L26.516,139.2 L25.2168,139.2 Z M31.5928,132.7376 C31.1336,132.7376 30.7976,132.4352 30.7976,132.0096 C30.7976,131.5728 31.1336,131.2704 31.5928,131.2704 C32.052,131.2704 32.388,131.5728 32.388,132.0096 C32.388,132.4352 32.052,132.7376 31.5928,132.7376 Z M30.9432,139.2 L30.9432,133.7008 L32.2312,133.7008 L32.2312,139.2 L30.9432,139.2 Z M34.0376,137.7888 L34.0376,131.2928 L35.3256,131.2928 L35.3256,137.856 C35.3256,138.1696 35.4712,138.2816 35.6056,138.2816 C35.6616,138.2816 35.7064,138.2816 35.8072,138.2592 L35.9752,139.2224 C35.8184,139.2896 35.5944,139.3344 35.292,139.3344 C34.3736,139.3344 34.0376,138.7408 34.0376,137.7888 Z M36.8744,136.456 C36.8744,134.664 38.1176,133.5664 39.4056,133.5664 C40.8952,133.5664 41.6792,134.6416 41.6792,136.176 C41.6792,136.4224 41.6568,136.6464 41.6232,136.7808 L38.1288,136.7808 C38.2408,137.7776 38.868,138.3376 39.7528,138.3376 C40.2232,138.3376 40.6264,138.192 41.0296,137.9344 L41.4664,138.7408 C40.94,139.088 40.2792,139.3344 39.5848,139.3344 C38.0616,139.3344 36.8744,138.2704 36.8744,136.456 Z M38.1176,135.9632 L40.5592,135.9632 C40.5592,135.0896 40.1896,134.5632 39.4392,134.5632 C38.7896,134.5632 38.2296,135.0448 38.1176,135.9632 Z M46.7816,138.7296 L46.8152,139.648 L46.8152,141.3728 L45.5272,141.3728 L45.5272,133.7008 L46.5912,133.7008 L46.6808,134.2832 L46.7256,134.2832 C47.1848,133.8912 47.7784,133.5664 48.3832,133.5664 C49.7496,133.5664 50.5448,134.664 50.5448,136.3664 C50.5448,138.248 49.4136,139.3344 48.1928,139.3344 C47.7112,139.3344 47.2296,139.1104 46.7816,138.7296 Z M46.8152,137.8112 C47.2184,138.1472 47.5992,138.2704 47.924,138.2704 C48.652,138.2704 49.212,137.6208 49.212,136.3776 C49.212,135.28 48.8536,134.6304 48.0248,134.6304 C47.6216,134.6304 47.2408,134.832 46.8152,135.2464 L46.8152,137.8112 Z M52.004,139.2 L52.004,133.7008 L53.068,133.7008 L53.1576,134.6752 L53.2024,134.6752 C53.5944,133.9584 54.1768,133.5664 54.7592,133.5664 C55.0392,133.5664 55.2184,133.6 55.3864,133.6784 L55.1624,134.7984 C54.972,134.7424 54.8264,134.7088 54.5912,134.7088 C54.1544,134.7088 53.628,135.0112 53.292,135.84 L53.292,139.2 L52.004,139.2 Z M55.8712,136.456 C55.8712,134.664 57.1144,133.5664 58.4024,133.5664 C59.892,133.5664 60.676,134.6416 60.676,136.176 C60.676,136.4224 60.6536,136.6464 60.62,136.7808 L57.1256,136.7808 C57.2376,137.7776 57.8648,138.3376 58.7496,138.3376 C59.22,138.3376 59.6232,138.192 60.0264,137.9344 L60.4632,138.7408 C59.9368,139.088 59.276,139.3344 58.5816,139.3344 C57.0584,139.3344 55.8712,138.2704 55.8712,136.456 Z M57.1144,135.9632 L59.556,135.9632 C59.556,135.0896 59.1864,134.5632 58.436,134.5632 C57.7864,134.5632 57.2264,135.0448 57.1144,135.9632 Z M63.3224,138.7296 L63.356,139.648 L63.356,141.3728 L62.068,141.3728 L62.068,133.7008 L63.132,133.7008 L63.2216,134.2832 L63.2664,134.2832 C63.7256,133.8912 64.3192,133.5664 64.924,133.5664 C66.2904,133.5664 67.0856,134.664 67.0856,136.3664 C67.0856,138.248 65.9544,139.3344 64.7336,139.3344 C64.252,139.3344 63.7704,139.1104 63.3224,138.7296 Z M63.356,137.8112 C63.7592,138.1472 64.14,138.2704 64.4648,138.2704 C65.1928,138.2704 65.7528,137.6208 65.7528,136.3776 C65.7528,135.28 65.3944,134.6304 64.5656,134.6304 C64.1624,134.6304 63.7816,134.832 63.356,135.2464 L63.356,137.8112 Z M68.1752,137.7216 C68.1752,136.5456 69.1608,135.9296 71.412,135.6832 C71.4008,135.1008 71.1544,134.608 70.4152,134.608 C69.8664,134.608 69.3512,134.8544 68.8696,135.1456 L68.3992,134.2832 C69.004,133.9024 69.7768,133.5664 70.6504,133.5664 C72.028,133.5664 72.7,134.4064 72.7,135.9408 L72.7,139.2 L71.6472,139.2 L71.5464,138.5952 L71.5128,138.5952 C71.02,139.0096 70.46,139.3344 69.8104,139.3344 C68.8472,139.3344 68.1752,138.6848 68.1752,137.7216 Z M69.4296,137.6208 C69.4296,138.1136 69.7544,138.3264 70.2136,138.3264 C70.6616,138.3264 71.0088,138.1024 71.412,137.7216 L71.412,136.4896 C69.9224,136.68 69.4296,137.072 69.4296,137.6208 Z M74.428,139.2 L74.428,133.7008 L75.492,133.7008 L75.5816,134.6752 L75.6264,134.6752 C76.0184,133.9584 76.6008,133.5664 77.1832,133.5664 C77.4632,133.5664 77.6424,133.6 77.8104,133.6784 L77.5864,134.7984 C77.396,134.7424 77.2504,134.7088 77.0152,134.7088 C76.5784,134.7088 76.052,135.0112 75.716,135.84 L75.716,139.2 L74.428,139.2 Z M78.228,137.7216 C78.228,136.5456 79.2136,135.9296 81.4648,135.6832 C81.4536,135.1008 81.2072,134.608 80.468,134.608 C79.9192,134.608 79.404,134.8544 78.9224,135.1456 L78.452,134.2832 C79.0568,133.9024 79.8296,133.5664 80.7032,133.5664 C82.0808,133.5664 82.7528,134.4064 82.7528,135.9408 L82.7528,139.2 L81.7,139.2 L81.5992,138.5952 L81.5656,138.5952 C81.0728,139.0096 80.5128,139.3344 79.8632,139.3344 C78.9,139.3344 78.228,138.6848 78.228,137.7216 Z M79.4824,137.6208 C79.4824,138.1136 79.8072,138.3264 80.2664,138.3264 C80.7144,138.3264 81.0616,138.1024 81.4648,137.7216 L81.4648,136.4896 C79.9752,136.68 79.4824,137.072 79.4824,137.6208 Z M84.6712,137.3408 L84.6712,134.72 L83.8872,134.72 L83.8872,133.7568 L84.7384,133.7008 L84.8952,132.2 L85.9704,132.2 L85.9704,133.7008 L87.3704,133.7008 L87.3704,134.72 L85.9704,134.72 L85.9704,137.3408 C85.9704,137.9904 86.2168,138.304 86.7432,138.304 C86.9336,138.304 87.1576,138.248 87.3144,138.1808 L87.5384,139.1328 C87.236,139.2336 86.8552,139.3344 86.4184,139.3344 C85.1416,139.3344 84.6712,138.528 84.6712,137.3408 Z M89.3336,132.7376 C88.8744,132.7376 88.5384,132.4352 88.5384,132.0096 C88.5384,131.5728 88.8744,131.2704 89.3336,131.2704 C89.7928,131.2704 90.1288,131.5728 90.1288,132.0096 C90.1288,132.4352 89.7928,132.7376 89.3336,132.7376 Z M88.684,139.2 L88.684,133.7008 L89.972,133.7008 L89.972,139.2 L88.684,139.2 Z M91.42,136.456 C91.42,134.6192 92.6632,133.5664 94.0296,133.5664 C95.4072,133.5664 96.6504,134.6192 96.6504,136.456 C96.6504,138.2816 95.4072,139.3344 94.0296,139.3344 C92.6632,139.3344 91.42,138.2816 91.42,136.456 Z M92.7416,136.456 C92.7416,137.5536 93.2232,138.2816 94.0296,138.2816 C94.836,138.2816 95.3288,137.5536 95.3288,136.456 C95.3288,135.3472 94.836,134.6192 94.0296,134.6192 C93.2232,134.6192 92.7416,135.3472 92.7416,136.456 Z M98.0872,139.2 L98.0872,133.7008 L99.1512,133.7008 L99.2408,134.44 L99.2856,134.44 C99.7784,133.9584 100.3384,133.5664 101.0888,133.5664 C102.2648,133.5664 102.78,134.3616 102.78,135.7504 L102.78,139.2 L101.492,139.2 L101.492,135.9184 C101.492,135.0112 101.2344,134.6752 100.6296,134.6752 C100.148,134.6752 99.8344,134.9104 99.3752,135.3584 L99.3752,139.2 L98.0872,139.2 Z" id="Jobname-Copy-7" fill="#465161"></path><path d="M8.9048,111.6 L8.9048,104.7776 L11.0056,104.7776 C12.5136,104.7776 13.5224,105.2872 13.5224,106.7848 C13.5224,108.22 12.4928,108.896 11.0056,108.896 L9.7784,108.896 L9.7784,111.6 L8.9048,111.6 Z M9.7784,108.1888 L10.8912,108.1888 C12.0872,108.1888 12.6592,107.752 12.6592,106.7848 C12.6592,105.7968 12.0664,105.4744 10.8912,105.4744 L9.7784,105.4744 L9.7784,108.1888 Z M14.4144,110.2896 C14.4144,109.1872 15.3712,108.636 17.524,108.3968 C17.524,107.752 17.3056,107.128 16.484,107.128 C15.8912,107.128 15.3712,107.3984 14.976,107.6688 L14.6328,107.076 C15.1008,106.7744 15.808,106.4208 16.6192,106.4208 C17.8568,106.4208 18.3768,107.2424 18.3768,108.5008 L18.3768,111.6 L17.6696,111.6 L17.5968,110.9968 L17.576,110.9968 C17.0872,111.392 16.5256,111.7248 15.9016,111.7248 C15.0488,111.7248 14.4144,111.1944 14.4144,110.2896 Z M15.2568,110.2272 C15.2568,110.7992 15.6416,111.0384 16.1408,111.0384 C16.6296,111.0384 17.0352,110.7992 17.524,110.3624 L17.524,108.9584 C15.8288,109.1664 15.2568,109.5824 15.2568,110.2272 Z M20.236,109.7488 L20.236,106.5456 L21.0992,106.5456 L21.0992,109.6344 C21.0992,110.5808 21.38,110.9864 22.0456,110.9864 C22.5656,110.9864 22.9296,110.7264 23.408,110.1336 L23.408,106.5456 L24.2608,106.5456 L24.2608,111.6 L23.5536,111.6 L23.4808,110.8096 L23.4496,110.8096 C22.9816,111.3608 22.4824,111.7248 21.7856,111.7248 C20.7144,111.7248 20.236,111.0384 20.236,109.7488 Z M26.2864,110.5808 L26.2864,104.1952 L27.1392,104.1952 L27.1392,110.6432 C27.1392,110.9136 27.2536,111.0176 27.3784,111.0176 C27.4304,111.0176 27.472,111.0176 27.5656,110.9968 L27.68,111.6416 C27.5656,111.6936 27.42,111.7248 27.1912,111.7248 C26.5464,111.7248 26.2864,111.3192 26.2864,110.5808 Z M31.7312,111.6 L31.7312,104.7776 L32.6048,104.7776 L32.6048,110.8616 L35.5792,110.8616 L35.5792,111.6 L31.7312,111.6 Z M36.5024,109.0832 C36.5024,107.4296 37.6152,106.4208 38.7696,106.4208 C40.0592,106.4208 40.7872,107.3464 40.7872,108.792 C40.7872,108.9688 40.7768,109.1352 40.756,109.26 L37.3448,109.26 C37.4072,110.352 38.0624,111.0384 39.0296,111.0384 C39.508,111.0384 39.9136,110.8824 40.288,110.6432 L40.5896,111.2048 C40.1528,111.4856 39.612,111.7248 38.9256,111.7248 C37.5736,111.7248 36.5024,110.7368 36.5024,109.0832 Z M37.3344,108.6984 L40.0384,108.6984 C40.0384,107.6688 39.5808,107.0968 38.7904,107.0968 C38.0832,107.0968 37.4384,107.6792 37.3344,108.6984 Z M42.792,105.5056 C42.4592,105.5056 42.1992,105.2768 42.1992,104.9544 C42.1992,104.6216 42.4592,104.4032 42.792,104.4032 C43.1248,104.4032 43.3848,104.6216 43.3848,104.9544 C43.3848,105.2768 43.1248,105.5056 42.792,105.5056 Z M42.3552,111.6 L42.3552,106.5456 L43.208,106.5456 L43.208,111.6 L42.3552,111.6 Z M45.3792,110.04 L45.3792,107.2424 L44.6304,107.2424 L44.6304,106.5976 L45.4208,106.5456 L45.5248,105.1312 L46.2424,105.1312 L46.2424,106.5456 L47.6048,106.5456 L47.6048,107.2424 L46.2424,107.2424 L46.2424,110.0504 C46.2424,110.6744 46.44,111.028 47.0224,111.028 C47.1992,111.028 47.428,110.9552 47.5944,110.8928 L47.7608,111.5376 C47.48,111.6312 47.1368,111.7248 46.8248,111.7248 C45.7432,111.7248 45.3792,111.0384 45.3792,110.04 Z M48.5904,109.0832 C48.5904,107.4296 49.7032,106.4208 50.8576,106.4208 C52.1472,106.4208 52.8752,107.3464 52.8752,108.792 C52.8752,108.9688 52.8648,109.1352 52.844,109.26 L49.4328,109.26 C49.4952,110.352 50.1504,111.0384 51.1176,111.0384 C51.596,111.0384 52.0016,110.8824 52.376,110.6432 L52.6776,111.2048 C52.2408,111.4856 51.7,111.7248 51.0136,111.7248 C49.6616,111.7248 48.5904,110.7368 48.5904,109.0832 Z M49.4224,108.6984 L52.1264,108.6984 C52.1264,107.6688 51.6688,107.0968 50.8784,107.0968 C50.1712,107.0968 49.5264,107.6792 49.4224,108.6984 Z M54.4432,111.6 L54.4432,106.5456 L55.1504,106.5456 L55.2232,107.4608 L55.2544,107.4608 C55.5976,106.8264 56.1176,106.4208 56.6896,106.4208 C56.908,106.4208 57.064,106.452 57.2304,106.5248 L57.064,107.2736 C56.8976,107.2216 56.7832,107.1904 56.5752,107.1904 C56.1488,107.1904 55.6392,107.5024 55.296,108.3552 L55.296,111.6 L54.4432,111.6 Z" id="Paul-Leiter-Copy-4" fill="#465161" opacity="0.699999988"></path><path d="M8,95.2 C8,93.4326888 9.42362118,92 11.2057518,92 L44.7942482,92 C46.564736,92 48,93.4362849 48,95.2 L48,95.2 C48,96.9673112 46.5763788,98.4 44.7942482,98.4 L11.2057518,98.4 C9.43526396,98.4 8,96.9637151 8,95.2 L8,95.2 Z" id="Container-Copy-17" fill="#EDF0F2"></path><path d="M28.8,172.8 C28.8,171.032689 30.2275476,169.6 32.0033444,169.6 L111.996656,169.6 C113.765814,169.6 115.2,171.036285 115.2,172.8 L115.2,172.8 C115.2,174.567311 113.772452,176 111.996656,176 L32.0033444,176 C30.2341861,176 28.8,174.563715 28.8,172.8 L28.8,172.8 Z" id="Container-Copy-16" fill="#465161" opacity="0.100000001"></path><path d="M28.8,187.2 C28.8,185.432689 30.2275476,184 32.0033444,184 L111.996656,184 C113.765814,184 115.2,185.436285 115.2,187.2 L115.2,187.2 C115.2,188.967311 113.772452,190.4 111.996656,190.4 L32.0033444,190.4 C30.2341861,190.4 28.8,188.963715 28.8,187.2 L28.8,187.2 Z" id="Container-Copy-15" fill="#465161" opacity="0.100000001"></path><path d="M188.8,89.6 C188.8,87.8326888 190.227548,86.4 192.003344,86.4 L271.996656,86.4 C273.765814,86.4 275.2,87.8362849 275.2,89.6 L275.2,89.6 C275.2,91.3673112 273.772452,92.8 271.996656,92.8 L192.003344,92.8 C190.234186,92.8 188.8,91.3637151 188.8,89.6 L188.8,89.6 Z" id="Container-Copy-11" fill="#465161" opacity="0.100000001"></path><path d="M188.8,104 C188.8,102.232689 190.227548,100.8 192.003344,100.8 L271.996656,100.8 C273.765814,100.8 275.2,102.236285 275.2,104 L275.2,104 C275.2,105.767311 273.772452,107.2 271.996656,107.2 L192.003344,107.2 C190.234186,107.2 188.8,105.763715 188.8,104 L188.8,104 Z" id="Container-Copy-10" fill="#465161" opacity="0.100000001"></path><g id="Background-Copy-6" fill-rule="nonzero"><use fill="black" fill-opacity="1" filter="url(#filter-12)" xlink:href="#path-11"></use><path stroke="#DFDFDF" stroke-width="0.8" d="M160.4,290 L287.6,290 L287.6,174.153324 C287.6,172.26295 287.446355,171.467309 287.006156,170.64421 C286.625099,169.931695 286.068305,169.374901 285.35579,168.993844 C284.532691,168.553645 283.73705,168.4 281.846676,168.4 L166.153324,168.4 C164.26295,168.4 163.467309,168.553645 162.64421,168.993844 C161.931695,169.374901 161.374901,169.931695 160.993844,170.64421 C160.553645,171.467309 160.4,172.26295 160.4,174.153324 L160.4,290 Z" stroke-linejoin="square" fill="#FFFFFF" fill-rule="evenodd"></path></g><g id="Div-Copy-6"><use fill="#EAEDF0" xlink:href="#path-13"></use><use fill="url(#linearGradient-7)" xlink:href="#path-13"></use></g><path d="M198.1608,224 L198.1608,217.7728 L196.044,217.7728 L196.044,216.6752 L201.5656,216.6752 L201.5656,217.7728 L199.46,217.7728 L199.46,224 L198.1608,224 Z M202.3304,224 L202.3304,218.5008 L203.3944,218.5008 L203.484,219.4752 L203.5288,219.4752 C203.9208,218.7584 204.5032,218.3664 205.0856,218.3664 C205.3656,218.3664 205.5448,218.4 205.7128,218.4784 L205.4888,219.5984 C205.2984,219.5424 205.1528,219.5088 204.9176,219.5088 C204.4808,219.5088 203.9544,219.8112 203.6184,220.64 L203.6184,224 L202.3304,224 Z M206.1304,222.5216 C206.1304,221.3456 207.116,220.7296 209.3672,220.4832 C209.356,219.9008 209.1096,219.408 208.3704,219.408 C207.8216,219.408 207.3064,219.6544 206.8248,219.9456 L206.3544,219.0832 C206.9592,218.7024 207.732,218.3664 208.6056,218.3664 C209.9832,218.3664 210.6552,219.2064 210.6552,220.7408 L210.6552,224 L209.6024,224 L209.5016,223.3952 L209.468,223.3952 C208.9752,223.8096 208.4152,224.1344 207.7656,224.1344 C206.8024,224.1344 206.1304,223.4848 206.1304,222.5216 Z M207.3848,222.4208 C207.3848,222.9136 207.7096,223.1264 208.1688,223.1264 C208.6168,223.1264 208.964,222.9024 209.3672,222.5216 L209.3672,221.2896 C207.8776,221.48 207.3848,221.872 207.3848,222.4208 Z M212.3832,224 L212.3832,218.5008 L213.4472,218.5008 L213.5368,219.24 L213.5816,219.24 C214.0744,218.7584 214.6344,218.3664 215.3848,218.3664 C216.5608,218.3664 217.076,219.1616 217.076,220.5504 L217.076,224 L215.788,224 L215.788,220.7184 C215.788,219.8112 215.5304,219.4752 214.9256,219.4752 C214.444,219.4752 214.1304,219.7104 213.6712,220.1584 L213.6712,224 L212.3832,224 Z M218.2664,223.3728 L218.8712,222.544 C219.364,222.9248 219.8344,223.16 220.3944,223.16 C220.988,223.16 221.268,222.88 221.268,222.4992 C221.268,222.04 220.6744,221.8384 220.092,221.6144 C219.364,221.3456 218.5464,220.9312 218.5464,220.0128 C218.5464,219.0496 219.3192,218.3664 220.5512,218.3664 C221.3128,218.3664 221.9288,218.68 222.3768,219.0272 L221.7832,219.8112 C221.4024,219.5312 221.0104,219.3408 220.5736,219.3408 C220.0248,219.3408 219.7672,219.5984 219.7672,219.9456 C219.7672,220.3712 220.316,220.5504 220.9096,220.7632 C221.66,221.0432 222.4888,221.4016 222.4888,222.432 C222.4888,223.3728 221.7384,224.1344 220.3496,224.1344 C219.5992,224.1344 218.804,223.8096 218.2664,223.3728 Z M223.8024,222.5888 L223.8024,216.0928 L225.0904,216.0928 L225.0904,222.656 C225.0904,222.9696 225.236,223.0816 225.3704,223.0816 C225.4264,223.0816 225.4712,223.0816 225.572,223.0592 L225.74,224.0224 C225.5832,224.0896 225.3592,224.1344 225.0568,224.1344 C224.1384,224.1344 223.8024,223.5408 223.8024,222.5888 Z M226.7624,222.5216 C226.7624,221.3456 227.748,220.7296 229.9992,220.4832 C229.988,219.9008 229.7416,219.408 229.0024,219.408 C228.4536,219.408 227.9384,219.6544 227.4568,219.9456 L226.9864,219.0832 C227.5912,218.7024 228.364,218.3664 229.2376,218.3664 C230.6152,218.3664 231.2872,219.2064 231.2872,220.7408 L231.2872,224 L230.2344,224 L230.1336,223.3952 L230.1,223.3952 C229.6072,223.8096 229.0472,224.1344 228.3976,224.1344 C227.4344,224.1344 226.7624,223.4848 226.7624,222.5216 Z M228.0168,222.4208 C228.0168,222.9136 228.3416,223.1264 228.8008,223.1264 C229.2488,223.1264 229.596,222.9024 229.9992,222.5216 L229.9992,221.2896 C228.5096,221.48 228.0168,221.872 228.0168,222.4208 Z M233.2056,222.1408 L233.2056,219.52 L232.4216,219.52 L232.4216,218.5568 L233.2728,218.5008 L233.4296,217 L234.5048,217 L234.5048,218.5008 L235.9048,218.5008 L235.9048,219.52 L234.5048,219.52 L234.5048,222.1408 C234.5048,222.7904 234.7512,223.104 235.2776,223.104 C235.468,223.104 235.692,223.048 235.8488,222.9808 L236.0728,223.9328 C235.7704,224.0336 235.3896,224.1344 234.9528,224.1344 C233.676,224.1344 233.2056,223.328 233.2056,222.1408 Z M237.868,217.5376 C237.4088,217.5376 237.0728,217.2352 237.0728,216.8096 C237.0728,216.3728 237.4088,216.0704 237.868,216.0704 C238.3272,216.0704 238.6632,216.3728 238.6632,216.8096 C238.6632,217.2352 238.3272,217.5376 237.868,217.5376 Z M237.2184,224 L237.2184,218.5008 L238.5064,218.5008 L238.5064,224 L237.2184,224 Z M239.9544,221.256 C239.9544,219.4192 241.1976,218.3664 242.564,218.3664 C243.9416,218.3664 245.1848,219.4192 245.1848,221.256 C245.1848,223.0816 243.9416,224.1344 242.564,224.1344 C241.1976,224.1344 239.9544,223.0816 239.9544,221.256 Z M241.276,221.256 C241.276,222.3536 241.7576,223.0816 242.564,223.0816 C243.3704,223.0816 243.8632,222.3536 243.8632,221.256 C243.8632,220.1472 243.3704,219.4192 242.564,219.4192 C241.7576,219.4192 241.276,220.1472 241.276,221.256 Z M246.6216,224 L246.6216,218.5008 L247.6856,218.5008 L247.7752,219.24 L247.82,219.24 C248.3128,218.7584 248.8728,218.3664 249.6232,218.3664 C250.7992,218.3664 251.3144,219.1616 251.3144,220.5504 L251.3144,224 L250.0264,224 L250.0264,220.7184 C250.0264,219.8112 249.7688,219.4752 249.164,219.4752 C248.6824,219.4752 248.3688,219.7104 247.9096,220.1584 L247.9096,224 L246.6216,224 Z" id="Jobname-Copy-6" fill="#465161"></path><path d="M168.5096,192.9888 C168.5096,190.7944 169.8304,189.4528 171.6608,189.4528 C172.5864,189.4528 173.2104,189.8792 173.616,190.2952 L173.1168,190.8464 C172.7736,190.4824 172.3472,190.212 171.6712,190.212 C170.288,190.212 169.404,191.2728 169.404,192.968 C169.404,194.684 170.2152,195.7656 171.6712,195.7656 C172.16,195.7656 172.6384,195.6096 172.9088,195.36 L172.9088,193.5816 L171.4632,193.5816 L171.4632,192.864 L173.6992,192.864 L173.6992,195.7344 C173.252,196.1712 172.4928,196.5248 171.5776,196.5248 C169.7888,196.5248 168.5096,195.2144 168.5096,192.9888 Z M175.288,195.0896 C175.288,193.9872 176.2448,193.436 178.3976,193.1968 C178.3976,192.552 178.1792,191.928 177.3576,191.928 C176.7648,191.928 176.2448,192.1984 175.8496,192.4688 L175.5064,191.876 C175.9744,191.5744 176.6816,191.2208 177.4928,191.2208 C178.7304,191.2208 179.2504,192.0424 179.2504,193.3008 L179.2504,196.4 L178.5432,196.4 L178.4704,195.7968 L178.4496,195.7968 C177.9608,196.192 177.3992,196.5248 176.7752,196.5248 C175.9224,196.5248 175.288,195.9944 175.288,195.0896 Z M176.1304,195.0272 C176.1304,195.5992 176.5152,195.8384 177.0144,195.8384 C177.5032,195.8384 177.9088,195.5992 178.3976,195.1624 L178.3976,193.7584 C176.7024,193.9664 176.1304,194.3824 176.1304,195.0272 Z M181.1824,196.4 L181.1824,188.9952 L182.0352,188.9952 L182.0352,191.0128 L182.0144,191.928 C182.472,191.5224 183.0336,191.2208 183.5952,191.2208 C184.9056,191.2208 185.6024,192.2296 185.6024,193.7896 C185.6024,195.516 184.5728,196.5248 183.4184,196.5248 C182.9504,196.5248 182.42,196.296 181.9728,195.9008 L181.9416,195.9008 L181.8688,196.4 L181.1824,196.4 Z M182.0352,195.2768 C182.4824,195.6616 182.94,195.8072 183.2728,195.8072 C184.1048,195.8072 184.7184,195.048 184.7184,193.8 C184.7184,192.6872 184.344,191.9384 183.3872,191.9384 C182.9608,191.9384 182.5136,192.1776 182.0352,192.6248 L182.0352,195.2768 Z M187.2744,196.4 L187.2744,191.3456 L187.9816,191.3456 L188.0544,192.2608 L188.0856,192.2608 C188.4288,191.6264 188.9488,191.2208 189.5208,191.2208 C189.7392,191.2208 189.8952,191.252 190.0616,191.3248 L189.8952,192.0736 C189.7288,192.0216 189.6144,191.9904 189.4064,191.9904 C188.98,191.9904 188.4704,192.3024 188.1272,193.1552 L188.1272,196.4 L187.2744,196.4 Z M191.64,190.3056 C191.3072,190.3056 191.0472,190.0768 191.0472,189.7544 C191.0472,189.4216 191.3072,189.2032 191.64,189.2032 C191.9728,189.2032 192.2328,189.4216 192.2328,189.7544 C192.2328,190.0768 191.9728,190.3056 191.64,190.3056 Z M191.2032,196.4 L191.2032,191.3456 L192.056,191.3456 L192.056,196.4 L191.2032,196.4 Z M193.7072,193.8832 C193.7072,192.2296 194.82,191.2208 195.9744,191.2208 C197.264,191.2208 197.992,192.1464 197.992,193.592 C197.992,193.7688 197.9816,193.9352 197.9608,194.06 L194.5496,194.06 C194.612,195.152 195.2672,195.8384 196.2344,195.8384 C196.7128,195.8384 197.1184,195.6824 197.4928,195.4432 L197.7944,196.0048 C197.3576,196.2856 196.8168,196.5248 196.1304,196.5248 C194.7784,196.5248 193.7072,195.5368 193.7072,193.8832 Z M194.5392,193.4984 L197.2432,193.4984 C197.2432,192.4688 196.7856,191.8968 195.9952,191.8968 C195.288,191.8968 194.6432,192.4792 194.5392,193.4984 Z M199.56,195.3808 L199.56,188.9952 L200.4128,188.9952 L200.4128,195.4432 C200.4128,195.7136 200.5272,195.8176 200.652,195.8176 C200.704,195.8176 200.7456,195.8176 200.8392,195.7968 L200.9536,196.4416 C200.8392,196.4936 200.6936,196.5248 200.4648,196.5248 C199.82,196.5248 199.56,196.1192 199.56,195.3808 Z M202.1576,193.8832 C202.1576,192.2296 203.2704,191.2208 204.4248,191.2208 C205.7144,191.2208 206.4424,192.1464 206.4424,193.592 C206.4424,193.7688 206.432,193.9352 206.4112,194.06 L203,194.06 C203.0624,195.152 203.7176,195.8384 204.6848,195.8384 C205.1632,195.8384 205.5688,195.6824 205.9432,195.4432 L206.2448,196.0048 C205.808,196.2856 205.2672,196.5248 204.5808,196.5248 C203.2288,196.5248 202.1576,195.5368 202.1576,193.8832 Z M202.9896,193.4984 L205.6936,193.4984 C205.6936,192.4688 205.236,191.8968 204.4456,191.8968 C203.7384,191.8968 203.0936,192.4792 202.9896,193.4984 Z M209.9944,195.516 L210.5144,194.9128 C211.0032,195.4224 211.6792,195.7656 212.3968,195.7656 C213.2912,195.7656 213.8216,195.3184 213.8216,194.6528 C213.8216,193.956 213.3224,193.7376 212.6776,193.4464 L211.7,193.02 C211.0656,192.7496 210.3168,192.2608 210.3168,191.2624 C210.3168,190.2224 211.232,189.4528 212.4696,189.4528 C213.2808,189.4528 213.9984,189.796 214.4768,190.2952 L214.0192,190.8568 C213.6032,190.4616 213.0936,190.212 212.4696,190.212 C211.7,190.212 211.1904,190.5968 211.1904,191.2104 C211.1904,191.8656 211.7936,192.1152 212.324,192.344 L213.3016,192.76 C214.092,193.1032 214.7056,193.5712 214.7056,194.58 C214.7056,195.6616 213.8112,196.5248 212.376,196.5248 C211.4192,196.5248 210.5872,196.1296 209.9944,195.516 Z M215.8784,193.8832 C215.8784,192.188 217.012,191.2208 218.312,191.2208 C218.9776,191.2208 219.4456,191.5016 219.7888,191.824 L219.3624,192.3752 C219.0608,192.1152 218.7488,191.928 218.3432,191.928 C217.428,191.928 216.7624,192.7184 216.7624,193.8832 C216.7624,195.0376 217.3968,195.8176 218.3224,195.8176 C218.8008,195.8176 219.2064,195.5784 219.508,195.308 L219.8928,195.8696 C219.4352,196.2752 218.8528,196.5248 218.2496,196.5248 C216.908,196.5248 215.8784,195.5576 215.8784,193.8832 Z M221.3152,196.4 L221.3152,188.9952 L222.168,188.9952 L222.168,191.0128 L222.1368,192.0528 C222.6152,191.5952 223.1248,191.2208 223.8216,191.2208 C224.8824,191.2208 225.3608,191.9072 225.3608,193.1968 L225.3608,196.4 L224.508,196.4 L224.508,193.3112 C224.508,192.3648 224.2168,191.9592 223.5512,191.9592 C223.0312,191.9592 222.6776,192.2296 222.168,192.7392 L222.168,196.4 L221.3152,196.4 Z M227.2928,196.4 L227.2928,191.3456 L228,191.3456 L228.0728,192.0736 L228.104,192.0736 C228.5408,191.5952 229.0712,191.2208 229.6744,191.2208 C230.444,191.2208 230.86,191.5848 231.068,192.188 C231.5984,191.616 232.1184,191.2208 232.732,191.2208 C233.772,191.2208 234.2712,191.9072 234.2712,193.1968 L234.2712,196.4 L233.4184,196.4 L233.4184,193.3112 C233.4184,192.3648 233.1168,191.9592 232.4824,191.9592 C232.0872,191.9592 231.6816,192.2192 231.2136,192.7392 L231.2136,196.4 L230.3608,196.4 L230.3608,193.3112 C230.3608,192.3648 230.0592,191.9592 229.4144,191.9592 C229.04,191.9592 228.6136,192.2192 228.1456,192.7392 L228.1456,196.4 L227.2928,196.4 Z M236.6712,190.3056 C236.3384,190.3056 236.0784,190.0768 236.0784,189.7544 C236.0784,189.4216 236.3384,189.2032 236.6712,189.2032 C237.004,189.2032 237.264,189.4216 237.264,189.7544 C237.264,190.0768 237.004,190.3056 236.6712,190.3056 Z M236.2344,196.4 L236.2344,191.3456 L237.0872,191.3456 L237.0872,196.4 L236.2344,196.4 Z M239.2584,194.84 L239.2584,192.0424 L238.5096,192.0424 L238.5096,191.3976 L239.3,191.3456 L239.404,189.9312 L240.1216,189.9312 L240.1216,191.3456 L241.484,191.3456 L241.484,192.0424 L240.1216,192.0424 L240.1216,194.8504 C240.1216,195.4744 240.3192,195.828 240.9016,195.828 C241.0784,195.828 241.3072,195.7552 241.4736,195.6928 L241.64,196.3376 C241.3592,196.4312 241.016,196.5248 240.704,196.5248 C239.6224,196.5248 239.2584,195.8384 239.2584,194.84 Z M243.0936,194.84 L243.0936,192.0424 L242.3448,192.0424 L242.3448,191.3976 L243.1352,191.3456 L243.2392,189.9312 L243.9568,189.9312 L243.9568,191.3456 L245.3192,191.3456 L245.3192,192.0424 L243.9568,192.0424 L243.9568,194.8504 C243.9568,195.4744 244.1544,195.828 244.7368,195.828 C244.9136,195.828 245.1424,195.7552 245.3088,195.6928 L245.4752,196.3376 C245.1944,196.4312 244.8512,196.5248 244.5392,196.5248 C243.4576,196.5248 243.0936,195.8384 243.0936,194.84 Z" id="Gabriele-Schmitt" fill="#465161" opacity="0.699999988"></path><path d="M180,253.6 L180.8,253.6 C181.683656,253.6 182.4,254.316344 182.4,255.2 L182.4,260.8 C182.4,261.683656 181.683656,262.4 180.8,262.4 L172.8,262.4 C171.916344,262.4 171.2,261.683656 171.2,260.8 L171.2,255.2 C171.2,254.316344 171.916344,253.6 172.8,253.6 L173.6,253.6 L173.6,252.8 C173.6,252.358172 173.958172,252 174.4,252 C174.841828,252 175.2,252.358172 175.2,252.8 L175.2,253.6 L178.4,253.6 L178.4,252.8 C178.4,252.358172 178.758172,252 179.2,252 C179.641828,252 180,252.358172 180,252.8 L180,253.6 Z M172.8,256 L172.8,260.8 L180.8,260.8 L180.8,256 L172.8,256 Z M173.6,258 C173.6,257.337258 174.137258,256.8 174.8,256.8 C175.462742,256.8 176,257.337258 176,258 C176,258.662742 175.462742,259.2 174.8,259.2 C174.137258,259.2 173.6,258.662742 173.6,258 Z" id="Rectangle-62-Copy-13" fill="#465161" opacity="0.5"></path><path d="M180,268 L180.8,268 C181.683656,268 182.4,268.716344 182.4,269.6 L182.4,275.2 C182.4,276.083656 181.683656,276.8 180.8,276.8 L172.8,276.8 C171.916344,276.8 171.2,276.083656 171.2,275.2 L171.2,269.6 C171.2,268.716344 171.916344,268 172.8,268 L173.6,268 L173.6,267.2 C173.6,266.758172 173.958172,266.4 174.4,266.4 C174.841828,266.4 175.2,266.758172 175.2,267.2 L175.2,268 L178.4,268 L178.4,267.2 C178.4,266.758172 178.758172,266.4 179.2,266.4 C179.641828,266.4 180,266.758172 180,267.2 L180,268 Z M172.8,270.4 L172.8,275.2 L180.8,275.2 L180.8,270.4 L172.8,270.4 Z M177.6,273.2 C177.6,272.537258 178.137258,272 178.8,272 C179.462742,272 180,272.537258 180,273.2 C180,273.862742 179.462742,274.4 178.8,274.4 C178.137258,274.4 177.6,273.862742 177.6,273.2 Z" id="Rectangle-62-Copy-12" fill="#465161" opacity="0.5"></path><path d="M168,180 C168,178.232689 169.423621,176.8 171.205752,176.8 L204.794248,176.8 C206.564736,176.8 208,178.236285 208,180 L208,180 C208,181.767311 206.576379,183.2 204.794248,183.2 L171.205752,183.2 C169.435264,183.2 168,181.763715 168,180 L168,180 Z" id="Container-Copy-14" fill="#EDF0F2"></path><path d="M188.8,257.6 C188.8,255.832689 190.227548,254.4 192.003344,254.4 L271.996656,254.4 C273.765814,254.4 275.2,255.836285 275.2,257.6 L275.2,257.6 C275.2,259.367311 273.772452,260.8 271.996656,260.8 L192.003344,260.8 C190.234186,260.8 188.8,259.363715 188.8,257.6 L188.8,257.6 Z" id="Container-Copy-13" fill="#465161" opacity="0.100000001"></path><path d="M188.8,272 C188.8,270.232689 190.227548,268.8 192.003344,268.8 L271.996656,268.8 C273.765814,268.8 275.2,270.236285 275.2,272 L275.2,272 C275.2,273.767311 273.772452,275.2 271.996656,275.2 L192.003344,275.2 C190.234186,275.2 188.8,273.763715 188.8,272 L188.8,272 Z" id="Container-Copy-12" fill="#465161" opacity="0.100000001"></path><rect id="Rectangle-Copy-133" fill="#EBECEE" fill-rule="nonzero" x="288" y="240" width="15.2" height="1.6"></rect><rect id="Rectangle-Copy-132" fill="#EBECEE" fill-rule="nonzero" x="304.8" y="152" width="15.2" height="1.6"></rect><rect id="Rectangle-Copy-136" fill="#EBECEE" fill-rule="nonzero" x="448" y="152" width="20" height="1.6"></rect><rect id="Rectangle-Copy-137" fill="#EBECEE" fill-rule="nonzero" x="596" y="152" width="20" height="1.6"></rect><rect id="Rectangle-Copy-138" fill="#465161" fill-rule="nonzero" x="144.8" y="240" width="15.2" height="1.6"></rect><rect id="Rectangle-Copy-135" fill="#465161" fill-rule="nonzero" x="128" y="152" width="15.2" height="1.6"></rect><rect id="Rectangle" fill="#EBECEE" fill-rule="nonzero" x="303.2" y="72" width="1.6" height="169.6"></rect><rect id="Rectangle-Copy-134" fill="#465161" fill-rule="nonzero" x="143.2" y="72" width="1.6" height="169.6"></rect><path d="M0,203.2 L128,203.2 L128,214.4 C128,217.050967 125.850967,219.2 123.2,219.2 L4.8,219.2 C2.1490332,219.2 -3.22806388e-15,217.050967 -3.55271368e-15,214.4 L0,203.2 Z" id="Rectangle-4-Copy-4" fill="#00AB78"></path><path d="M320,203.2 L448,203.2 L448,214.4 C448,217.050967 445.850967,219.2 443.2,219.2 L324.8,219.2 C322.149033,219.2 320,217.050967 320,214.4 L320,203.2 Z" id="Rectangle-4-Copy-4" fill="#FF9600"></path><path d="M616,203 L744,203 L744,214.2 C744,216.850967 741.850967,219 739.2,219 L620.8,219 C618.149033,219 616,216.850967 616,214.2 L616,203 Z" id="Rectangle-4-Copy-4" fill="#FF9600"></path><path d="M160,120 L288,120 L288,131.2 C288,133.850967 285.850967,136 283.2,136 L164.8,136 C162.149033,136 160,133.850967 160,131.2 L160,120 Z" id="Rectangle-4-Copy-4" fill="#00D9AA"></path><path d="M468,203 L596,203 L596,214.2 C596,216.850967 593.850967,219 591.2,219 L472.8,219 C470.149033,219 468,216.850967 468,214.2 L468,203 Z" id="Rectangle-4-Copy-4" fill="#FFBE00"></path><path d="M28.8,211.2 C28.8,209.432689 30.2381682,208 32.0078773,208 L95.9921227,208 C97.7637844,208 99.2,209.436285 99.2,211.2 L99.2,211.2 C99.2,212.967311 97.7618318,214.4 95.9921227,214.4 L32.0078773,214.4 C30.2362156,214.4 28.8,212.963715 28.8,211.2 L28.8,211.2 Z" id="Container-Copy-6" fill="#FFFFFF" opacity="0.400000006"></path><path d="M188.8,128 C188.8,126.232689 190.238168,124.8 192.007877,124.8 L255.992123,124.8 C257.763784,124.8 259.2,126.236285 259.2,128 L259.2,128 C259.2,129.767311 257.761832,131.2 255.992123,131.2 L192.007877,131.2 C190.236216,131.2 188.8,129.763715 188.8,128 L188.8,128 Z" id="Container-Copy-6" fill="#FFFFFF" opacity="0.400000006"></path><path d="M160,288 L288,288 L288,299.2 C288,301.850967 285.850967,304 283.2,304 L164.8,304 C162.149033,304 160,301.850967 160,299.2 L160,288 Z" id="Rectangle-4-Copy-5" fill="#00D9AA"></path><path d="M188.8,296 C188.8,294.232689 190.238168,292.8 192.007877,292.8 L255.992123,292.8 C257.763784,292.8 259.2,294.236285 259.2,296 L259.2,296 C259.2,297.767311 257.761832,299.2 255.992123,299.2 L192.007877,299.2 C190.236216,299.2 188.8,297.763715 188.8,296 L188.8,296 Z" id="Container-Copy-18" fill="#FFFFFF" opacity="0.400000006"></path><path d="M348.8,211.2 C348.8,209.432689 350.238168,208 352.007877,208 L415.992123,208 C417.763784,208 419.2,209.436285 419.2,211.2 L419.2,211.2 C419.2,212.967311 417.761832,214.4 415.992123,214.4 L352.007877,214.4 C350.236216,214.4 348.8,212.963715 348.8,211.2 L348.8,211.2 Z" id="Container-Copy-19" fill="#FFFFFF" opacity="0.400000006"></path><path d="M497,211.2 C497,209.432689 498.438168,208 500.207877,208 L564.192123,208 C565.963784,208 567.4,209.436285 567.4,211.2 L567.4,211.2 C567.4,212.967311 565.961832,214.4 564.192123,214.4 L500.207877,214.4 C498.436216,214.4 497,212.963715 497,211.2 L497,211.2 Z" id="Container-Copy-19" fill="#FFFFFF" opacity="0.400000006"></path><path d="M645,210.401332 C645,209.075113 646.077645,208 647.402961,208 L712.997039,208 C714.324158,208 715.4,209.071216 715.4,210.401332 L715.4,211.998668 C715.4,213.324887 714.322355,214.4 712.997039,214.4 L647.402961,214.4 C646.075842,214.4 645,213.328784 645,211.998668 L645,210.401332 Z" id="Container-Copy-19" fill="#FFFFFF" opacity="0.400000006"></path><path d="M198.1608,56 L198.1608,49.7728 L196.044,49.7728 L196.044,48.6752 L201.5656,48.6752 L201.5656,49.7728 L199.46,49.7728 L199.46,56 L198.1608,56 Z M202.3304,56 L202.3304,50.5008 L203.3944,50.5008 L203.484,51.4752 L203.5288,51.4752 C203.9208,50.7584 204.5032,50.3664 205.0856,50.3664 C205.3656,50.3664 205.5448,50.4 205.7128,50.4784 L205.4888,51.5984 C205.2984,51.5424 205.1528,51.5088 204.9176,51.5088 C204.4808,51.5088 203.9544,51.8112 203.6184,52.64 L203.6184,56 L202.3304,56 Z M206.1304,54.5216 C206.1304,53.3456 207.116,52.7296 209.3672,52.4832 C209.356,51.9008 209.1096,51.408 208.3704,51.408 C207.8216,51.408 207.3064,51.6544 206.8248,51.9456 L206.3544,51.0832 C206.9592,50.7024 207.732,50.3664 208.6056,50.3664 C209.9832,50.3664 210.6552,51.2064 210.6552,52.7408 L210.6552,56 L209.6024,56 L209.5016,55.3952 L209.468,55.3952 C208.9752,55.8096 208.4152,56.1344 207.7656,56.1344 C206.8024,56.1344 206.1304,55.4848 206.1304,54.5216 Z M207.3848,54.4208 C207.3848,54.9136 207.7096,55.1264 208.1688,55.1264 C208.6168,55.1264 208.964,54.9024 209.3672,54.5216 L209.3672,53.2896 C207.8776,53.48 207.3848,53.872 207.3848,54.4208 Z M212.3832,56 L212.3832,50.5008 L213.4472,50.5008 L213.5368,51.24 L213.5816,51.24 C214.0744,50.7584 214.6344,50.3664 215.3848,50.3664 C216.5608,50.3664 217.076,51.1616 217.076,52.5504 L217.076,56 L215.788,56 L215.788,52.7184 C215.788,51.8112 215.5304,51.4752 214.9256,51.4752 C214.444,51.4752 214.1304,51.7104 213.6712,52.1584 L213.6712,56 L212.3832,56 Z M218.2664,55.3728 L218.8712,54.544 C219.364,54.9248 219.8344,55.16 220.3944,55.16 C220.988,55.16 221.268,54.88 221.268,54.4992 C221.268,54.04 220.6744,53.8384 220.092,53.6144 C219.364,53.3456 218.5464,52.9312 218.5464,52.0128 C218.5464,51.0496 219.3192,50.3664 220.5512,50.3664 C221.3128,50.3664 221.9288,50.68 222.3768,51.0272 L221.7832,51.8112 C221.4024,51.5312 221.0104,51.3408 220.5736,51.3408 C220.0248,51.3408 219.7672,51.5984 219.7672,51.9456 C219.7672,52.3712 220.316,52.5504 220.9096,52.7632 C221.66,53.0432 222.4888,53.4016 222.4888,54.432 C222.4888,55.3728 221.7384,56.1344 220.3496,56.1344 C219.5992,56.1344 218.804,55.8096 218.2664,55.3728 Z M223.8024,54.5888 L223.8024,48.0928 L225.0904,48.0928 L225.0904,54.656 C225.0904,54.9696 225.236,55.0816 225.3704,55.0816 C225.4264,55.0816 225.4712,55.0816 225.572,55.0592 L225.74,56.0224 C225.5832,56.0896 225.3592,56.1344 225.0568,56.1344 C224.1384,56.1344 223.8024,55.5408 223.8024,54.5888 Z M226.7624,54.5216 C226.7624,53.3456 227.748,52.7296 229.9992,52.4832 C229.988,51.9008 229.7416,51.408 229.0024,51.408 C228.4536,51.408 227.9384,51.6544 227.4568,51.9456 L226.9864,51.0832 C227.5912,50.7024 228.364,50.3664 229.2376,50.3664 C230.6152,50.3664 231.2872,51.2064 231.2872,52.7408 L231.2872,56 L230.2344,56 L230.1336,55.3952 L230.1,55.3952 C229.6072,55.8096 229.0472,56.1344 228.3976,56.1344 C227.4344,56.1344 226.7624,55.4848 226.7624,54.5216 Z M228.0168,54.4208 C228.0168,54.9136 228.3416,55.1264 228.8008,55.1264 C229.2488,55.1264 229.596,54.9024 229.9992,54.5216 L229.9992,53.2896 C228.5096,53.48 228.0168,53.872 228.0168,54.4208 Z M233.2056,54.1408 L233.2056,51.52 L232.4216,51.52 L232.4216,50.5568 L233.2728,50.5008 L233.4296,49 L234.5048,49 L234.5048,50.5008 L235.9048,50.5008 L235.9048,51.52 L234.5048,51.52 L234.5048,54.1408 C234.5048,54.7904 234.7512,55.104 235.2776,55.104 C235.468,55.104 235.692,55.048 235.8488,54.9808 L236.0728,55.9328 C235.7704,56.0336 235.3896,56.1344 234.9528,56.1344 C233.676,56.1344 233.2056,55.328 233.2056,54.1408 Z M237.868,49.5376 C237.4088,49.5376 237.0728,49.2352 237.0728,48.8096 C237.0728,48.3728 237.4088,48.0704 237.868,48.0704 C238.3272,48.0704 238.6632,48.3728 238.6632,48.8096 C238.6632,49.2352 238.3272,49.5376 237.868,49.5376 Z M237.2184,56 L237.2184,50.5008 L238.5064,50.5008 L238.5064,56 L237.2184,56 Z M239.9544,53.256 C239.9544,51.4192 241.1976,50.3664 242.564,50.3664 C243.9416,50.3664 245.1848,51.4192 245.1848,53.256 C245.1848,55.0816 243.9416,56.1344 242.564,56.1344 C241.1976,56.1344 239.9544,55.0816 239.9544,53.256 Z M241.276,53.256 C241.276,54.3536 241.7576,55.0816 242.564,55.0816 C243.3704,55.0816 243.8632,54.3536 243.8632,53.256 C243.8632,52.1472 243.3704,51.4192 242.564,51.4192 C241.7576,51.4192 241.276,52.1472 241.276,53.256 Z M246.6216,56 L246.6216,50.5008 L247.6856,50.5008 L247.7752,51.24 L247.82,51.24 C248.3128,50.7584 248.8728,50.3664 249.6232,50.3664 C250.7992,50.3664 251.3144,51.1616 251.3144,52.5504 L251.3144,56 L250.0264,56 L250.0264,52.7184 C250.0264,51.8112 249.7688,51.4752 249.164,51.4752 C248.6824,51.4752 248.3688,51.7104 247.9096,52.1584 L247.9096,56 L246.6216,56 Z" id="Jobname-Copy-5" fill="#465161"></path><path d="M169.7576,25.6232 L171.8064,25.6232 L171.484,24.5832 C171.2448,23.824 171.0264,23.0752 170.808,22.2848 L170.7664,22.2848 C170.548,23.0752 170.3296,23.824 170.0904,24.5832 L169.7576,25.6232 Z M172.68,28.4 L172.0248,26.32 L169.5392,26.32 L168.884,28.4 L168,28.4 L170.3088,21.5776 L171.2864,21.5776 L173.5952,28.4 L172.68,28.4 Z M174.768,28.4 L174.768,23.3456 L175.4752,23.3456 L175.548,24.0736 L175.5792,24.0736 C176.0576,23.5952 176.5776,23.2208 177.2744,23.2208 C178.3352,23.2208 178.8136,23.9072 178.8136,25.1968 L178.8136,28.4 L177.9608,28.4 L177.9608,25.3112 C177.9608,24.3648 177.6696,23.9592 177.004,23.9592 C176.484,23.9592 176.1304,24.2296 175.6208,24.7392 L175.6208,28.4 L174.768,28.4 Z M181.1408,29.2528 C181.1408,29.7936 181.692,30.1368 182.6072,30.1368 C183.5744,30.1368 184.2088,29.6376 184.2088,29.1072 C184.2088,28.6392 183.8448,28.4832 183.1896,28.4832 L182.316,28.4832 C182.1184,28.4832 181.8792,28.4624 181.6608,28.4 C181.2968,28.66 181.1408,28.9616 181.1408,29.2528 Z M180.392,29.3672 C180.392,28.9408 180.6728,28.5352 181.1304,28.2232 L181.1304,28.1816 C180.8808,28.0256 180.6832,27.7552 180.6832,27.36 C180.6832,26.9336 180.9744,26.6008 181.2344,26.424 L181.2344,26.3824 C180.9016,26.112 180.5792,25.6232 180.5792,25.02 C180.5792,23.9176 181.4528,23.2208 182.4824,23.2208 C182.7632,23.2208 183.0128,23.2728 183.2,23.3456 L184.9576,23.3456 L184.9576,24.0008 L183.9176,24.0008 C184.1568,24.2296 184.3336,24.6144 184.3336,25.0408 C184.3336,26.1224 183.512,26.7984 182.4824,26.7984 C182.2328,26.7984 181.952,26.736 181.7232,26.6216 C181.5464,26.7776 181.4008,26.944 181.4008,27.2248 C181.4008,27.5472 181.6088,27.776 182.2952,27.776 L183.2728,27.776 C184.448,27.776 185.0408,28.14 185.0408,28.9824 C185.0408,29.9184 184.0528,30.7296 182.4824,30.7296 C181.2448,30.7296 180.392,30.2408 180.392,29.3672 Z M182.4824,26.2264 C183.0648,26.2264 183.5536,25.7584 183.5536,25.02 C183.5536,24.2816 183.0752,23.8448 182.4824,23.8448 C181.8896,23.8448 181.4112,24.2816 181.4112,25.02 C181.4112,25.7584 181.9,26.2264 182.4824,26.2264 Z M185.8184,25.8832 C185.8184,24.2296 186.9312,23.2208 188.0856,23.2208 C189.3752,23.2208 190.1032,24.1464 190.1032,25.592 C190.1032,25.7688 190.0928,25.9352 190.072,26.06 L186.6608,26.06 C186.7232,27.152 187.3784,27.8384 188.3456,27.8384 C188.824,27.8384 189.2296,27.6824 189.604,27.4432 L189.9056,28.0048 C189.4688,28.2856 188.928,28.5248 188.2416,28.5248 C186.8896,28.5248 185.8184,27.5368 185.8184,25.8832 Z M186.6504,25.4984 L189.3544,25.4984 C189.3544,24.4688 188.8968,23.8968 188.1064,23.8968 C187.3992,23.8968 186.7544,24.4792 186.6504,25.4984 Z M191.6712,27.3808 L191.6712,20.9952 L192.524,20.9952 L192.524,27.4432 C192.524,27.7136 192.6384,27.8176 192.7632,27.8176 C192.8152,27.8176 192.8568,27.8176 192.9504,27.7968 L193.0648,28.4416 C192.9504,28.4936 192.8048,28.5248 192.576,28.5248 C191.9312,28.5248 191.6712,28.1192 191.6712,27.3808 Z M194.3936,27.0896 C194.3936,25.9872 195.3504,25.436 197.5032,25.1968 C197.5032,24.552 197.2848,23.928 196.4632,23.928 C195.8704,23.928 195.3504,24.1984 194.9552,24.4688 L194.612,23.876 C195.08,23.5744 195.7872,23.2208 196.5984,23.2208 C197.836,23.2208 198.356,24.0424 198.356,25.3008 L198.356,28.4 L197.6488,28.4 L197.576,27.7968 L197.5552,27.7968 C197.0664,28.192 196.5048,28.5248 195.8808,28.5248 C195.028,28.5248 194.3936,27.9944 194.3936,27.0896 Z M195.236,27.0272 C195.236,27.5992 195.6208,27.8384 196.12,27.8384 C196.6088,27.8384 197.0144,27.5992 197.5032,27.1624 L197.5032,25.7584 C195.808,25.9664 195.236,26.3824 195.236,27.0272 Z M202.7608,28.4 L202.7608,21.5776 L203.6344,21.5776 L203.6344,27.6616 L206.6088,27.6616 L206.6088,28.4 L202.7608,28.4 Z M207.532,25.8832 C207.532,24.188 208.6344,23.2208 209.872,23.2208 C211.1096,23.2208 212.212,24.188 212.212,25.8832 C212.212,27.5576 211.1096,28.5248 209.872,28.5248 C208.6344,28.5248 207.532,27.5576 207.532,25.8832 Z M208.416,25.8832 C208.416,27.0376 209.0088,27.8176 209.872,27.8176 C210.7456,27.8176 211.328,27.0376 211.328,25.8832 C211.328,24.7184 210.7456,23.928 209.872,23.928 C209.0088,23.928 208.416,24.7184 208.416,25.8832 Z M214.2272,29.2528 C214.2272,29.7936 214.7784,30.1368 215.6936,30.1368 C216.6608,30.1368 217.2952,29.6376 217.2952,29.1072 C217.2952,28.6392 216.9312,28.4832 216.276,28.4832 L215.4024,28.4832 C215.2048,28.4832 214.9656,28.4624 214.7472,28.4 C214.3832,28.66 214.2272,28.9616 214.2272,29.2528 Z M213.4784,29.3672 C213.4784,28.9408 213.7592,28.5352 214.2168,28.2232 L214.2168,28.1816 C213.9672,28.0256 213.7696,27.7552 213.7696,27.36 C213.7696,26.9336 214.0608,26.6008 214.3208,26.424 L214.3208,26.3824 C213.988,26.112 213.6656,25.6232 213.6656,25.02 C213.6656,23.9176 214.5392,23.2208 215.5688,23.2208 C215.8496,23.2208 216.0992,23.2728 216.2864,23.3456 L218.044,23.3456 L218.044,24.0008 L217.004,24.0008 C217.2432,24.2296 217.42,24.6144 217.42,25.0408 C217.42,26.1224 216.5984,26.7984 215.5688,26.7984 C215.3192,26.7984 215.0384,26.736 214.8096,26.6216 C214.6328,26.7776 214.4872,26.944 214.4872,27.2248 C214.4872,27.5472 214.6952,27.776 215.3816,27.776 L216.3592,27.776 C217.5344,27.776 218.1272,28.14 218.1272,28.9824 C218.1272,29.9184 217.1392,30.7296 215.5688,30.7296 C214.3312,30.7296 213.4784,30.2408 213.4784,29.3672 Z M215.5688,26.2264 C216.1512,26.2264 216.64,25.7584 216.64,25.02 C216.64,24.2816 216.1616,23.8448 215.5688,23.8448 C214.976,23.8448 214.4976,24.2816 214.4976,25.02 C214.4976,25.7584 214.9864,26.2264 215.5688,26.2264 Z M219.0088,27.0896 C219.0088,25.9872 219.9656,25.436 222.1184,25.1968 C222.1184,24.552 221.9,23.928 221.0784,23.928 C220.4856,23.928 219.9656,24.1984 219.5704,24.4688 L219.2272,23.876 C219.6952,23.5744 220.4024,23.2208 221.2136,23.2208 C222.4512,23.2208 222.9712,24.0424 222.9712,25.3008 L222.9712,28.4 L222.264,28.4 L222.1912,27.7968 L222.1704,27.7968 C221.6816,28.192 221.12,28.5248 220.496,28.5248 C219.6432,28.5248 219.0088,27.9944 219.0088,27.0896 Z M219.8512,27.0272 C219.8512,27.5992 220.236,27.8384 220.7352,27.8384 C221.224,27.8384 221.6296,27.5992 222.1184,27.1624 L222.1184,25.7584 C220.4232,25.9664 219.8512,26.3824 219.8512,27.0272 Z M224.9032,28.4 L224.9032,23.3456 L225.6104,23.3456 L225.6832,24.0736 L225.7144,24.0736 C226.1928,23.5952 226.7128,23.2208 227.4096,23.2208 C228.4704,23.2208 228.9488,23.9072 228.9488,25.1968 L228.9488,28.4 L228.096,28.4 L228.096,25.3112 C228.096,24.3648 227.8048,23.9592 227.1392,23.9592 C226.6192,23.9592 226.2656,24.2296 225.756,24.7392 L225.756,28.4 L224.9032,28.4 Z" id="Angela-Logan" fill="#465161" opacity="0.699999988"></path><path d="M168,12 C168,10.2326888 169.423621,8.8 171.205752,8.8 L204.794248,8.8 C206.564736,8.8 208,10.2362849 208,12 L208,12 C208,13.7673112 206.576379,15.2 204.794248,15.2 L171.205752,15.2 C169.435264,15.2 168,13.7637151 168,12 L168,12 Z" id="Container-Copy-3" fill="#EDF0F2"></path><rect id="Rectangle" fill="#EBECEE" fill-rule="nonzero" x="288" y="72" width="15.2" height="1.6"></rect><rect id="Rectangle-Copy-131" fill="#465161" fill-rule="nonzero" x="144.8" y="72" width="15.2" height="1.6"></rect><path d="M0,203.2 L128,203.2 L128,214.4 C128,217.050967 125.850967,219.2 123.2,219.2 L4.8,219.2 C2.1490332,219.2 -3.22806388e-15,217.050967 -3.55271368e-15,214.4 L0,203.2 Z" id="Rectangle-4-Copy-4" fill="url(#linearGradient-14)"></path><path d="M320,203.2 L448,203.2 L448,214.4 C448,217.050967 445.850967,219.2 443.2,219.2 L324.8,219.2 C322.149033,219.2 320,217.050967 320,214.4 L320,203.2 Z" id="Rectangle-4-Copy-4" fill="url(#linearGradient-14)"></path><path d="M616,203 L744,203 L744,214.2 C744,216.850967 741.850967,219 739.2,219 L620.8,219 C618.149033,219 616,216.850967 616,214.2 L616,203 Z" id="Rectangle-4-Copy-4" fill="url(#linearGradient-14)"></path><path d="M160,120 L288,120 L288,131.2 C288,133.850967 285.850967,136 283.2,136 L164.8,136 C162.149033,136 160,133.850967 160,131.2 L160,120 Z" id="Rectangle-4-Copy-4" fill="url(#linearGradient-14)"></path><path d="M468,203 L596,203 L596,214.2 C596,216.850967 593.850967,219 591.2,219 L472.8,219 C470.149033,219 468,216.850967 468,214.2 L468,203 Z" id="Rectangle-4-Copy-4" fill="url(#linearGradient-14)"></path><path d="M160,288 L288,288 L288,299.2 C288,301.850967 285.850967,304 283.2,304 L164.8,304 C162.149033,304 160,301.850967 160,299.2 L160,288 Z" id="Rectangle-4-Copy-5" fill="url(#linearGradient-14)"></path></g></g></svg> 